<svg width="20" height="20" viewBox="0 0 20 20" fill="none" xmlns="http://www.w3.org/2000/svg">
<path fill-rule="evenodd" clip-rule="evenodd" d="M9.67472 0.0874634C10.038 0.0874634 10.3863 0.23176 10.6432 0.48861C10.9 0.74546 11.0443 1.09382 11.0443 1.45706V8.30506H17.8923C18.2556 8.30506 18.6039 8.44936 18.8608 8.70621C19.1176 8.96306 19.2619 9.31142 19.2619 9.67466C19.2619 10.0379 19.1176 10.3863 18.8608 10.6431C18.6039 10.9 18.2556 11.0443 17.8923 11.0443H11.0443V17.8923C11.0443 18.2555 10.9 18.6039 10.6432 18.8607C10.3863 19.1176 10.038 19.2619 9.67472 19.2619C9.31148 19.2619 8.96312 19.1176 8.70627 18.8607C8.44942 18.6039 8.30512 18.2555 8.30512 17.8923V11.0443H1.45712C1.09388 11.0443 0.745521 10.9 0.488671 10.6431C0.231821 10.3863 0.0875244 10.0379 0.0875244 9.67466C0.0875244 9.31142 0.231821 8.96306 0.488671 8.70621C0.745521 8.44936 1.09388 8.30506 1.45712 8.30506H8.30512V1.45706C8.30512 1.09382 8.44942 0.74546 8.70627 0.48861C8.96312 0.23176 9.31148 0.0874634 9.67472 0.0874634V0.0874634Z" fill="white"/>
</svg>
