<svg width="23" height="23" viewBox="0 0 23 23" fill="none" xmlns="http://www.w3.org/2000/svg">
<g clip-path="url(#clip0_1_4601)">
<path d="M22.1638 11.5001C22.1638 9.39092 21.5384 7.32913 20.3666 5.57544C19.1948 3.82174 17.5293 2.4549 15.5807 1.64776C13.6321 0.840619 11.4879 0.629435 9.41929 1.04091C7.35066 1.45239 5.4505 2.46804 3.9591 3.95944C2.46771 5.45084 1.45205 7.35099 1.04058 9.41962C0.629103 11.4882 0.840286 13.6324 1.64742 15.581C2.45456 17.5296 3.8214 19.1951 5.5751 20.3669C7.3288 21.5387 9.39059 22.1642 11.4997 22.1642C14.328 22.1642 17.0405 21.0406 19.0404 19.0407C21.0403 17.0408 22.1638 14.3284 22.1638 11.5001ZM2.25755 11.5001C2.25755 9.67214 2.79959 7.88526 3.81514 6.36539C4.83068 4.84552 6.27412 3.66092 7.96291 2.9614C9.6517 2.26188 11.51 2.07885 13.3028 2.43547C15.0956 2.79208 16.7424 3.67231 18.035 4.96486C19.3275 6.2574 20.2077 7.9042 20.5644 9.69701C20.921 11.4898 20.7379 13.3481 20.0384 15.0369C19.3389 16.7257 18.1543 18.1691 16.6344 19.1847C15.1146 20.2002 13.3277 20.7423 11.4997 20.7423C9.04856 20.7423 6.69777 19.7685 4.96452 18.0353C3.23128 16.3021 2.25755 13.9513 2.25755 11.5001Z" fill="white"/>
<path d="M14.2513 15.4741L10.2842 11.5L14.2513 7.52581C14.3837 7.39261 14.458 7.21242 14.458 7.0246C14.458 6.83678 14.3837 6.65659 14.2513 6.52339C14.1181 6.39097 13.9379 6.31665 13.7501 6.31665C13.5622 6.31665 13.3821 6.39097 13.2488 6.52339L8.72728 11.045C8.60746 11.1661 8.54025 11.3296 8.54025 11.5C8.54025 11.6703 8.60746 11.8338 8.72728 11.955L13.2488 16.4765C13.3821 16.6089 13.5622 16.6833 13.7501 16.6833C13.9379 16.6833 14.1181 16.6089 14.2513 16.4765C14.3837 16.3433 14.458 16.1631 14.458 15.9753C14.458 15.7875 14.3837 15.6073 14.2513 15.4741Z" fill="white"/>
</g>
<defs>
<clipPath id="clip0_1_4601">
<rect width="22.75" height="22.75" fill="white" transform="matrix(-1 0 0 1 22.875 0.125549)"/>
</clipPath>
</defs>
</svg>
