<svg width="23" height="23" viewBox="0 0 23 23" fill="none" xmlns="http://www.w3.org/2000/svg">
<path d="M10.4 8.2H12.6V6H10.4M11.5 20.3C6.64898 20.3 2.69998 16.351 2.69998 11.5C2.69998 6.649 6.64898 2.7 11.5 2.7C16.351 2.7 20.3 6.649 20.3 11.5C20.3 16.351 16.351 20.3 11.5 20.3ZM11.5 0.5C10.0554 0.5 8.62505 0.784523 7.29047 1.33733C5.95589 1.89013 4.74325 2.70038 3.72181 3.72183C1.65891 5.78473 0.499985 8.58262 0.499985 11.5C0.499985 14.4174 1.65891 17.2153 3.72181 19.2782C4.74325 20.2996 5.95589 21.1099 7.29047 21.6627C8.62505 22.2155 10.0554 22.5 11.5 22.5C14.4174 22.5 17.2153 21.3411 19.2782 19.2782C21.3411 17.2153 22.5 14.4174 22.5 11.5C22.5 10.0555 22.2155 8.62506 21.6627 7.29048C21.1099 5.9559 20.2996 4.74327 19.2782 3.72183C18.2567 2.70038 17.0441 1.89013 15.7095 1.33733C14.3749 0.784523 12.9445 0.5 11.5 0.5ZM10.4 17H12.6V10.4H10.4V17Z" fill="white"/>
</svg>
