<svg width="36" height="19" viewBox="0 0 36 19" fill="none" xmlns="http://www.w3.org/2000/svg">
<g opacity="0.5">
<path d="M10.0828 8.84109L1.44324 0.210268C1.27596 0.0670097 1.06078 -0.00784852 0.840699 0.000652149C0.620621 0.00915282 0.411856 0.100386 0.256121 0.256121C0.100386 0.411856 0.00915282 0.620622 0.000652149 0.8407C-0.00784852 1.06078 0.0670097 1.27596 0.210268 1.44324L8.13279 9.36576L0.437625 17.0609C0.274757 17.2248 0.183341 17.4464 0.183341 17.6774C0.183341 17.9084 0.274757 18.1301 0.437625 18.2939C0.518916 18.3759 0.615632 18.4409 0.722192 18.4853C0.828751 18.5297 0.943047 18.5526 1.05848 18.5526C1.17392 18.5526 1.28822 18.5297 1.39478 18.4853C1.50134 18.4409 1.59805 18.3759 1.67934 18.2939L10.0828 9.89043C10.2216 9.75111 10.2996 9.56245 10.2996 9.36576C10.2996 9.16908 10.2216 8.98041 10.0828 8.84109Z" fill="white"/>
<path d="M18.46 8.84109L9.82044 0.210268C9.65316 0.0670097 9.43798 -0.00784852 9.2179 0.000652149C8.99782 0.00915282 8.78905 0.100386 8.63332 0.256121C8.47758 0.411856 8.38635 0.620622 8.37785 0.8407C8.36935 1.06078 8.44421 1.27596 8.58747 1.44324L16.51 9.36576L8.81482 17.0609C8.65196 17.2248 8.56054 17.4464 8.56054 17.6774C8.56054 17.9084 8.65196 18.1301 8.81482 18.2939C8.97866 18.4568 9.20029 18.5482 9.43131 18.5482C9.66233 18.5482 9.88396 18.4568 10.0478 18.2939L18.46 9.89043C18.5988 9.75111 18.6768 9.56245 18.6768 9.36576C18.6768 9.16908 18.5988 8.98041 18.46 8.84109Z" fill="white"/>
<path d="M27.0828 8.84109L18.4432 0.210268C18.276 0.0670097 18.0608 -0.00784852 17.8407 0.000652149C17.6206 0.00915282 17.4119 0.100386 17.2561 0.256121C17.1004 0.411856 17.0092 0.620622 17.0007 0.8407C16.9922 1.06078 17.067 1.27596 17.2103 1.44324L25.1328 9.36576L17.4376 17.0609C17.2748 17.2248 17.1833 17.4464 17.1833 17.6774C17.1833 17.9084 17.2748 18.1301 17.4376 18.2939C17.5189 18.3759 17.6156 18.4409 17.7222 18.4853C17.8288 18.5297 17.943 18.5526 18.0585 18.5526C18.1739 18.5526 18.2882 18.5297 18.3948 18.4853C18.5013 18.4409 18.5981 18.3759 18.6793 18.2939L27.0828 9.89043C27.2216 9.75111 27.2996 9.56245 27.2996 9.36576C27.2996 9.16908 27.2216 8.98041 27.0828 8.84109Z" fill="white"/>
<path d="M35.46 8.84109L26.8204 0.210268C26.6532 0.0670097 26.438 -0.00784852 26.2179 0.000652149C25.9978 0.00915282 25.7891 0.100386 25.6333 0.256121C25.4776 0.411856 25.3864 0.620622 25.3778 0.8407C25.3693 1.06078 25.4442 1.27596 25.5875 1.44324L33.51 9.36576L25.8148 17.0609C25.652 17.2248 25.5605 17.4464 25.5605 17.6774C25.5605 17.9084 25.652 18.1301 25.8148 18.2939C25.9787 18.4568 26.2003 18.5482 26.4313 18.5482C26.6623 18.5482 26.884 18.4568 27.0478 18.2939L35.46 9.89043C35.5988 9.75111 35.6768 9.56245 35.6768 9.36576C35.6768 9.16908 35.5988 8.98041 35.46 8.84109Z" fill="white"/>
</g>
</svg>
