<svg width="26" height="26" viewBox="0 0 26 26" fill="none" xmlns="http://www.w3.org/2000/svg">
<path d="M9.74995 11.375C9.74995 11.1595 9.83555 10.9529 9.98793 10.8005C10.1403 10.6481 10.347 10.5625 10.5624 10.5625H15.4374C15.6529 10.5625 15.8596 10.6481 16.012 10.8005C16.1643 10.9529 16.2499 11.1595 16.2499 11.375C16.2499 11.5905 16.1643 11.7972 16.012 11.9495C15.8596 12.1019 15.6529 12.1875 15.4374 12.1875H10.5624C10.347 12.1875 10.1403 12.1019 9.98793 11.9495C9.83555 11.7972 9.74995 11.5905 9.74995 11.375ZM10.5624 13.8125C10.347 13.8125 10.1403 13.8981 9.98793 14.0505C9.83555 14.2029 9.74995 14.4095 9.74995 14.625C9.74995 14.8405 9.83555 15.0472 9.98793 15.1995C10.1403 15.3519 10.347 15.4375 10.5624 15.4375H13.8124C14.0279 15.4375 14.2346 15.3519 14.387 15.1995C14.5393 15.0472 14.6249 14.8405 14.6249 14.625C14.6249 14.4095 14.5393 14.2029 14.387 14.0505C14.2346 13.8981 14.0279 13.8125 13.8124 13.8125H10.5624ZM3.24995 13C3.25037 10.8535 3.95914 8.76705 5.26633 7.06442C6.57352 5.36179 8.40605 4.13814 10.4796 3.58327C12.5532 3.0284 14.752 3.17334 16.7348 3.9956C18.7176 4.81786 20.3737 6.27148 21.446 8.13096C22.5184 9.99045 22.9472 12.1518 22.6658 14.2799C22.3845 16.4079 21.4087 18.3836 19.8899 19.9005C18.3711 21.4174 16.3942 22.3907 14.2658 22.6694C12.1375 22.9481 9.97659 22.5166 8.11845 21.4419L4.3192 22.7094C4.17884 22.7563 4.02834 22.7639 3.88395 22.7315C3.73956 22.6991 3.60677 22.6279 3.4999 22.5255C3.39302 22.4231 3.31614 22.2935 3.27753 22.1507C3.23892 22.0078 3.24006 21.8571 3.28083 21.7149L4.43783 17.667C3.65786 16.2351 3.24944 14.6305 3.24995 13ZM12.9999 4.87501C11.5654 4.87492 10.1563 5.25466 8.91609 5.97563C7.67584 6.69661 6.64859 7.7331 5.93876 8.97976C5.22893 10.2264 4.86183 11.6388 4.87477 13.0733C4.88771 14.5078 5.28024 15.9134 6.01245 17.147C6.06879 17.2423 6.10505 17.3481 6.11902 17.4579C6.133 17.5678 6.12438 17.6793 6.0937 17.7856L5.26658 20.6781L7.96083 19.7811C8.07525 19.743 8.19674 19.7307 8.31648 19.7453C8.43622 19.76 8.5512 19.8011 8.65307 19.8656C9.71789 20.5395 10.9249 20.9565 12.1786 21.0836C13.4323 21.2107 14.6984 21.0444 15.8767 20.598C17.0551 20.1515 18.1135 19.437 18.9683 18.5111C19.823 17.5852 20.4506 16.4731 20.8016 15.2628C21.1525 14.0525 21.2172 12.7772 20.9904 11.5377C20.7636 10.2981 20.2516 9.1283 19.4948 8.1207C18.7381 7.11309 17.7573 6.29532 16.6301 5.73201C15.5029 5.1687 14.2601 4.87531 12.9999 4.87501Z" fill="white"/>
</svg>
