<svg width="10" height="13" viewBox="0 0 10 13" fill="none" xmlns="http://www.w3.org/2000/svg">
<g opacity="0.5">
<path d="M5 12.0693C4.01109 12.0693 3.0444 11.7197 2.22215 11.0648C1.3999 10.4098 0.759043 9.4789 0.380605 8.38974C0.00216642 7.30057 -0.0968502 6.10209 0.0960758 4.94584C0.289002 3.78959 0.765206 2.72751 1.46447 1.8939C2.16373 1.06029 3.05465 0.492598 4.02455 0.262606C4.99445 0.0326136 5.99979 0.150654 6.91342 0.6018C7.82705 1.05295 8.60794 1.81693 9.15735 2.79715C9.70676 3.77737 10 4.9298 10 6.1087C10 7.68956 9.47322 9.20567 8.53553 10.3235C7.59785 11.4413 6.32608 12.0693 5 12.0693ZM5 1.06509C4.16323 1.06509 3.34526 1.3609 2.64951 1.91509C1.95377 2.46929 1.4115 3.257 1.09128 4.1786C0.771064 5.1002 0.687281 6.1143 0.850526 7.09266C1.01377 8.07103 1.41671 8.96971 2.0084 9.67507C2.60008 10.3804 3.35393 10.8608 4.17462 11.0554C4.99531 11.25 5.84597 11.1501 6.61905 10.7684C7.39212 10.3867 8.05287 9.7402 8.51776 8.91078C8.98264 8.08136 9.23077 7.10623 9.23077 6.1087C9.23077 4.77105 8.78503 3.48819 7.99161 2.54233C7.19818 1.59647 6.12207 1.06509 5 1.06509Z" fill="black"/>
<path d="M7.11524 9.08505C7.06462 9.0854 7.01444 9.07384 6.96758 9.05102C6.92072 9.0282 6.8781 8.99458 6.84216 8.95208L4.72678 6.43028C4.69113 6.38744 4.66293 6.33663 4.64379 6.28076C4.62465 6.2249 4.61495 6.16508 4.61524 6.10474V2.43666C4.61524 2.31505 4.65576 2.19843 4.72789 2.11244C4.80002 2.02646 4.89785 1.97815 4.99986 1.97815C5.10186 1.97815 5.19969 2.02646 5.27182 2.11244C5.34395 2.19843 5.38447 2.31505 5.38447 2.43666V5.91675L7.38832 8.301C7.42437 8.34363 7.45298 8.39434 7.47251 8.45021C7.49203 8.50608 7.50209 8.56601 7.50209 8.62654C7.50209 8.68707 7.49203 8.747 7.47251 8.80288C7.45298 8.85875 7.42437 8.90946 7.38832 8.95208C7.35238 8.99458 7.30976 9.0282 7.2629 9.05102C7.21604 9.07384 7.16586 9.0854 7.11524 9.08505Z" fill="black"/>
</g>
</svg>
