<svg width="72" height="76" viewBox="0 0 72 76" fill="none" xmlns="http://www.w3.org/2000/svg">
<g clip-path="url(#clip0_1_3733)">
<path d="M64.7851 60.5707H60.0159V60.6097H64.7851V60.5707Z" fill="#EBEBEB"/>
<path d="M47.6957 60.9844H46.4443V61.0234H47.6957V60.9844Z" fill="#EBEBEB"/>
<path d="M59.872 59.1495H57.1086V59.1885H59.872V59.1495Z" fill="#EBEBEB"/>
<path d="M13.7738 59.4124H7.55444V59.4514H13.7738V59.4124Z" fill="#EBEBEB"/>
<path d="M15.9686 59.4124H15.0571V59.4514H15.9686V59.4124Z" fill="#EBEBEB"/>
<path d="M32.4218 60.045H18.9319V60.084H32.4218V60.045Z" fill="#EBEBEB"/>
<path d="M34.128 51.3403H6.32444C6.10637 51.3403 5.89723 51.2489 5.74303 51.0861C5.58883 50.9234 5.5022 50.7026 5.5022 50.4724V9.21506C5.5041 8.98619 5.59156 8.76738 5.74556 8.60625C5.89955 8.44513 6.10761 8.35473 6.32444 8.35474H34.128C34.346 8.35474 34.5552 8.44618 34.7094 8.60894C34.8636 8.77171 34.9502 8.99247 34.9502 9.22266V50.4724C34.9502 50.7026 34.8636 50.9234 34.7094 51.0861C34.5552 51.2489 34.346 51.3403 34.128 51.3403ZM6.32444 8.38514C6.11603 8.38554 5.91627 8.4731 5.7689 8.62866C5.62154 8.78421 5.53858 8.99507 5.5382 9.21506V50.4724C5.53858 50.6924 5.62154 50.9033 5.7689 51.0588C5.91627 51.2144 6.11603 51.3019 6.32444 51.3023H34.128C34.3364 51.3019 34.5361 51.2144 34.6835 51.0588C34.8309 50.9033 34.9138 50.6924 34.9142 50.4724V9.21506C34.9138 8.99507 34.8309 8.78421 34.6835 8.62866C34.5361 8.4731 34.3364 8.38554 34.128 8.38514H6.32444Z" fill="#EBEBEB"/>
<path d="M65.2763 51.3403H37.4699C37.252 51.3399 37.0431 51.2484 36.889 51.0857C36.7348 50.923 36.6481 50.7025 36.6477 50.4724V9.21506C36.65 8.98631 36.7376 8.76773 36.8915 8.60669C37.0454 8.44565 37.2532 8.35512 37.4699 8.35474H65.2763C65.4927 8.35553 65.7 8.44628 65.8534 8.60732C66.0067 8.76836 66.0938 8.98671 66.0957 9.21506V50.4724C66.0957 50.7021 66.0095 50.9224 65.8559 51.0851C65.7023 51.2477 65.4939 51.3395 65.2763 51.3403ZM37.4699 8.38514C37.2615 8.38554 37.0618 8.4731 36.9144 8.62866C36.767 8.78421 36.6841 8.99507 36.6837 9.21506V50.4724C36.6841 50.6924 36.767 50.9033 36.9144 51.0588C37.0618 51.2144 37.2615 51.3019 37.4699 51.3023H65.2763C65.4848 51.3019 65.6845 51.2144 65.8319 51.0588C65.9792 50.9033 66.0622 50.6924 66.0626 50.4724V9.21506C66.0622 8.99507 65.9792 8.78421 65.8319 8.62866C65.6845 8.4731 65.4848 8.38554 65.2763 8.38514H37.4699Z" fill="#EBEBEB"/>
<path d="M72 58.1129H0V58.1519H72V58.1129Z" fill="#EBEBEB"/>
<path d="M44.8767 15.0804C44.8767 15.0804 49.6287 15.6458 49.1506 14.2322C48.7863 13.1454 48.1095 14.1593 47.7826 14.0422C47.4946 13.9389 47.6083 13.1758 46.8293 13.2625C46.0503 13.3491 46.3368 14.1547 46.0877 14.369C45.8386 14.5833 44.8464 14.0422 44.8767 15.0804Z" fill="#FAFAFA"/>
<path d="M62.4511 45.5943H9.24738C9.14571 45.5945 9.045 45.5735 8.95101 45.5326C8.85703 45.4916 8.77161 45.4315 8.69965 45.3557C8.6277 45.2799 8.57061 45.1899 8.53166 45.0907C8.49271 44.9916 8.47266 44.8853 8.47266 44.778C8.47266 44.5611 8.55428 44.3531 8.69957 44.1998C8.84485 44.0464 9.04191 43.9603 9.24738 43.9603H62.4511C62.6565 43.9603 62.8536 44.0464 62.9989 44.1998C63.1442 44.3531 63.2258 44.5611 63.2258 44.778C63.2258 44.8853 63.2057 44.9916 63.1668 45.0907C63.1278 45.1899 63.0707 45.2799 62.9988 45.3557C62.9268 45.4315 62.8414 45.4916 62.7474 45.5326C62.6534 45.5735 62.5527 45.5945 62.4511 45.5943Z" fill="#E6E6E6"/>
<path d="M12.5428 46.64C12.3974 46.6396 12.2581 46.5785 12.1553 46.47C12.0524 46.3615 11.9945 46.2144 11.9941 46.0609V44.5637H13.0914V46.0609C13.0914 46.2145 13.0336 46.3618 12.9307 46.4704C12.8278 46.579 12.6883 46.64 12.5428 46.64Z" fill="#F0F0F0"/>
<path d="M23.9178 46.64C23.7724 46.6396 23.6331 46.5785 23.5303 46.47C23.4274 46.3615 23.3695 46.2144 23.3691 46.0609V44.5637H24.4664V46.0609C24.466 46.2144 24.4081 46.3615 24.3053 46.47C24.2025 46.5785 24.0632 46.6396 23.9178 46.64Z" fill="#F0F0F0"/>
<path d="M34.7458 44.5637H35.8431V46.0533C35.8431 46.2069 35.7853 46.3542 35.6824 46.4628C35.5795 46.5714 35.44 46.6324 35.2945 46.6324C35.149 46.6324 35.0094 46.5714 34.9065 46.4628C34.8037 46.3542 34.7458 46.2069 34.7458 46.0533V44.5637Z" fill="#F0F0F0"/>
<path d="M46.6707 46.64C46.5252 46.64 46.3857 46.579 46.2828 46.4704C46.1799 46.3618 46.1221 46.2145 46.1221 46.0609V44.5637H47.2179V46.0609C47.2179 46.2142 47.1603 46.3613 47.0577 46.4699C46.9551 46.5784 46.816 46.6396 46.6707 46.64Z" fill="#F0F0F0"/>
<path d="M58.045 46.64C57.8997 46.6396 57.7606 46.5784 57.658 46.4699C57.5554 46.3613 57.4978 46.2142 57.4978 46.0609V44.5637H58.5936V46.0609C58.5936 46.2145 58.5358 46.3618 58.433 46.4704C58.3301 46.579 58.1905 46.64 58.045 46.64Z" fill="#F0F0F0"/>
<path d="M62.4511 45.1416H9.24738C9.14571 45.1418 9.045 45.1209 8.95101 45.0799C8.85703 45.039 8.77161 44.9789 8.69965 44.9031C8.6277 44.8273 8.57061 44.7372 8.53166 44.6381C8.49271 44.539 8.47266 44.4327 8.47266 44.3254C8.47266 44.1085 8.55428 43.9005 8.69957 43.7471C8.84485 43.5938 9.04191 43.5076 9.24738 43.5076H62.4511C62.6565 43.5076 62.8536 43.5938 62.9989 43.7471C63.1442 43.9005 63.2258 44.1085 63.2258 44.3254C63.2258 44.4327 63.2057 44.539 63.1668 44.6381C63.1278 44.7372 63.0707 44.8273 62.9988 44.9031C62.9268 44.9789 62.8414 45.039 62.7474 45.0799C62.6534 45.1209 62.5527 45.1418 62.4511 45.1416Z" fill="#F5F5F5"/>
<path d="M59.7362 16.5018H47.1348V41.831H59.7362V16.5018Z" fill="#F0F0F0"/>
<path d="M47.9989 16.9592H47.5669V41.3765H47.9989V16.9592Z" fill="#E0E0E0"/>
<path d="M59.7362 24.1777V19.6116L47.1348 31.7534V36.321L59.7362 24.1777Z" fill="#FAFAFA"/>
<path d="M47.1348 27.8197L58.8794 16.5018H57.9304L47.1348 26.9047V27.8197Z" fill="#FAFAFA"/>
<path d="M59.7376 33.7644V32.8494L50.4136 41.8341H51.364L59.7376 33.7644Z" fill="#FAFAFA"/>
<path d="M59.7362 27.667V25.992L47.1348 38.1353V39.8103L59.7362 27.667Z" fill="#FAFAFA"/>
<path d="M60.1695 42.2904H46.7041V16.0491H60.1695V42.2904ZM47.5681 41.3784H59.3055V16.9611H47.5681V41.3784Z" fill="#EBEBEB"/>
<path d="M16.416 21.9815H20.0736C20.761 21.9815 21.4203 22.2697 21.9064 22.7828C22.3925 23.2959 22.6656 23.9919 22.6656 24.7175V45.7208C22.6656 46.0611 22.5375 46.3874 22.3096 46.628C22.0817 46.8686 21.7725 47.0037 21.4502 47.0037H15.0451C14.885 47.0045 14.7263 46.9719 14.5782 46.9078C14.4301 46.8437 14.2954 46.7493 14.182 46.6301C14.0685 46.5109 13.9785 46.3692 13.917 46.2132C13.8556 46.0571 13.824 45.8898 13.824 45.7208V24.7129C13.824 23.9873 14.0971 23.2914 14.5832 22.7783C15.0692 22.2652 15.7285 21.9769 16.416 21.9769V21.9815Z" fill="#F0F0F0"/>
<path d="M15.0451 46.9965H21.4473C21.7697 46.9965 22.0788 46.8613 22.3067 46.6208C22.5346 46.3802 22.6627 46.0539 22.6627 45.7136V41.6096C22.6629 41.7595 22.6351 41.9079 22.5809 42.0463C22.5267 42.1848 22.4472 42.3107 22.3469 42.4167C22.2466 42.5227 22.1275 42.6068 21.9963 42.6642C21.8652 42.7216 21.7246 42.7511 21.5827 42.7511H14.9112C14.769 42.7519 14.6281 42.7232 14.4966 42.6664C14.365 42.6097 14.2453 42.5262 14.1443 42.4206C14.0433 42.315 13.963 42.1894 13.9081 42.051C13.8531 41.9127 13.8245 41.7642 13.824 41.6142V45.7182C13.8245 45.8868 13.8566 46.0536 13.9183 46.2091C13.98 46.3646 14.0701 46.5058 14.1835 46.6245C14.2969 46.7432 14.4314 46.8372 14.5792 46.901C14.7271 46.9649 14.8854 46.9973 15.0451 46.9965Z" fill="#E0E0E0"/>
<path d="M22.6633 26.2159H13.8303V27.1932H22.6633V26.2159Z" fill="#E0E0E0"/>
<path d="M13.824 24.7124V25.1896H22.6569V24.7124C22.6563 24.544 22.6409 24.3761 22.6109 24.2108H13.8758C13.8439 24.3759 13.8265 24.5438 13.824 24.7124Z" fill="#E0E0E0"/>
<path d="M18.2459 16.0335C18.0704 16.0338 17.8988 15.9791 17.7527 15.8764C17.6066 15.7737 17.4927 15.6276 17.4254 15.4565C17.358 15.2855 17.3402 15.0971 17.3743 14.9154C17.4084 14.7337 17.4927 14.5667 17.6167 14.4356C17.7407 14.3045 17.8988 14.2152 18.0709 14.1789C18.243 14.1427 18.4214 14.1611 18.5836 14.232C18.7458 14.3028 18.8844 14.4228 18.9819 14.5768C19.0794 14.7308 19.1315 14.9119 19.1315 15.0971C19.1315 15.3452 19.0382 15.5831 18.8722 15.7587C18.7062 15.9342 18.4809 16.0331 18.2459 16.0335ZM18.2459 14.6655C18.1641 14.6655 18.0841 14.6911 18.0161 14.7391C17.9482 14.7871 17.8952 14.8553 17.8639 14.9351C17.8327 15.0149 17.8246 15.1027 17.8407 15.1874C17.8567 15.272 17.8962 15.3498 17.9542 15.4107C18.0121 15.4717 18.0859 15.5131 18.1662 15.5297C18.2464 15.5464 18.3296 15.5376 18.4051 15.5043C18.4805 15.4711 18.545 15.4149 18.5902 15.343C18.6355 15.271 18.6595 15.1865 18.6592 15.1002C18.6596 15.0427 18.6491 14.9857 18.6285 14.9325C18.6079 14.8793 18.5775 14.831 18.5391 14.7903C18.5006 14.7496 18.4549 14.7173 18.4046 14.6954C18.3543 14.6734 18.3004 14.6622 18.2459 14.6624V14.6655Z" fill="#E0E0E0"/>
<path d="M18.2464 24.2069C18.2154 24.2071 18.1846 24.2007 18.1558 24.1883C18.1271 24.1758 18.101 24.1575 18.079 24.1343C18.057 24.1111 18.0396 24.0835 18.0278 24.0532C18.016 24.0229 18.0101 23.9904 18.0103 23.9576V15.7815H18.4826V23.9576C18.4828 23.9904 18.4768 24.0229 18.465 24.0532C18.4532 24.0835 18.4358 24.1111 18.4138 24.1343C18.3919 24.1575 18.3658 24.1758 18.337 24.1883C18.3083 24.2007 18.2775 24.2071 18.2464 24.2069Z" fill="#E0E0E0"/>
<path d="M22.2996 24.1025L18.3267 15.823L18.7486 15.5966L22.7215 23.8775C22.7496 23.9366 22.7542 24.005 22.7345 24.0677C22.7148 24.1304 22.6723 24.1823 22.6164 24.2119C22.5888 24.2268 22.5587 24.2358 22.5278 24.2384C22.4969 24.241 22.4659 24.237 22.4364 24.2269C22.407 24.2167 22.3797 24.2005 22.3562 24.1791C22.3328 24.1578 22.3135 24.1317 22.2996 24.1025Z" fill="#E0E0E0"/>
<path d="M13.8756 24.2104C13.8479 24.1957 13.8232 24.1754 13.803 24.1506C13.7828 24.1259 13.7674 24.0971 13.7577 24.066C13.7481 24.0349 13.7444 24.0021 13.7468 23.9695C13.7492 23.9369 13.7578 23.9051 13.7719 23.876L17.7434 15.5966L18.1653 15.8215L14.1938 24.101C14.1798 24.1303 14.1604 24.1563 14.1368 24.1777C14.1132 24.1991 14.0858 24.2153 14.0562 24.2255C14.0267 24.2356 13.9955 24.2395 13.9645 24.2369C13.9335 24.2344 13.9033 24.2253 13.8756 24.2104Z" fill="#E0E0E0"/>
<path d="M18.247 14.8087C18.1897 14.8087 18.1348 14.7847 18.0943 14.7419C18.0538 14.6992 18.031 14.6412 18.031 14.5807V8.45209H18.463V14.5822C18.4626 14.6425 18.4397 14.7001 18.3992 14.7425C18.3588 14.7849 18.304 14.8087 18.247 14.8087Z" fill="#EBEBEB"/>
<path d="M35.3064 64.402C50.7263 64.402 63.2266 63.6316 63.2266 62.6813C63.2266 61.7311 50.7263 60.9607 35.3064 60.9607C19.8865 60.9607 7.38623 61.7311 7.38623 62.6813C7.38623 63.6316 19.8865 64.402 35.3064 64.402Z" fill="#F5F5F5"/>
<path d="M52.655 60.8231H52.331C52.2707 60.8231 52.211 60.8105 52.1554 60.7862C52.0997 60.7618 52.0492 60.726 52.0067 60.681C51.9641 60.6359 51.9304 60.5825 51.9075 60.5237C51.8846 60.4648 51.8729 60.4018 51.873 60.3382C51.873 60.21 51.9213 60.0871 52.0072 59.9964C52.093 59.9058 52.2095 59.8549 52.331 59.8549H52.655V60.8231Z" fill="#FF7F61"/>
<path d="M60.0983 59.8549H55.0007V60.8231H60.0983V59.8549Z" fill="#FF7F61"/>
<path d="M62.4441 59.8549H62.7667C62.8269 59.8547 62.8866 59.867 62.9423 59.8912C62.9981 59.9154 63.0487 59.951 63.0914 59.9959C63.1341 60.0408 63.1679 60.0942 63.191 60.1529C63.2141 60.2116 63.226 60.2746 63.226 60.3382C63.226 60.4668 63.1776 60.5901 63.0915 60.6811C63.0053 60.772 62.8885 60.8231 62.7667 60.8231H62.4441V59.8549Z" fill="#FF7F61"/>
<path d="M54.2184 58.6187H53.4365V62.0341H54.2184V58.6187Z" fill="#263238"/>
<path d="M53.436 59.1978H52.6541V61.4717H53.436V59.1978Z" fill="#263238"/>
<path d="M55.0002 58.0493H54.2183V62.6077H55.0002V58.0493Z" fill="#263238"/>
<path d="M60.879 62.0449H61.6609V58.6295H60.879V62.0449Z" fill="#263238"/>
<path opacity="0.2" d="M54.2184 58.6187H53.4365V62.0341H54.2184V58.6187Z" fill="white"/>
<path opacity="0.2" d="M60.879 62.0449H61.6609V58.6295H60.879V62.0449Z" fill="white"/>
<path d="M61.6605 61.4658H62.4424V59.1918H61.6605V61.4658Z" fill="#263238"/>
<path opacity="0.4" d="M53.436 59.1978H52.6541V61.4717H53.436V59.1978Z" fill="white"/>
<path opacity="0.4" d="M61.6605 61.4658H62.4424V59.1918H61.6605V61.4658Z" fill="white"/>
<path d="M60.097 62.6143H60.8789V58.0558H60.097V62.6143Z" fill="#263238"/>
<path d="M53.436 56.3116H53.112C52.9905 56.3116 52.8741 56.2606 52.7882 56.17C52.7023 56.0793 52.6541 55.9564 52.6541 55.8282C52.6539 55.7646 52.6656 55.7016 52.6885 55.6428C52.7114 55.5839 52.7451 55.5305 52.7877 55.4854C52.8302 55.4404 52.8808 55.4046 52.9364 55.3803C52.9921 55.3559 53.0517 55.3433 53.112 55.3433H53.436V56.3116Z" fill="#FF7F61"/>
<path d="M60.0983 55.3433H55.0007V56.3116H60.0983V55.3433Z" fill="#FF7F61"/>
<path d="M61.6794 55.3433H62.002C62.1238 55.3433 62.2407 55.3944 62.3268 55.4853C62.413 55.5763 62.4614 55.6996 62.4614 55.8282C62.4614 55.8918 62.4495 55.9548 62.4264 56.0135C62.4033 56.0723 62.3694 56.1256 62.3267 56.1705C62.2841 56.2154 62.2334 56.251 62.1777 56.2752C62.122 56.2994 62.0623 56.3118 62.002 56.3116H61.6794V55.3433Z" fill="#FF7F61"/>
<path d="M54.2184 54.1218H53.4365V57.5372H54.2184V54.1218Z" fill="#263238"/>
<path d="M55.0002 53.5523H54.2183V58.1108H55.0002V53.5523Z" fill="#263238"/>
<path d="M60.879 57.5383H61.6609V54.1228H60.879V57.5383Z" fill="#263238"/>
<path opacity="0.4" d="M54.2184 54.1218H53.4365V57.5372H54.2184V54.1218Z" fill="white"/>
<path opacity="0.4" d="M60.879 57.5383H61.6609V54.1228H60.879V57.5383Z" fill="white"/>
<path d="M60.097 58.1077H60.8789V53.5492H60.097V58.1077Z" fill="#263238"/>
<path opacity="0.2" d="M55.0002 53.5523H54.2183V58.1108H55.0002V53.5523Z" fill="white"/>
<path opacity="0.2" d="M60.097 58.1077H60.8789V53.5492H60.097V58.1077Z" fill="white"/>
<path d="M54.2184 51.8097H53.8944C53.8343 51.8097 53.7748 51.7972 53.7192 51.7729C53.6637 51.7486 53.6132 51.713 53.5706 51.6682C53.5281 51.6233 53.4944 51.57 53.4714 51.5113C53.4484 51.4527 53.4365 51.3898 53.4365 51.3264C53.4363 51.2628 53.448 51.1997 53.471 51.1409C53.4939 51.0821 53.5276 51.0286 53.5701 50.9836C53.6127 50.9386 53.6632 50.9028 53.7189 50.8784C53.7745 50.854 53.8342 50.8415 53.8944 50.8415H54.2184V51.8097Z" fill="#FF7F61"/>
<path d="M60.0983 50.8415H55.0007V51.8097H60.0983V50.8415Z" fill="#FF7F61"/>
<path d="M60.8793 50.8415H61.199C61.3209 50.8415 61.4377 50.8926 61.5238 50.9835C61.61 51.0744 61.6584 51.1978 61.6584 51.3264C61.6584 51.39 61.6465 51.453 61.6234 51.5117C61.6003 51.5704 61.5664 51.6238 61.5238 51.6687C61.4811 51.7136 61.4304 51.7492 61.3747 51.7734C61.319 51.7976 61.2593 51.8099 61.199 51.8097H60.8765L60.8793 50.8415Z" fill="#FF7F61"/>
<path d="M55.0002 49.0505H54.2183V53.609H55.0002V49.0505Z" fill="#263238"/>
<path d="M60.097 53.6107H60.8789V49.0522H60.097V53.6107Z" fill="#263238"/>
<path opacity="0.4" d="M55.0002 49.0505H54.2183V53.609H55.0002V49.0505Z" fill="white"/>
<path opacity="0.4" d="M60.097 53.6107H60.8789V49.0522H60.097V53.6107Z" fill="white"/>
<path d="M46.6141 47.0152C45.5068 47.0152 44.5981 45.7156 44.5981 45.2946C44.5981 44.6866 45.8639 44.5164 46.6141 44.5164C47.3644 44.5164 48.6301 44.6805 48.6301 45.2946C48.6287 45.7156 47.7229 47.0152 46.6141 47.0152ZM44.9898 45.3007C45.01 45.5211 45.7257 46.6048 46.6141 46.6048C47.5026 46.6048 48.2169 45.5211 48.2413 45.3007C48.1924 45.1928 47.6524 44.9313 46.617 44.9313C45.5817 44.9313 45.0388 45.1897 44.9898 45.3007Z" fill="#FF7F61"/>
<g opacity="0.4">
<path d="M46.6146 47.0171C45.5073 47.0171 44.5986 45.7175 44.5986 45.2965C44.5986 44.6885 45.8644 44.5182 46.6146 44.5182C47.3649 44.5182 48.6306 44.6824 48.6306 45.2965C48.6292 45.7175 47.7234 47.0171 46.6146 47.0171ZM44.9903 45.3026C45.0105 45.523 45.7262 46.6067 46.6146 46.6067C47.5031 46.6067 48.2174 45.523 48.2418 45.3026C48.1929 45.1947 47.6529 44.9332 46.6175 44.9332C45.5822 44.9332 45.0393 45.1916 44.9903 45.3026Z" fill="black"/>
</g>
<path d="M46.614 44.4494C46.2004 44.441 45.7874 44.4864 45.3842 44.5846C45.3177 44.6029 45.2607 44.6481 45.2254 44.7103C45.1901 44.7726 45.1794 44.847 45.1956 44.9175C45.2037 44.953 45.2184 44.9865 45.2388 45.016C45.2592 45.0455 45.2849 45.0704 45.3145 45.0893C45.3441 45.1083 45.377 45.1208 45.4112 45.1263C45.4454 45.1318 45.4803 45.13 45.5138 45.1212C45.8746 45.0335 46.2439 44.9917 46.614 44.9966C46.9847 44.9912 47.3546 45.0336 47.7156 45.1227C47.7506 45.1316 47.7869 45.1328 47.8223 45.1263C47.8577 45.1199 47.8915 45.1058 47.9216 45.085C47.9517 45.0642 47.9774 45.0371 47.9972 45.0055C48.017 44.9738 48.0305 44.9382 48.0367 44.9008C48.0486 44.8319 48.0353 44.7608 47.9995 44.7018C47.9637 44.6429 47.9081 44.6005 47.8438 44.5831C47.4406 44.4853 47.0276 44.4404 46.614 44.4494Z" fill="#263238"/>
<path d="M46.0252 49.8086H47.2032C47.6253 49.6609 47.9839 49.3594 48.2146 48.958C48.4454 48.5566 48.5331 48.0816 48.4623 47.6181C48.3914 47.1546 48.1665 46.7329 47.8279 46.4285C47.4892 46.1241 47.059 45.957 46.6142 45.957C46.1694 45.957 45.7392 46.1241 45.4005 46.4285C45.0619 46.7329 44.837 47.1546 44.7661 47.6181C44.6952 48.0816 44.783 48.5566 45.0137 48.958C45.2445 49.3594 45.603 49.6609 46.0252 49.8086Z" fill="#263238"/>
<path opacity="0.9" d="M47.4119 47.5583C47.4119 47.7248 47.3651 47.8876 47.2775 48.0261C47.1898 48.1646 47.0652 48.2725 46.9195 48.3362C46.7737 48.4 46.6133 48.4167 46.4585 48.3842C46.3038 48.3517 46.1616 48.2715 46.0501 48.1537C45.9385 48.0359 45.8625 47.8859 45.8317 47.7225C45.801 47.5592 45.8168 47.3899 45.8771 47.236C45.9375 47.0821 46.0398 46.9506 46.171 46.8581C46.3021 46.7656 46.4564 46.7162 46.6142 46.7162C46.7189 46.7162 46.8227 46.738 46.9195 46.7803C47.0162 46.8226 47.1042 46.8846 47.1783 46.9628C47.2523 47.041 47.3111 47.1338 47.3512 47.236C47.3913 47.3382 47.4119 47.4477 47.4119 47.5583Z" fill="white"/>
<path d="M50.5778 48.9111H48.8814C48.6203 48.9115 48.37 49.0211 48.1854 49.216C48.0008 49.4109 47.8969 49.6751 47.8965 49.9508V62.6914H48.3429V49.9508C48.3433 49.8001 48.4001 49.6557 48.501 49.5492C48.602 49.4427 48.7387 49.3827 48.8814 49.3823H50.5778C50.7205 49.3827 50.8572 49.4427 50.9582 49.5492C51.0591 49.6557 51.1159 49.8001 51.1163 49.9508V62.6914H51.5627V49.9508C51.5623 49.6751 51.4585 49.4109 51.2738 49.216C51.0892 49.0211 50.8389 48.9115 50.5778 48.9111Z" fill="#FF7F61"/>
<path d="M51.6813 49.7385H40.4248V50.2811H51.6813V49.7385Z" fill="#263238"/>
<path opacity="0.5" d="M51.6955 50.1375H40.7832V50.6634H51.6955V50.1375Z" fill="white"/>
<path opacity="0.5" d="M44.3286 49.7385H40.4248V50.2811H44.3286V49.7385Z" fill="black"/>
<path d="M51.6813 58.5668H40.4248V59.1095H51.6813V58.5668Z" fill="#263238"/>
<path opacity="0.5" d="M51.6955 58.6934H40.7832V59.2193H51.6955V58.6934Z" fill="white"/>
<path opacity="0.5" d="M44.3286 58.5668H40.4248V59.1095H44.3286V58.5668Z" fill="black"/>
<path d="M43.226 48.9111H41.5296C41.2685 48.9115 41.0182 49.0211 40.8336 49.216C40.649 49.4109 40.5451 49.6751 40.5447 49.9508V62.6914H40.9911V49.9508C40.9915 49.8001 41.0483 49.6557 41.1492 49.5492C41.2502 49.4427 41.3869 49.3827 41.5296 49.3823H43.226C43.3687 49.3827 43.5054 49.4427 43.6064 49.5492C43.7073 49.6557 43.7641 49.8001 43.7645 49.9508V62.6914H44.2095V49.9508C44.2091 49.6754 44.1054 49.4114 43.9211 49.2166C43.7368 49.0217 43.4868 48.9119 43.226 48.9111Z" fill="#FF7F61"/>
<path d="M46.6137 55.2721C45.2889 55.2721 44.2061 53.7172 44.2061 53.2141C44.2061 52.4799 45.7195 52.2838 46.6137 52.2838C47.508 52.2838 49.0229 52.4799 49.0229 53.2141C49.0229 53.7172 47.9385 55.2721 46.6137 55.2721ZM44.6726 53.2186C44.6957 53.4831 45.551 54.7797 46.6137 54.7797C47.6765 54.7797 48.5304 53.4861 48.5563 53.2186C48.4973 53.0894 47.8521 52.7763 46.6137 52.7763C45.3753 52.7763 44.7302 53.0894 44.6726 53.2186Z" fill="#FF7F61"/>
<g opacity="0.4">
<path d="M46.6135 55.2732C45.2887 55.2732 44.2058 53.7182 44.2058 53.2151C44.2058 52.4809 45.7193 52.2849 46.6135 52.2849C47.5077 52.2849 49.0226 52.4809 49.0226 53.2151C49.0226 53.7182 47.9383 55.2732 46.6135 55.2732ZM44.6724 53.2197C44.6954 53.4841 45.5508 54.7807 46.6135 54.7807C47.6762 54.7807 48.5301 53.4872 48.556 53.2197C48.497 53.0905 47.8519 52.7773 46.6135 52.7773C45.3751 52.7773 44.73 53.0905 44.6724 53.2197Z" fill="black"/>
</g>
<path d="M46.6143 52.1926C46.1198 52.1829 45.6261 52.237 45.144 52.3537C45.0643 52.3759 44.996 52.4302 44.9538 52.5049C44.9115 52.5796 44.8986 52.6688 44.9179 52.7534C44.9274 52.796 44.9448 52.8362 44.9691 52.8716C44.9934 52.9071 45.0241 52.937 45.0595 52.9598C45.0949 52.9826 45.1342 52.9977 45.1751 53.0043C45.2161 53.0109 45.2579 53.0088 45.2981 52.9982C45.7295 52.8922 46.1714 52.8412 46.6143 52.8462C47.0577 52.8403 47.5001 52.8913 47.9319 52.9982C47.9736 53.0088 48.017 53.0104 48.0594 53.0027C48.1017 52.995 48.1422 52.9783 48.1782 52.9535C48.2142 52.9287 48.245 52.8965 48.2688 52.8587C48.2925 52.8209 48.3087 52.7783 48.3163 52.7337C48.3301 52.651 48.314 52.5658 48.271 52.4951C48.228 52.4245 48.1615 52.3734 48.0845 52.3522C47.6024 52.236 47.1087 52.1824 46.6143 52.1926Z" fill="#263238"/>
<path d="M45.9096 58.6046H47.318C47.8218 58.428 48.2497 58.0679 48.5249 57.5887C48.8001 57.1094 48.9048 56.5424 48.82 55.9892C48.7353 55.436 48.4668 54.9327 48.0625 54.5694C47.6583 54.2062 47.1447 54.0067 46.6138 54.0067C46.0829 54.0067 45.5693 54.2062 45.1651 54.5694C44.7608 54.9327 44.4923 55.436 44.4076 55.9892C44.3228 56.5424 44.4274 57.1094 44.7027 57.5887C44.9779 58.0679 45.4058 58.428 45.9096 58.6046Z" fill="#263238"/>
<path opacity="0.9" d="M47.5691 55.9147C47.5691 56.1141 47.5131 56.3089 47.4082 56.4746C47.3033 56.6404 47.1542 56.7695 46.9797 56.8458C46.8053 56.9221 46.6133 56.942 46.4281 56.9031C46.2429 56.8643 46.0728 56.7683 45.9393 56.6273C45.8058 56.4864 45.7149 56.3068 45.678 56.1113C45.6412 55.9159 45.6601 55.7132 45.7323 55.5291C45.8046 55.3449 45.927 55.1876 46.084 55.0768C46.241 54.9661 46.4256 54.907 46.6144 54.907C46.8676 54.907 47.1104 55.0132 47.2895 55.2022C47.4685 55.3911 47.5691 55.6475 47.5691 55.9147Z" fill="white"/>
<path d="M23.6456 62.6066H21.68C21.4591 62.6063 21.2405 62.5593 21.0371 62.4686C20.8337 62.3778 20.6495 62.2451 20.4954 62.0781C20.3412 61.9112 20.2202 61.7134 20.1395 61.4964C20.0588 61.2794 20.02 61.0476 20.0254 60.8145L20.2169 52.9956C20.2256 52.5394 20.404 52.105 20.7136 51.7865C21.0232 51.4679 21.4391 51.2908 21.8715 51.2932H22.3683C22.7581 51.2922 23.1357 51.4368 23.4343 51.7013C23.7329 51.9658 23.9332 52.3333 23.9998 52.7388L25.2771 60.5576C25.318 60.8085 25.3065 61.0659 25.2433 61.3116C25.1802 61.5573 25.067 61.7855 24.9116 61.9802C24.7562 62.1749 24.5624 62.3315 24.3437 62.4389C24.125 62.5463 23.8867 62.602 23.6456 62.602V62.6066ZM21.8715 51.7644C21.5555 51.7624 21.2515 51.8917 21.0252 52.1243C20.7988 52.357 20.6683 52.6744 20.6619 53.0078L20.4704 60.8267C20.4663 60.997 20.4946 61.1665 20.5536 61.3251C20.6126 61.4837 20.701 61.6283 20.8138 61.7502C20.9265 61.8722 21.0612 61.9691 21.21 62.0352C21.3587 62.1014 21.5185 62.1355 21.68 62.1354H23.6456C23.8217 62.1354 23.9958 62.0948 24.1555 62.0164C24.3153 61.9381 24.4569 61.8238 24.5704 61.6816C24.684 61.5395 24.7668 61.3729 24.813 61.1934C24.8591 61.014 24.8677 60.826 24.8379 60.6428L23.5606 52.8239C23.5135 52.5262 23.3678 52.2558 23.1494 52.0609C22.9311 51.866 22.6542 51.7594 22.3683 51.7599L21.8715 51.7644Z" fill="black"/>
<path d="M24.3725 54.9628H7.729V55.5054H24.3725V54.9628Z" fill="#263238"/>
<path opacity="0.5" d="M24.3725 54.9628H7.729V55.5054H24.3725V54.9628Z" fill="white"/>
<path opacity="0.5" d="M11.6328 54.9628H7.729V55.5054H11.6328V54.9628Z" fill="black"/>
<path d="M25.2264 60.6764H7.729V61.219H25.2264V60.6764Z" fill="#263238"/>
<path opacity="0.5" d="M25.2264 60.6764H7.729V61.219H25.2264V60.6764Z" fill="white"/>
<path opacity="0.5" d="M12.4378 60.6764H7.729V61.219H12.4378V60.6764Z" fill="black"/>
<path d="M19.9403 53.4185L19.5313 52.6691C19.4839 52.5824 19.4157 52.5103 19.3335 52.4602C19.2514 52.41 19.1582 52.3835 19.0633 52.3834H17.4232C17.328 52.3833 17.2345 52.4096 17.1521 52.4598C17.0697 52.51 17.0013 52.5822 16.9537 52.6691L16.5448 53.4185C16.4974 53.5051 16.4724 53.6034 16.4724 53.7035C16.4724 53.8035 16.4974 53.9018 16.5448 53.9885L16.9537 54.7378C17.0013 54.8248 17.0697 54.897 17.1521 54.9472C17.2345 54.9973 17.328 55.0237 17.4232 55.0236H19.0576C19.1524 55.0234 19.2456 54.9969 19.3278 54.9468C19.4099 54.8966 19.4781 54.8246 19.5256 54.7378L19.9345 53.9885C19.9828 53.9024 20.0087 53.8044 20.0097 53.7043C20.0108 53.6042 19.9868 53.5057 19.9403 53.4185Z" fill="#FF7F61"/>
<path opacity="0.1" d="M19.9403 53.4185L19.5313 52.6691C19.4839 52.5824 19.4157 52.5103 19.3335 52.4602C19.2514 52.41 19.1582 52.3835 19.0633 52.3834H17.4232C17.328 52.3833 17.2345 52.4096 17.1521 52.4598C17.0697 52.51 17.0013 52.5822 16.9537 52.6691L16.5448 53.4185C16.4974 53.5051 16.4724 53.6034 16.4724 53.7035C16.4724 53.8035 16.4974 53.9018 16.5448 53.9885L16.9537 54.7378C17.0013 54.8248 17.0697 54.897 17.1521 54.9472C17.2345 54.9973 17.328 55.0237 17.4232 55.0236H19.0576C19.1524 55.0234 19.2456 54.9969 19.3278 54.9468C19.4099 54.8966 19.4781 54.8246 19.5256 54.7378L19.9345 53.9885C19.9828 53.9024 20.0087 53.8044 20.0097 53.7043C20.0108 53.6042 19.9868 53.5057 19.9403 53.4185Z" fill="black"/>
<path opacity="0.2" d="M19.064 52.3834H18.2446C18.1497 52.3835 18.0566 52.41 17.9744 52.4602C17.8923 52.5103 17.8241 52.5824 17.7766 52.6691L17.3677 53.4185C17.3196 53.5049 17.2942 53.6033 17.2942 53.7035C17.2942 53.8037 17.3196 53.9021 17.3677 53.9885L17.7766 54.7378C17.8241 54.8246 17.8923 54.8966 17.9744 54.9468C18.0566 54.9969 18.1497 55.0234 18.2446 55.0236H19.064C19.1589 55.0234 19.2521 54.9969 19.3342 54.9468C19.4163 54.8966 19.4845 54.8246 19.532 54.7378L19.9409 53.9885C19.9883 53.9018 20.0133 53.8035 20.0133 53.7035C20.0133 53.6034 19.9883 53.5051 19.9409 53.4185L19.532 52.6691C19.4845 52.5824 19.4163 52.5103 19.3342 52.4602C19.2521 52.41 19.1589 52.3835 19.064 52.3834Z" fill="black"/>
<path d="M22.2106 53.701C22.2106 54.0567 21.4099 54.3455 20.4235 54.3455C19.4371 54.3455 18.6365 54.0567 18.6365 53.701C18.6365 53.3453 19.4371 53.055 20.4235 53.055C21.4099 53.055 22.2106 53.3484 22.2106 53.701Z" fill="#FF7F61"/>
<path opacity="0.1" d="M22.2106 53.701C22.2106 54.0567 21.4099 54.3455 20.4235 54.3455C19.4371 54.3455 18.6365 54.0567 18.6365 53.701C18.6365 53.3453 19.4371 53.055 20.4235 53.055C21.4099 53.055 22.2106 53.3484 22.2106 53.701Z" fill="black"/>
<path d="M24.4875 53.4185L24.0785 52.6691C24.0311 52.5824 23.9629 52.5103 23.8807 52.4602C23.7986 52.41 23.7054 52.3835 23.6105 52.3834H21.9747C21.8798 52.3835 21.7866 52.41 21.7045 52.4602C21.6224 52.5103 21.5541 52.5824 21.5067 52.6691L21.0977 53.4185C21.0503 53.5051 21.0254 53.6034 21.0254 53.7035C21.0254 53.8035 21.0503 53.9018 21.0977 53.9885L21.5067 54.7378C21.5541 54.8246 21.6224 54.8966 21.7045 54.9468C21.7866 54.9969 21.8798 55.0234 21.9747 55.0236H23.6149C23.7097 55.0234 23.8029 54.9969 23.8851 54.9468C23.9672 54.8966 24.0354 54.8246 24.0829 54.7378L24.4918 53.9885C24.5386 53.9014 24.5628 53.8029 24.562 53.7029C24.5612 53.6028 24.5356 53.5047 24.4875 53.4185Z" fill="#FF7F61"/>
<path opacity="0.1" d="M24.4875 53.4185L24.0785 52.6691C24.0311 52.5824 23.9629 52.5103 23.8807 52.4602C23.7986 52.41 23.7054 52.3835 23.6105 52.3834H21.9747C21.8798 52.3835 21.7866 52.41 21.7045 52.4602C21.6224 52.5103 21.5541 52.5824 21.5067 52.6691L21.0977 53.4185C21.0503 53.5051 21.0254 53.6034 21.0254 53.7035C21.0254 53.8035 21.0503 53.9018 21.0977 53.9885L21.5067 54.7378C21.5541 54.8246 21.6224 54.8966 21.7045 54.9468C21.7866 54.9969 21.8798 55.0234 21.9747 55.0236H23.6149C23.7097 55.0234 23.8029 54.9969 23.8851 54.9468C23.9672 54.8966 24.0354 54.8246 24.0829 54.7378L24.4918 53.9885C24.5386 53.9014 24.5628 53.8029 24.562 53.7029C24.5612 53.6028 24.5356 53.5047 24.4875 53.4185Z" fill="black"/>
<path d="M23.6151 52.3834H22.7957C22.7008 52.3835 22.6076 52.41 22.5255 52.4602C22.4434 52.5103 22.3752 52.5824 22.3277 52.6691L21.9173 53.4185C21.8699 53.5051 21.845 53.6034 21.845 53.7035C21.845 53.8035 21.8699 53.9018 21.9173 53.9885L22.3277 54.7378C22.3752 54.8246 22.4434 54.8966 22.5255 54.9468C22.6076 54.9969 22.7008 55.0234 22.7957 55.0236H23.6151C23.71 55.0234 23.8031 54.9969 23.8853 54.9468C23.9674 54.8966 24.0356 54.8246 24.0831 54.7378L24.492 53.9885C24.5394 53.9018 24.5644 53.8035 24.5644 53.7035C24.5644 53.6034 24.5394 53.5051 24.492 53.4185L24.0831 52.6691C24.0356 52.5824 23.9674 52.5103 23.8853 52.4602C23.8031 52.41 23.71 52.3835 23.6151 52.3834Z" fill="#FF7F61"/>
<path d="M14.6136 53.7359L14.2853 53.137C14.2474 53.0676 14.1928 53.01 14.127 52.97C14.0613 52.93 13.9868 52.9089 13.9109 52.909H12.6034C12.5272 52.9087 12.4524 52.9296 12.3864 52.9696C12.3204 53.0097 12.2656 53.0674 12.2275 53.137L11.9007 53.7359C11.8627 53.8052 11.8428 53.8838 11.8428 53.9639C11.8428 54.0439 11.8627 54.1226 11.9007 54.1919L12.2275 54.7908C12.2654 54.8606 12.3201 54.9187 12.3861 54.959C12.4522 54.9993 12.5271 55.0204 12.6034 55.0203H13.9109C13.9869 55.0202 14.0616 54.9989 14.1273 54.9586C14.193 54.9183 14.2475 54.8604 14.2853 54.7908L14.6136 54.1919C14.6515 54.1226 14.6715 54.0439 14.6715 53.9639C14.6715 53.8838 14.6515 53.8052 14.6136 53.7359Z" fill="#FF7F61"/>
<path opacity="0.1" d="M14.6136 53.7359L14.2853 53.137C14.2474 53.0676 14.1928 53.01 14.127 52.97C14.0613 52.93 13.9868 52.9089 13.9109 52.909H12.6034C12.5272 52.9087 12.4524 52.9296 12.3864 52.9696C12.3204 53.0097 12.2656 53.0674 12.2275 53.137L11.9007 53.7359C11.8627 53.8052 11.8428 53.8838 11.8428 53.9639C11.8428 54.0439 11.8627 54.1226 11.9007 54.1919L12.2275 54.7908C12.2654 54.8606 12.3201 54.9187 12.3861 54.959C12.4522 54.9993 12.5271 55.0204 12.6034 55.0203H13.9109C13.9869 55.0202 14.0616 54.9989 14.1273 54.9586C14.193 54.9183 14.2475 54.8604 14.2853 54.7908L14.6136 54.1919C14.6515 54.1226 14.6715 54.0439 14.6715 53.9639C14.6715 53.8838 14.6515 53.8052 14.6136 53.7359Z" fill="black"/>
<path opacity="0.2" d="M13.9116 52.909H13.2564C13.1806 52.9089 13.106 52.93 13.0403 52.97C12.9746 53.01 12.92 53.0676 12.882 53.137L12.5537 53.7359C12.5158 53.8052 12.4958 53.8838 12.4958 53.9639C12.4958 54.0439 12.5158 54.1226 12.5537 54.1919L12.882 54.7908C12.9198 54.8604 12.9743 54.9183 13.04 54.9586C13.1058 54.9989 13.1804 55.0202 13.2564 55.0203H13.9116C13.9877 55.0202 14.0623 54.9989 14.1281 54.9586C14.1938 54.9183 14.2483 54.8604 14.286 54.7908L14.6144 54.1919C14.6523 54.1226 14.6722 54.0439 14.6722 53.9639C14.6722 53.8838 14.6523 53.8052 14.6144 53.7359L14.286 53.137C14.2481 53.0676 14.1935 53.01 14.1278 52.97C14.0621 52.93 13.9875 52.9089 13.9116 52.909Z" fill="black"/>
<path d="M14.9995 54.4731C15.7892 54.4731 16.4294 54.2417 16.4294 53.9563C16.4294 53.6708 15.7892 53.4395 14.9995 53.4395C14.2098 53.4395 13.5696 53.6708 13.5696 53.9563C13.5696 54.2417 14.2098 54.4731 14.9995 54.4731Z" fill="#FF7F61"/>
<path opacity="0.1" d="M14.9995 54.4731C15.7892 54.4731 16.4294 54.2417 16.4294 53.9563C16.4294 53.6708 15.7892 53.4395 14.9995 53.4395C14.2098 53.4395 13.5696 53.6708 13.5696 53.9563C13.5696 54.2417 14.2098 54.4731 14.9995 54.4731Z" fill="black"/>
<path d="M18.2513 53.7359L17.923 53.137C17.885 53.0676 17.8305 53.01 17.7647 52.97C17.699 52.93 17.6245 52.9089 17.5486 52.909H16.2411C16.1652 52.9089 16.0906 52.93 16.0249 52.97C15.9592 53.01 15.9046 53.0676 15.8667 53.137L15.5383 53.7359C15.5004 53.8052 15.4805 53.8838 15.4805 53.9639C15.4805 54.0439 15.5004 54.1226 15.5383 54.1919L15.8667 54.7908C15.9044 54.8604 15.9589 54.9183 16.0247 54.9586C16.0904 54.9989 16.165 55.0202 16.2411 55.0203H17.5486C17.6246 55.0202 17.6993 54.9989 17.765 54.9586C17.8307 54.9183 17.8852 54.8604 17.923 54.7908L18.2513 54.1919C18.2892 54.1226 18.3092 54.0439 18.3092 53.9639C18.3092 53.8838 18.2892 53.8052 18.2513 53.7359Z" fill="#FF7F61"/>
<path opacity="0.1" d="M18.2513 53.7359L17.923 53.137C17.885 53.0676 17.8305 53.01 17.7647 52.97C17.699 52.93 17.6245 52.9089 17.5486 52.909H16.2411C16.1652 52.9089 16.0906 52.93 16.0249 52.97C15.9592 53.01 15.9046 53.0676 15.8667 53.137L15.5383 53.7359C15.5004 53.8052 15.4805 53.8838 15.4805 53.9639C15.4805 54.0439 15.5004 54.1226 15.5383 54.1919L15.8667 54.7908C15.9044 54.8604 15.9589 54.9183 16.0247 54.9586C16.0904 54.9989 16.165 55.0202 16.2411 55.0203H17.5486C17.6246 55.0202 17.6993 54.9989 17.765 54.9586C17.8307 54.9183 17.8852 54.8604 17.923 54.7908L18.2513 54.1919C18.2892 54.1226 18.3092 54.0439 18.3092 53.9639C18.3092 53.8838 18.2892 53.8052 18.2513 53.7359Z" fill="black"/>
<path d="M17.5491 52.909H16.8939C16.818 52.9089 16.7435 52.93 16.6778 52.97C16.612 53.01 16.5575 53.0676 16.5195 53.137L16.1926 53.7359C16.1547 53.8052 16.1348 53.8838 16.1348 53.9639C16.1348 54.0439 16.1547 54.1226 16.1926 54.1919L16.5195 54.7908C16.5573 54.8604 16.6118 54.9183 16.6775 54.9586C16.7433 54.9989 16.8179 55.0202 16.8939 55.0203H17.5491C17.6251 55.0202 17.6998 54.9989 17.7655 54.9586C17.8313 54.9183 17.8858 54.8604 17.9235 54.7908L18.2518 54.1919C18.2898 54.1226 18.3097 54.0439 18.3097 53.9639C18.3097 53.8838 18.2898 53.8052 18.2518 53.7359L17.9235 53.137C17.8856 53.0676 17.831 53.01 17.7653 52.97C17.6996 52.93 17.625 52.9089 17.5491 52.909Z" fill="#FF7F61"/>
<path d="M10.6263 54L10.3671 53.5212C10.337 53.4653 10.2935 53.4189 10.2408 53.3865C10.1882 53.3542 10.1284 53.3372 10.0676 53.3373H9.01923C8.95817 53.3373 8.8982 53.3543 8.84535 53.3866C8.79251 53.4189 8.74868 53.4653 8.71827 53.5212L8.45619 54C8.42572 54.0554 8.40967 54.1183 8.40967 54.1824C8.40967 54.2465 8.42572 54.3094 8.45619 54.3648L8.71827 54.8436C8.74868 54.8995 8.79251 54.9459 8.84535 54.9782C8.8982 55.0105 8.95817 55.0275 9.01923 55.0275H10.0647C10.126 55.0281 10.1864 55.0114 10.2396 54.979C10.2928 54.9467 10.3368 54.8999 10.3671 54.8436L10.6292 54.3648C10.6592 54.3091 10.6747 54.2461 10.6742 54.182C10.6737 54.1179 10.6572 54.0551 10.6263 54Z" fill="#FF7F61"/>
<path opacity="0.1" d="M10.6263 54L10.3671 53.5212C10.337 53.4653 10.2935 53.4189 10.2408 53.3865C10.1882 53.3542 10.1284 53.3372 10.0676 53.3373H9.01923C8.95817 53.3373 8.8982 53.3543 8.84535 53.3866C8.79251 53.4189 8.74868 53.4653 8.71827 53.5212L8.45619 54C8.42572 54.0554 8.40967 54.1183 8.40967 54.1824C8.40967 54.2465 8.42572 54.3094 8.45619 54.3648L8.71827 54.8436C8.74868 54.8995 8.79251 54.9459 8.84535 54.9782C8.8982 55.0105 8.95817 55.0275 9.01923 55.0275H10.0647C10.126 55.0281 10.1864 55.0114 10.2396 54.979C10.2928 54.9467 10.3368 54.8999 10.3671 54.8436L10.6292 54.3648C10.6592 54.3091 10.6747 54.2461 10.6742 54.182C10.6737 54.1179 10.6572 54.0551 10.6263 54Z" fill="black"/>
<path opacity="0.2" d="M10.0647 53.3373H9.5405C9.47962 53.3373 9.41983 53.3543 9.36721 53.3866C9.31459 53.4189 9.27103 53.4653 9.24098 53.5212L8.9789 54C8.94842 54.0554 8.93237 54.1183 8.93237 54.1824C8.93237 54.2465 8.94842 54.3094 8.9789 54.3648L9.24098 54.8436C9.27103 54.8995 9.31459 54.946 9.36721 54.9783C9.41983 55.0106 9.47962 55.0276 9.5405 55.0275H10.0647C10.126 55.0281 10.1864 55.0114 10.2396 54.979C10.2928 54.9467 10.3368 54.8999 10.3671 54.8436L10.6291 54.3648C10.6596 54.3094 10.6757 54.2465 10.6757 54.1824C10.6757 54.1183 10.6596 54.0554 10.6291 54L10.3671 53.5212C10.3368 53.4649 10.2928 53.4181 10.2396 53.3858C10.1864 53.3535 10.126 53.3367 10.0647 53.3373Z" fill="black"/>
<path d="M12.0797 54.1741C12.0797 54.4021 11.567 54.5876 10.9363 54.5876C10.3056 54.5876 9.7915 54.4021 9.7915 54.1741C9.7915 53.9461 10.3027 53.7607 10.9349 53.7607C11.567 53.7607 12.0797 53.9461 12.0797 54.1741Z" fill="#FF7F61"/>
<path opacity="0.1" d="M12.0797 54.1741C12.0797 54.4021 11.567 54.5876 10.9363 54.5876C10.3056 54.5876 9.7915 54.4021 9.7915 54.1741C9.7915 53.9461 10.3027 53.7607 10.9349 53.7607C11.567 53.7607 12.0797 53.9461 12.0797 54.1741Z" fill="black"/>
<path d="M13.5347 54L13.2727 53.5212C13.2426 53.4653 13.1991 53.4189 13.1464 53.3865C13.0938 53.3542 13.034 53.3372 12.9731 53.3373H11.9291C11.8681 53.3373 11.8081 53.3543 11.7553 53.3866C11.7024 53.4189 11.6586 53.4653 11.6282 53.5212L11.3661 54C11.3356 54.0554 11.3196 54.1183 11.3196 54.1824C11.3196 54.2465 11.3356 54.3094 11.3661 54.3648L11.6282 54.8436C11.6586 54.8995 11.7024 54.9459 11.7553 54.9782C11.8081 55.0105 11.8681 55.0275 11.9291 55.0275H12.9746C13.0355 55.0276 13.0953 55.0106 13.1479 54.9783C13.2005 54.9459 13.2441 54.8995 13.2741 54.8436L13.5347 54.3648C13.5652 54.3094 13.5813 54.2465 13.5813 54.1824C13.5813 54.1183 13.5652 54.0554 13.5347 54Z" fill="#FF7F61"/>
<path opacity="0.1" d="M13.5347 54L13.2727 53.5212C13.2426 53.4653 13.1991 53.4189 13.1464 53.3865C13.0938 53.3542 13.034 53.3372 12.9731 53.3373H11.9291C11.8681 53.3373 11.8081 53.3543 11.7553 53.3866C11.7024 53.4189 11.6586 53.4653 11.6282 53.5212L11.3661 54C11.3356 54.0554 11.3196 54.1183 11.3196 54.1824C11.3196 54.2465 11.3356 54.3094 11.3661 54.3648L11.6282 54.8436C11.6586 54.8995 11.7024 54.9459 11.7553 54.9782C11.8081 55.0105 11.8681 55.0275 11.9291 55.0275H12.9746C13.0355 55.0276 13.0953 55.0106 13.1479 54.9783C13.2005 54.9459 13.2441 54.8995 13.2741 54.8436L13.5347 54.3648C13.5652 54.3094 13.5813 54.2465 13.5813 54.1824C13.5813 54.1183 13.5652 54.0554 13.5347 54Z" fill="black"/>
<path d="M12.9751 53.3373H12.4509C12.39 53.3372 12.3302 53.3542 12.2776 53.3865C12.225 53.4189 12.1814 53.4653 12.1514 53.5212L11.8893 54C11.8588 54.0554 11.8428 54.1183 11.8428 54.1824C11.8428 54.2465 11.8588 54.3094 11.8893 54.3648L12.1514 54.8436C12.1814 54.8995 12.225 54.9459 12.2776 54.9783C12.3302 55.0106 12.39 55.0276 12.4509 55.0275H12.9751C13.0359 55.0276 13.0957 55.0106 13.1483 54.9783C13.201 54.9459 13.2445 54.8995 13.2746 54.8436L13.5352 54.3648C13.5657 54.3094 13.5817 54.2465 13.5817 54.1824C13.5817 54.1183 13.5657 54.0554 13.5352 54L13.2731 53.5212C13.2432 53.4655 13.1999 53.4192 13.1475 53.3869C13.0952 53.3546 13.0357 53.3375 12.9751 53.3373Z" fill="#FF7F61"/>
<path d="M19.9402 59.1355L19.5313 58.3861C19.4838 58.2995 19.4155 58.2277 19.3334 58.1778C19.2512 58.1279 19.1581 58.1017 19.0633 58.1019H17.4231C17.3281 58.1015 17.2347 58.1275 17.1522 58.1774C17.0698 58.2273 17.0013 58.2993 16.9537 58.3861L16.5447 59.1355C16.4973 59.2224 16.4724 59.3209 16.4724 59.4212C16.4724 59.5215 16.4973 59.6201 16.5447 59.707L16.9537 60.4548C17.0013 60.5418 17.0697 60.614 17.1521 60.6642C17.2345 60.7143 17.328 60.7407 17.4231 60.7406H19.0575C19.1524 60.7404 19.2456 60.7139 19.3277 60.6638C19.4099 60.6136 19.4781 60.5416 19.5255 60.4548L19.9345 59.707C19.9827 59.6206 20.0087 59.5223 20.0097 59.422C20.0107 59.3218 19.9868 59.2229 19.9402 59.1355Z" fill="#FF7F61"/>
<path opacity="0.1" d="M19.9402 59.1355L19.5313 58.3861C19.4838 58.2995 19.4155 58.2277 19.3334 58.1778C19.2512 58.1279 19.1581 58.1017 19.0633 58.1019H17.4231C17.3281 58.1015 17.2347 58.1275 17.1522 58.1774C17.0698 58.2273 17.0013 58.2993 16.9537 58.3861L16.5447 59.1355C16.4973 59.2224 16.4724 59.3209 16.4724 59.4212C16.4724 59.5215 16.4973 59.6201 16.5447 59.707L16.9537 60.4548C17.0013 60.5418 17.0697 60.614 17.1521 60.6642C17.2345 60.7143 17.328 60.7407 17.4231 60.7406H19.0575C19.1524 60.7404 19.2456 60.7139 19.3277 60.6638C19.4099 60.6136 19.4781 60.5416 19.5255 60.4548L19.9345 59.707C19.9827 59.6206 20.0087 59.5223 20.0097 59.422C20.0107 59.3218 19.9868 59.2229 19.9402 59.1355Z" fill="black"/>
<path opacity="0.2" d="M19.064 58.1019H18.2446C18.1498 58.1017 18.0567 58.1279 17.9745 58.1778C17.8924 58.2277 17.8241 58.2995 17.7766 58.3861L17.3676 59.1355C17.3195 59.2221 17.2942 59.3208 17.2942 59.4212C17.2942 59.5217 17.3195 59.6203 17.3676 59.707L17.7766 60.4548C17.824 60.5416 17.8922 60.6136 17.9744 60.6638C18.0565 60.7139 18.1497 60.7404 18.2446 60.7406H19.064C19.1588 60.7404 19.252 60.7139 19.3342 60.6638C19.4163 60.6136 19.4845 60.5416 19.532 60.4548L19.9409 59.707C19.9883 59.6201 20.0132 59.5215 20.0132 59.4212C20.0132 59.3209 19.9883 59.2224 19.9409 59.1355L19.532 58.3861C19.4844 58.2995 19.4162 58.2277 19.334 58.1778C19.2519 58.1279 19.1587 58.1017 19.064 58.1019Z" fill="black"/>
<path d="M20.4235 60.0655C21.4105 60.0655 22.2106 59.7763 22.2106 59.4195C22.2106 59.0627 21.4105 58.7735 20.4235 58.7735C19.4366 58.7735 18.6365 59.0627 18.6365 59.4195C18.6365 59.7763 19.4366 60.0655 20.4235 60.0655Z" fill="#FF7F61"/>
<path opacity="0.1" d="M20.4235 60.0655C21.4105 60.0655 22.2106 59.7763 22.2106 59.4195C22.2106 59.0627 21.4105 58.7735 20.4235 58.7735C19.4366 58.7735 18.6365 59.0627 18.6365 59.4195C18.6365 59.7763 19.4366 60.0655 20.4235 60.0655Z" fill="black"/>
<path d="M24.4875 59.1355L24.0785 58.3861C24.031 58.2995 23.9627 58.2277 23.8806 58.1778C23.7984 58.1279 23.7053 58.1017 23.6105 58.1019H21.9747C21.8799 58.1017 21.7867 58.1279 21.7046 58.1778C21.6224 58.2277 21.5542 58.2995 21.5067 58.3861L21.0977 59.1355C21.0503 59.2224 21.0254 59.3209 21.0254 59.4212C21.0254 59.5215 21.0503 59.6201 21.0977 59.707L21.5067 60.4548C21.5541 60.5416 21.6223 60.6136 21.7045 60.6638C21.7866 60.7139 21.8798 60.7404 21.9747 60.7406H23.6148C23.7097 60.7404 23.8029 60.7139 23.885 60.6638C23.9672 60.6136 24.0354 60.5416 24.0828 60.4548L24.4918 59.707C24.5385 59.6197 24.5627 59.5209 24.5619 59.4206C24.5612 59.3203 24.5355 59.222 24.4875 59.1355Z" fill="#FF7F61"/>
<path opacity="0.1" d="M24.4875 59.1355L24.0785 58.3861C24.031 58.2995 23.9627 58.2277 23.8806 58.1778C23.7984 58.1279 23.7053 58.1017 23.6105 58.1019H21.9747C21.8799 58.1017 21.7867 58.1279 21.7046 58.1778C21.6224 58.2277 21.5542 58.2995 21.5067 58.3861L21.0977 59.1355C21.0503 59.2224 21.0254 59.3209 21.0254 59.4212C21.0254 59.5215 21.0503 59.6201 21.0977 59.707L21.5067 60.4548C21.5541 60.5416 21.6223 60.6136 21.7045 60.6638C21.7866 60.7139 21.8798 60.7404 21.9747 60.7406H23.6148C23.7097 60.7404 23.8029 60.7139 23.885 60.6638C23.9672 60.6136 24.0354 60.5416 24.0828 60.4548L24.4918 59.707C24.5385 59.6197 24.5627 59.5209 24.5619 59.4206C24.5612 59.3203 24.5355 59.222 24.4875 59.1355Z" fill="black"/>
<path d="M23.615 58.1019H22.7957C22.7009 58.1017 22.6078 58.1279 22.5256 58.1778C22.4435 58.2277 22.3752 58.2995 22.3277 58.3861L21.9173 59.1355C21.8699 59.2224 21.845 59.3209 21.845 59.4212C21.845 59.5215 21.8699 59.6201 21.9173 59.707L22.3277 60.4548C22.3751 60.5416 22.4433 60.6136 22.5255 60.6638C22.6076 60.7139 22.7008 60.7404 22.7957 60.7406H23.615C23.7099 60.7404 23.8031 60.7139 23.8853 60.6638C23.9674 60.6136 24.0356 60.5416 24.083 60.4548L24.492 59.707C24.5394 59.6201 24.5643 59.5215 24.5643 59.4212C24.5643 59.3209 24.5394 59.2224 24.492 59.1355L24.083 58.3861C24.0355 58.2995 23.9673 58.2277 23.8851 58.1778C23.803 58.1279 23.7098 58.1017 23.615 58.1019Z" fill="#FF7F61"/>
<path d="M14.6136 59.4544L14.2853 58.8555C14.2474 58.7861 14.1928 58.7285 14.127 58.6885C14.0613 58.6485 13.9868 58.6275 13.9109 58.6275H12.6034C12.5272 58.6272 12.4524 58.6481 12.3864 58.6881C12.3204 58.7282 12.2656 58.7859 12.2275 58.8555L11.9007 59.4544C11.8627 59.5237 11.8428 59.6023 11.8428 59.6824C11.8428 59.7624 11.8627 59.8411 11.9007 59.9104L12.2275 60.5077C12.2654 60.5776 12.3201 60.6357 12.3861 60.676C12.4522 60.7163 12.5271 60.7374 12.6034 60.7373H13.9109C13.9869 60.7372 14.0616 60.7159 14.1273 60.6756C14.193 60.6353 14.2475 60.5774 14.2853 60.5077L14.6136 59.9104C14.6515 59.8411 14.6715 59.7624 14.6715 59.6824C14.6715 59.6023 14.6515 59.5237 14.6136 59.4544Z" fill="#FF7F61"/>
<path opacity="0.1" d="M14.6136 59.4544L14.2853 58.8555C14.2474 58.7861 14.1928 58.7285 14.127 58.6885C14.0613 58.6485 13.9868 58.6275 13.9109 58.6275H12.6034C12.5272 58.6272 12.4524 58.6481 12.3864 58.6881C12.3204 58.7282 12.2656 58.7859 12.2275 58.8555L11.9007 59.4544C11.8627 59.5237 11.8428 59.6023 11.8428 59.6824C11.8428 59.7624 11.8627 59.8411 11.9007 59.9104L12.2275 60.5077C12.2654 60.5776 12.3201 60.6357 12.3861 60.676C12.4522 60.7163 12.5271 60.7374 12.6034 60.7373H13.9109C13.9869 60.7372 14.0616 60.7159 14.1273 60.6756C14.193 60.6353 14.2475 60.5774 14.2853 60.5077L14.6136 59.9104C14.6515 59.8411 14.6715 59.7624 14.6715 59.6824C14.6715 59.6023 14.6515 59.5237 14.6136 59.4544Z" fill="black"/>
<path opacity="0.2" d="M13.9116 58.6275H13.2564C13.1806 58.6275 13.106 58.6485 13.0403 58.6885C12.9746 58.7285 12.92 58.7861 12.882 58.8555L12.5537 59.4544C12.5158 59.5237 12.4958 59.6023 12.4958 59.6824C12.4958 59.7624 12.5158 59.8411 12.5537 59.9104L12.882 60.5077C12.9198 60.5774 12.9743 60.6353 13.04 60.6756C13.1058 60.7159 13.1804 60.7372 13.2564 60.7373H13.9116C13.9877 60.7372 14.0623 60.7159 14.1281 60.6756C14.1938 60.6353 14.2483 60.5774 14.286 60.5077L14.6144 59.9104C14.6523 59.8411 14.6722 59.7624 14.6722 59.6824C14.6722 59.6023 14.6523 59.5237 14.6144 59.4544L14.286 58.8555C14.2481 58.7861 14.1935 58.7285 14.1278 58.6885C14.0621 58.6485 13.9875 58.6275 13.9116 58.6275Z" fill="black"/>
<path d="M16.4294 59.6796C16.4294 59.9654 15.7886 60.1964 14.9995 60.1964C14.2104 60.1964 13.5696 59.9654 13.5696 59.6796C13.5696 59.3939 14.2104 59.1628 14.9995 59.1628C15.7886 59.1628 16.4294 59.3954 16.4294 59.6796Z" fill="#FF7F61"/>
<path opacity="0.1" d="M16.4294 59.6796C16.4294 59.9654 15.7886 60.1964 14.9995 60.1964C14.2104 60.1964 13.5696 59.9654 13.5696 59.6796C13.5696 59.3939 14.2104 59.1628 14.9995 59.1628C15.7886 59.1628 16.4294 59.3954 16.4294 59.6796Z" fill="black"/>
<path d="M18.2513 59.4544L17.923 58.8555C17.885 58.7861 17.8305 58.7285 17.7647 58.6885C17.699 58.6485 17.6245 58.6275 17.5486 58.6275H16.2411C16.1652 58.6275 16.0906 58.6485 16.0249 58.6885C15.9592 58.7285 15.9046 58.7861 15.8667 58.8555L15.5383 59.4544C15.5004 59.5237 15.4805 59.6023 15.4805 59.6824C15.4805 59.7624 15.5004 59.8411 15.5383 59.9104L15.8667 60.5077C15.9044 60.5774 15.9589 60.6353 16.0247 60.6756C16.0904 60.7159 16.165 60.7372 16.2411 60.7373H17.5486C17.6246 60.7372 17.6993 60.7159 17.765 60.6756C17.8307 60.6353 17.8852 60.5774 17.923 60.5077L18.2513 59.9104C18.2892 59.8411 18.3092 59.7624 18.3092 59.6824C18.3092 59.6023 18.2892 59.5237 18.2513 59.4544Z" fill="#FF7F61"/>
<path opacity="0.1" d="M18.2513 59.4544L17.923 58.8555C17.885 58.7861 17.8305 58.7285 17.7647 58.6885C17.699 58.6485 17.6245 58.6275 17.5486 58.6275H16.2411C16.1652 58.6275 16.0906 58.6485 16.0249 58.6885C15.9592 58.7285 15.9046 58.7861 15.8667 58.8555L15.5383 59.4544C15.5004 59.5237 15.4805 59.6023 15.4805 59.6824C15.4805 59.7624 15.5004 59.8411 15.5383 59.9104L15.8667 60.5077C15.9044 60.5774 15.9589 60.6353 16.0247 60.6756C16.0904 60.7159 16.165 60.7372 16.2411 60.7373H17.5486C17.6246 60.7372 17.6993 60.7159 17.765 60.6756C17.8307 60.6353 17.8852 60.5774 17.923 60.5077L18.2513 59.9104C18.2892 59.8411 18.3092 59.7624 18.3092 59.6824C18.3092 59.6023 18.2892 59.5237 18.2513 59.4544Z" fill="black"/>
<path d="M17.5491 58.6275H16.8939C16.818 58.6275 16.7435 58.6485 16.6778 58.6885C16.612 58.7285 16.5575 58.7861 16.5195 58.8555L16.1926 59.4544C16.1547 59.5237 16.1348 59.6023 16.1348 59.6824C16.1348 59.7624 16.1547 59.8411 16.1926 59.9104L16.5195 60.5077C16.5573 60.5774 16.6118 60.6353 16.6775 60.6756C16.7433 60.7159 16.8179 60.7372 16.8939 60.7373H17.5491C17.6251 60.7372 17.6998 60.7159 17.7655 60.6756C17.8313 60.6353 17.8858 60.5774 17.9235 60.5077L18.2518 59.9104C18.2898 59.8411 18.3097 59.7624 18.3097 59.6824C18.3097 59.6023 18.2898 59.5237 18.2518 59.4544L17.9235 58.8555C17.8856 58.7861 17.831 58.7285 17.7653 58.6885C17.6996 58.6485 17.625 58.6275 17.5491 58.6275Z" fill="#FF7F61"/>
<path d="M10.6263 59.7072L10.3671 59.2284C10.3368 59.1728 10.2932 59.1267 10.2406 59.0946C10.188 59.0626 10.1283 59.0458 10.0676 59.046H9.01923C8.95829 59.0457 8.89835 59.0624 8.84549 59.0945C8.79264 59.1265 8.74875 59.1727 8.71827 59.2284L8.45619 59.7072C8.42572 59.7626 8.40967 59.8256 8.40967 59.8896C8.40967 59.9537 8.42572 60.0166 8.45619 60.072L8.71827 60.5523C8.74897 60.6079 8.79291 60.6539 8.84571 60.6859C8.89852 60.7179 8.95834 60.7347 9.01923 60.7347H10.0647C10.1253 60.7346 10.1849 60.7177 10.2375 60.6857C10.29 60.6537 10.3337 60.6077 10.3642 60.5523L10.6263 60.072C10.6567 60.0166 10.6728 59.9537 10.6728 59.8896C10.6728 59.8256 10.6567 59.7626 10.6263 59.7072Z" fill="#FF7F61"/>
<path opacity="0.1" d="M10.6263 59.7072L10.3671 59.2284C10.3368 59.1728 10.2932 59.1267 10.2406 59.0946C10.188 59.0626 10.1283 59.0458 10.0676 59.046H9.01923C8.95829 59.0457 8.89835 59.0624 8.84549 59.0945C8.79264 59.1265 8.74875 59.1727 8.71827 59.2284L8.45619 59.7072C8.42572 59.7626 8.40967 59.8256 8.40967 59.8896C8.40967 59.9537 8.42572 60.0166 8.45619 60.072L8.71827 60.5523C8.74897 60.6079 8.79291 60.6539 8.84571 60.6859C8.89852 60.7179 8.95834 60.7347 9.01923 60.7347H10.0647C10.1253 60.7346 10.1849 60.7177 10.2375 60.6857C10.29 60.6537 10.3337 60.6077 10.3642 60.5523L10.6263 60.072C10.6567 60.0166 10.6728 59.9537 10.6728 59.8896C10.6728 59.8256 10.6567 59.7626 10.6263 59.7072Z" fill="black"/>
<path opacity="0.2" d="M10.0647 59.046H9.5405C9.47977 59.0458 9.42007 59.0626 9.36746 59.0947C9.31486 59.1267 9.27122 59.1729 9.24098 59.2284L8.9789 59.7072C8.94842 59.7627 8.93237 59.8256 8.93237 59.8896C8.93237 59.9537 8.94842 60.0166 8.9789 60.072L9.24098 60.5524C9.27144 60.6078 9.31513 60.6537 9.36768 60.6857C9.42024 60.7177 9.47982 60.7347 9.5405 60.7348H10.0647C10.1253 60.7347 10.1849 60.7177 10.2375 60.6857C10.29 60.6537 10.3337 60.6078 10.3642 60.5524L10.6263 60.072C10.6567 60.0166 10.6728 59.9537 10.6728 59.8896C10.6728 59.8256 10.6567 59.7627 10.6263 59.7072L10.3671 59.2284C10.3366 59.1724 10.2925 59.1259 10.2393 59.0939C10.1862 59.0618 10.1259 59.0453 10.0647 59.046Z" fill="black"/>
<path d="M12.0797 59.8926C12.0797 60.1206 11.567 60.3061 10.9363 60.3061C10.3056 60.3061 9.7915 60.1206 9.7915 59.8926C9.7915 59.6646 10.3027 59.4792 10.9349 59.4792C11.567 59.4792 12.0797 59.6646 12.0797 59.8926Z" fill="#FF7F61"/>
<path opacity="0.1" d="M12.0797 59.8926C12.0797 60.1206 11.567 60.3061 10.9363 60.3061C10.3056 60.3061 9.7915 60.1206 9.7915 59.8926C9.7915 59.6646 10.3027 59.4792 10.9349 59.4792C11.567 59.4792 12.0797 59.6646 12.0797 59.8926Z" fill="black"/>
<path d="M13.5347 59.7072L13.2727 59.2284C13.2424 59.1728 13.1988 59.1267 13.1462 59.0946C13.0936 59.0626 13.0339 59.0458 12.9731 59.046H11.9291C11.8682 59.0457 11.8083 59.0624 11.7554 59.0945C11.7025 59.1265 11.6587 59.1727 11.6282 59.2284L11.3661 59.7072C11.3356 59.7626 11.3196 59.8256 11.3196 59.8896C11.3196 59.9537 11.3356 60.0166 11.3661 60.072L11.6282 60.5523C11.6589 60.6079 11.7028 60.6539 11.7556 60.6859C11.8084 60.7179 11.8683 60.7347 11.9291 60.7347H12.9746C13.0353 60.7346 13.0948 60.7177 13.1474 60.6857C13.2 60.6537 13.2436 60.6077 13.2741 60.5523L13.5347 60.072C13.5652 60.0166 13.5813 59.9537 13.5813 59.8896C13.5813 59.8256 13.5652 59.7626 13.5347 59.7072Z" fill="#FF7F61"/>
<path opacity="0.1" d="M13.5347 59.7072L13.2727 59.2284C13.2424 59.1728 13.1988 59.1267 13.1462 59.0946C13.0936 59.0626 13.0339 59.0458 12.9731 59.046H11.9291C11.8682 59.0457 11.8083 59.0624 11.7554 59.0945C11.7025 59.1265 11.6587 59.1727 11.6282 59.2284L11.3661 59.7072C11.3356 59.7626 11.3196 59.8256 11.3196 59.8896C11.3196 59.9537 11.3356 60.0166 11.3661 60.072L11.6282 60.5523C11.6589 60.6079 11.7028 60.6539 11.7556 60.6859C11.8084 60.7179 11.8683 60.7347 11.9291 60.7347H12.9746C13.0353 60.7346 13.0948 60.7177 13.1474 60.6857C13.2 60.6537 13.2436 60.6077 13.2741 60.5523L13.5347 60.072C13.5652 60.0166 13.5813 59.9537 13.5813 59.8896C13.5813 59.8256 13.5652 59.7626 13.5347 59.7072Z" fill="black"/>
<path d="M12.9751 59.046H12.4509C12.3902 59.0458 12.3305 59.0626 12.2779 59.0946C12.2253 59.1267 12.1816 59.1728 12.1514 59.2284L11.8893 59.7072C11.8588 59.7626 11.8428 59.8256 11.8428 59.8896C11.8428 59.9537 11.8588 60.0166 11.8893 60.072L12.1514 60.5523C12.1818 60.6077 12.2255 60.6537 12.2781 60.6857C12.3306 60.7177 12.3902 60.7346 12.4509 60.7347H12.9751C13.0357 60.7346 13.0953 60.7177 13.1479 60.6857C13.2004 60.6537 13.2441 60.6077 13.2746 60.5523L13.5352 60.072C13.5657 60.0166 13.5817 59.9537 13.5817 59.8896C13.5817 59.8256 13.5657 59.7626 13.5352 59.7072L13.2731 59.2284C13.243 59.1731 13.1996 59.127 13.1473 59.095C13.0949 59.063 13.0355 59.0461 12.9751 59.046Z" fill="#FF7F61"/>
<path d="M11.0049 62.6066H9.03933C8.81848 62.6063 8.59992 62.5593 8.39649 62.4686C8.19306 62.3778 8.00887 62.2451 7.85473 62.0781C7.70059 61.9112 7.57961 61.7134 7.49891 61.4964C7.4182 61.2794 7.3794 61.0476 7.38477 60.8145L7.57629 52.9956C7.58535 52.5395 7.76389 52.1054 8.07341 51.7869C8.38292 51.4684 8.79862 51.2911 9.23085 51.2932H9.72765C10.1175 51.2922 10.4951 51.4367 10.7937 51.7013C11.0922 51.9658 11.2926 52.3333 11.3592 52.7388L12.6364 60.5576C12.6773 60.8085 12.6658 61.0658 12.6027 61.3116C12.5396 61.5573 12.4263 61.7855 12.271 61.9802C12.1156 62.1749 11.9217 62.3314 11.7031 62.4389C11.4844 62.5463 11.2461 62.602 11.0049 62.602V62.6066ZM9.23085 51.7644C8.91504 51.7624 8.61118 51.8917 8.38505 52.1244C8.15892 52.3571 8.02874 52.6745 8.02269 53.0078L7.83117 60.8267C7.82694 60.9969 7.85506 61.1664 7.91388 61.325C7.9727 61.4836 8.06102 61.6281 8.17363 61.7501C8.28624 61.8721 8.42086 61.9691 8.56955 62.0352C8.71823 62.1014 8.87797 62.1355 9.03933 62.1354H11.0049C11.1811 62.1354 11.3551 62.0948 11.5149 62.0164C11.6746 61.9381 11.8162 61.8238 11.9298 61.6816C12.0434 61.5395 12.1261 61.3728 12.1723 61.1934C12.2185 61.014 12.227 60.826 12.1972 60.6428L10.92 52.8239C10.8729 52.5262 10.7272 52.2558 10.5088 52.0609C10.2904 51.866 10.0136 51.7594 9.72765 51.7599L9.23085 51.7644Z" fill="black"/>
<path d="M25.0941 35.7049C25.0865 35.7047 25.079 35.7028 25.0721 35.6994C25.0651 35.696 25.0589 35.6912 25.0538 35.6852C24.1221 34.5528 23.5418 32.9233 23.4612 31.2118C23.4633 31.1983 23.4699 31.186 23.4798 31.1771C23.4896 31.1683 23.5022 31.1634 23.5152 31.1634C23.5282 31.1634 23.5407 31.1683 23.5506 31.1771C23.5605 31.186 23.5671 31.1983 23.5692 31.2118C23.6484 32.896 24.2201 34.5011 25.1345 35.6198C25.1444 35.6306 25.15 35.645 25.15 35.6601C25.15 35.6751 25.1444 35.6896 25.1345 35.7004C25.1221 35.7073 25.1076 35.7089 25.0941 35.7049Z" fill="#FF7F61"/>
<path d="M23.5096 30.837C23.4952 30.8366 23.4814 30.8304 23.4713 30.8197C23.4611 30.8089 23.4552 30.7944 23.4548 30.7792C23.4548 30.5573 23.4548 30.4296 23.4721 30.2077C23.4736 30.1929 23.4804 30.1793 23.4911 30.1697C23.5018 30.1601 23.5157 30.1552 23.5297 30.156C23.5368 30.1564 23.5438 30.1583 23.5503 30.1616C23.5567 30.1649 23.5624 30.1695 23.5671 30.1752C23.5718 30.1808 23.5754 30.1875 23.5776 30.1946C23.5799 30.2018 23.5807 30.2093 23.5801 30.2168C23.5657 30.4372 23.5614 30.5573 23.5628 30.7792C23.563 30.7868 23.5618 30.7942 23.5592 30.8012C23.5566 30.8082 23.5527 30.8146 23.5477 30.82C23.5428 30.8254 23.5368 30.8297 23.5303 30.8326C23.5237 30.8355 23.5167 30.837 23.5096 30.837Z" fill="#FF7F61"/>
<path d="M23.5723 29.8032C23.558 29.8009 23.5451 29.7928 23.5365 29.7805C23.5278 29.7683 23.5241 29.7529 23.5262 29.7378C23.5637 29.4517 23.6161 29.1681 23.6832 28.8881C23.6881 28.875 23.6974 28.8643 23.7093 28.8579C23.7212 28.8515 23.7349 28.8499 23.7478 28.8535C23.7607 28.857 23.772 28.8655 23.7794 28.8772C23.7869 28.8889 23.79 28.903 23.7883 28.917C23.7215 29.1929 23.6696 29.4725 23.6328 29.7545C23.6319 29.7619 23.6296 29.7691 23.6261 29.7756C23.6225 29.782 23.6178 29.7877 23.6122 29.7922C23.6065 29.7968 23.6001 29.8001 23.5933 29.8019C23.5864 29.8038 23.5793 29.8042 23.5723 29.8032Z" fill="#FF7F61"/>
<path d="M26.6948 36.46C26.6835 36.4595 26.6726 36.4558 26.6631 36.4493C24.9941 35.1999 23.9703 32.701 24.1157 30.228C24.1162 30.2206 24.1181 30.2134 24.1212 30.2068C24.1243 30.2001 24.1286 30.1942 24.1339 30.1893C24.1392 30.1845 24.1453 30.1807 24.152 30.1784C24.1586 30.176 24.1656 30.175 24.1726 30.1755C24.1796 30.176 24.1865 30.178 24.1927 30.1813C24.199 30.1846 24.2046 30.1891 24.2092 30.1947C24.2139 30.2003 24.2174 30.2068 24.2196 30.2138C24.2219 30.2208 24.2228 30.2282 24.2223 30.2356C24.0783 32.6676 25.0863 35.13 26.7265 36.3566C26.7323 36.3609 26.7372 36.3663 26.741 36.3726C26.7449 36.3789 26.7474 36.3859 26.7486 36.3933C26.7498 36.4006 26.7497 36.4082 26.7481 36.4154C26.7465 36.4227 26.7436 36.4296 26.7394 36.4357C26.7342 36.443 26.7275 36.449 26.7198 36.4532C26.712 36.4574 26.7035 36.4598 26.6948 36.46Z" fill="#FF7F61"/>
<path d="M40.3302 26.1177C40.3222 26.1177 40.3143 26.1158 40.307 26.1121C40.2998 26.1084 40.2935 26.1031 40.2885 26.0964C39.9386 25.6423 39.51 25.2626 39.0256 24.9777C39.0182 24.9748 39.0115 24.9703 39.0059 24.9645C39.0003 24.9586 38.996 24.9516 38.9932 24.9438C38.9905 24.936 38.9893 24.9277 38.9899 24.9194C38.9904 24.9112 38.9927 24.9031 38.9964 24.8958C39.0002 24.8885 39.0054 24.8822 39.0117 24.8772C39.018 24.8723 39.0252 24.8688 39.0329 24.867C39.0406 24.8653 39.0486 24.8653 39.0562 24.8671C39.0639 24.8689 39.0711 24.8724 39.0774 24.8774C39.5744 25.1691 40.0143 25.558 40.3734 26.0235C40.3799 26.0319 40.384 26.0421 40.3853 26.0528C40.3866 26.0636 40.3849 26.0746 40.3806 26.0844C40.3762 26.0943 40.3693 26.1026 40.3607 26.1085C40.352 26.1144 40.342 26.1176 40.3317 26.1177H40.3302Z" fill="#FF7F61"/>
<path d="M41.8877 30.6016C41.8737 30.6016 41.8602 30.596 41.85 30.5858C41.8398 30.5756 41.8337 30.5617 41.833 30.5469C41.7834 29.0857 41.3409 27.6696 40.5571 26.4642C40.553 26.4581 40.5501 26.4512 40.5485 26.4439C40.5469 26.4367 40.5467 26.4291 40.5479 26.4218C40.5491 26.4144 40.5517 26.4074 40.5555 26.4011C40.5593 26.3948 40.5643 26.3894 40.5701 26.3851C40.5759 26.3807 40.5826 26.3776 40.5896 26.3759C40.5966 26.3742 40.6038 26.374 40.6109 26.3753C40.618 26.3765 40.6248 26.3793 40.6309 26.3833C40.637 26.3873 40.6422 26.3926 40.6464 26.3988C41.4414 27.6225 41.8909 29.0595 41.9424 30.5423C41.9428 30.5571 41.9378 30.5716 41.9284 30.5826C41.919 30.5936 41.906 30.6004 41.892 30.6016H41.8877Z" fill="#FF7F61"/>
<path d="M39.5476 26.2792C39.5405 26.2795 39.5336 26.2781 39.5271 26.2752C39.5207 26.2723 39.5149 26.268 39.5101 26.2625C38.9725 25.6559 38.2755 25.2325 37.5085 25.0465C37.4957 25.0421 37.4849 25.033 37.4782 25.0207C37.4714 25.0085 37.4691 24.994 37.4718 24.9801C37.4745 24.9662 37.4819 24.9539 37.4926 24.9454C37.5034 24.9369 37.5167 24.9328 37.5301 24.9341C38.3179 25.1249 39.0338 25.5594 39.5864 26.182C39.5964 26.1928 39.6019 26.2072 39.6019 26.2222C39.6019 26.2373 39.5964 26.2517 39.5864 26.2625C39.576 26.2732 39.5621 26.2792 39.5476 26.2792Z" fill="#FF7F61"/>
<path d="M40.2222 27.1573C40.2131 27.1572 40.2042 27.1547 40.1962 27.1502C40.1882 27.1457 40.1813 27.1393 40.1761 27.1315C40.0646 26.9547 39.9444 26.7843 39.8161 26.6208C39.8103 26.6152 39.8058 26.6084 39.8027 26.6008C39.7996 26.5932 39.7982 26.585 39.7984 26.5767C39.7986 26.5685 39.8004 26.5604 39.8038 26.553C39.8073 26.5455 39.8121 26.539 39.8182 26.5337C39.8242 26.5284 39.8312 26.5246 39.8388 26.5225C39.8463 26.5203 39.8542 26.5199 39.8619 26.5212C39.8696 26.5225 39.877 26.5256 39.8835 26.5302C39.89 26.5348 39.8955 26.5408 39.8996 26.5478C40.0302 26.715 40.1528 26.889 40.2668 27.0692C40.2745 27.0819 40.2771 27.0973 40.2741 27.1121C40.2712 27.1269 40.2629 27.1398 40.251 27.1482C40.2424 27.1542 40.2324 27.1574 40.2222 27.1573Z" fill="#FF7F61"/>
<path d="M41.1839 29.5824C41.1716 29.5824 41.1597 29.5781 41.15 29.5701C41.1404 29.5621 41.1335 29.5509 41.1306 29.5383C40.9866 28.8364 40.7439 28.1611 40.4106 27.535C40.4036 27.5219 40.4017 27.5063 40.4055 27.4918C40.4093 27.4773 40.4184 27.4649 40.4308 27.4575C40.4432 27.45 40.4579 27.448 40.4717 27.452C40.4854 27.456 40.4972 27.4656 40.5042 27.4787C40.844 28.1148 41.092 28.8007 41.2401 29.514C41.2426 29.5287 41.2397 29.5439 41.2319 29.5563C41.2242 29.5688 41.2121 29.5776 41.1983 29.5809L41.1839 29.5824Z" fill="#FF7F61"/>
<path d="M26.5208 26.3783L26.1838 25.6958C26.1491 25.6189 26.0947 25.5538 26.0268 25.5079C25.9588 25.4619 25.88 25.437 25.7994 25.4359H24.4544C24.3735 25.4367 24.2944 25.4615 24.2261 25.5075C24.1579 25.5534 24.1033 25.6187 24.0685 25.6958L23.7315 26.3753C23.6925 26.4554 23.6721 26.5443 23.6721 26.6344C23.6721 26.7246 23.6925 26.8134 23.7315 26.8936L24.0685 27.573C24.1033 27.6502 24.1579 27.7154 24.2261 27.7614C24.2944 27.8073 24.3735 27.8321 24.4544 27.833H25.7994C25.88 27.8319 25.9588 27.8069 26.0268 27.761C26.0947 27.7151 26.1491 27.6499 26.1838 27.573L26.5208 26.8936C26.56 26.814 26.5805 26.7257 26.5805 26.636C26.5805 26.5463 26.56 26.4579 26.5208 26.3783Z" fill="#FF7F61"/>
<path opacity="0.2" d="M26.5208 26.3783L26.1838 25.6958C26.1491 25.6189 26.0947 25.5538 26.0268 25.5079C25.9588 25.4619 25.88 25.437 25.7994 25.4359H24.4544C24.3735 25.4367 24.2944 25.4615 24.2261 25.5075C24.1579 25.5534 24.1033 25.6187 24.0685 25.6958L23.7315 26.3753C23.6925 26.4554 23.6721 26.5443 23.6721 26.6344C23.6721 26.7246 23.6925 26.8134 23.7315 26.8936L24.0685 27.573C24.1033 27.6502 24.1579 27.7154 24.2261 27.7614C24.2944 27.8073 24.3735 27.8321 24.4544 27.833H25.7994C25.88 27.8319 25.9588 27.8069 26.0268 27.761C26.0947 27.7151 26.1491 27.6499 26.1838 27.573L26.5208 26.8936C26.56 26.814 26.5805 26.7257 26.5805 26.636C26.5805 26.5463 26.56 26.4579 26.5208 26.3783Z" fill="black"/>
<path d="M25.7753 25.4359H25.1547C25.0691 25.4358 24.9851 25.4606 24.912 25.5075C24.8388 25.5544 24.7793 25.6217 24.7399 25.7019L24.3915 26.4057C24.3563 26.4759 24.3379 26.5542 24.3379 26.6337C24.3379 26.7131 24.3563 26.7914 24.3915 26.8617L24.7399 27.567C24.7796 27.6468 24.8392 27.7136 24.9124 27.7603C24.9855 27.8069 25.0693 27.8315 25.1547 27.8314H25.7753C25.8605 27.8312 25.944 27.8065 26.0168 27.7599C26.0896 27.7133 26.149 27.6466 26.1886 27.567L26.5385 26.8617C26.573 26.7912 26.591 26.713 26.591 26.6337C26.591 26.5543 26.573 26.4762 26.5385 26.4057L26.1886 25.7019C26.1493 25.6219 26.09 25.5548 26.0172 25.5079C25.9443 25.461 25.8606 25.4361 25.7753 25.4359Z" fill="#FF7F61"/>
<path d="M28.3882 26.6359C28.3882 26.9596 27.7302 27.2226 26.918 27.2226C26.1058 27.2226 25.4478 26.9596 25.4478 26.6359C25.4478 26.3121 26.1073 26.0491 26.918 26.0491C27.7287 26.0491 28.3882 26.3121 28.3882 26.6359Z" fill="#FF7F61"/>
<path opacity="0.2" d="M28.3882 26.6359C28.3882 26.9596 27.7302 27.2226 26.918 27.2226C26.1058 27.2226 25.4478 26.9596 25.4478 26.6359C25.4478 26.3121 26.1073 26.0491 26.918 26.0491C27.7287 26.0491 28.3882 26.3121 28.3882 26.6359Z" fill="black"/>
<path d="M40.5162 32.3144L40.6501 31.5544C40.6663 31.4679 40.6601 31.3784 40.6322 31.2952C40.6043 31.2121 40.5558 31.1383 40.4917 31.0817L39.3973 30.1332C39.3321 30.0784 39.2543 30.0429 39.1718 30.0303C39.0893 30.0178 39.0051 30.0286 38.9279 30.0618L38.2453 30.3506C38.1656 30.3841 38.0951 30.4383 38.0405 30.5082C37.9859 30.578 37.9489 30.6613 37.9329 30.7504L37.7989 31.5104C37.7827 31.5969 37.7888 31.6865 37.8167 31.7697C37.8445 31.8529 37.8931 31.9266 37.9573 31.9831L39.0517 32.9316C39.1167 32.987 39.1945 33.0229 39.2772 33.0354C39.3598 33.048 39.4441 33.0368 39.5212 33.003L40.2037 32.7157C40.2835 32.6819 40.354 32.6274 40.4086 32.5572C40.4632 32.4871 40.5002 32.4036 40.5162 32.3144Z" fill="#FF7F61"/>
<path opacity="0.2" d="M40.5162 32.3144L40.6501 31.5544C40.6663 31.4679 40.6601 31.3784 40.6322 31.2952C40.6043 31.2121 40.5558 31.1383 40.4917 31.0817L39.3973 30.1332C39.3321 30.0784 39.2543 30.0429 39.1718 30.0303C39.0893 30.0178 39.0051 30.0286 38.9279 30.0618L38.2453 30.3506C38.1656 30.3841 38.0951 30.4383 38.0405 30.5082C37.9859 30.578 37.9489 30.6613 37.9329 30.7504L37.7989 31.5104C37.7827 31.5969 37.7888 31.6865 37.8167 31.7697C37.8445 31.8529 37.8931 31.9266 37.9573 31.9831L39.0517 32.9316C39.1167 32.987 39.1945 33.0229 39.2772 33.0354C39.3598 33.048 39.4441 33.0368 39.5212 33.003L40.2037 32.7157C40.2835 32.6819 40.354 32.6274 40.4086 32.5572C40.4632 32.4871 40.5002 32.4036 40.5162 32.3144Z" fill="black"/>
<path d="M40.483 31.0738L39.9545 30.6178C39.888 30.56 39.808 30.5221 39.7229 30.5082C39.6377 30.4943 39.5506 30.5049 39.4707 30.5388L38.7766 30.8306C38.7026 30.8635 38.6375 30.9154 38.5873 30.9814C38.537 31.0475 38.5031 31.1257 38.4886 31.2091L38.3518 31.9858C38.3362 32.0748 38.3434 32.1666 38.3728 32.2516C38.4022 32.3366 38.4526 32.4117 38.5188 32.4692L39.0473 32.9252C39.1137 32.9826 39.1935 33.0202 39.2783 33.0341C39.3631 33.048 39.4499 33.0377 39.5297 33.0042L40.2252 32.7124C40.2992 32.6795 40.3643 32.6276 40.4146 32.5616C40.4648 32.4955 40.4987 32.4173 40.5132 32.3339L40.65 31.5572C40.6654 31.4682 40.658 31.3765 40.6286 31.2916C40.5992 31.2066 40.549 31.1315 40.483 31.0738Z" fill="#FF7F61"/>
<path d="M34.271 27.7651C34.271 27.7651 35.8435 27.5568 36.2035 29.4371C36.4018 30.4636 36.5117 31.5071 36.5318 32.5546C36.9068 32.5767 37.2798 32.6275 37.6478 32.7066C38.0885 32.7856 38.3534 32.8935 39.3686 33.0942C39.3686 33.0942 39.9245 32.2536 40.2024 32.0803C40.3464 31.9861 40.7294 31.8812 40.8921 31.9527C41.0361 32.0119 41.4134 32.2217 41.4494 32.3752C41.4768 32.4907 41.2104 33.0212 41.2104 33.0212C41.2104 33.0212 40.0915 33.7326 39.8251 33.7934C38.9539 33.9971 38.3721 34.07 36.8861 34.2099C34.9464 34.3923 35.1177 33.5365 34.8326 32.5926C34.5475 31.6487 33.6662 27.3987 34.271 27.7651Z" fill="#FFB473"/>
<path d="M33.5989 27.5853C33.594 27.5845 33.5891 27.5853 33.5847 27.5874C33.5802 27.5895 33.5764 27.5929 33.5737 27.5972C33.571 27.6015 33.5695 27.6065 33.5693 27.6116C33.5692 27.6168 33.5705 27.6219 33.573 27.6263C33.7011 27.8604 34.1893 28.8636 33.0157 28.8651C31.8421 28.8666 31.2661 27.8285 31.1638 27.6157C31.1582 27.6042 31.15 27.5944 31.14 27.587C31.1299 27.5796 31.1184 27.5748 31.1062 27.5731C30.847 27.5412 29.4416 27.4211 29.3869 28.517C29.3278 29.733 30.5274 31.4795 30.7477 35.3129C31.5912 35.7961 32.5505 36.0075 33.5067 35.9209C35.0648 35.7689 35.7042 35.2278 35.7042 35.2278C35.7056 34.3597 35.7643 33.4927 35.8798 32.6332C36.1981 30.2225 36.0584 29.4412 34.3779 27.681L33.5989 27.5853Z" fill="#263238"/>
<path d="M36.8079 60.6108C36.903 61.013 36.9192 61.4314 36.8555 61.8404C36.7359 62.3876 36.7633 62.9151 37.0412 62.9212C37.9542 62.9424 37.8159 62.7236 38.4812 62.7692C39.1465 62.8148 40.0926 62.8695 40.1761 62.6293C40.2999 62.2676 39.1163 62.1156 38.6828 61.807C38.091 61.3875 38.0003 60.1654 38.0003 60.1654L36.8079 60.6108Z" fill="#FFB473"/>
<path d="M38.1061 60.812L36.8721 60.9731C36.4098 59.3345 35.3817 55.6531 35.0476 54.054C34.8992 53.3123 34.7911 52.5622 34.7236 51.8075C34.5925 50.4395 34.6876 49.9196 34.5796 49.3071C34.4615 48.6428 33.9186 47.4147 33.6753 46.793C33.4665 46.2625 33.0834 45.1985 32.7479 44.2516C32.7306 44.206 32.7148 44.1604 32.6989 44.1163C32.3692 43.1906 32.0956 42.4093 32.0956 42.4093C29.8161 40.3178 30.6037 37.144 31.0069 35.966C31.0444 35.8566 31.0789 35.7654 31.1077 35.6924C31.1538 35.5708 31.1841 35.504 31.1841 35.504L32.1085 35.4553L33.1785 35.3976L33.9157 35.358L35.0908 35.2957L35.6351 35.2668L35.6524 35.5009L35.6855 35.9569L35.9044 38.9194L37.1831 48.921L38.1061 60.812Z" fill="#FF7F61"/>
<path opacity="0.2" d="M33.452 38.659H31.891L31.2473 41.3874C31.48 41.7699 31.7637 42.1149 32.0897 42.4119C32.0897 42.4119 32.742 44.28 33.2417 45.6662C33.5513 43.5154 33.452 38.659 33.452 38.659Z" fill="black"/>
<path d="M27.4111 60.1703C27.3973 60.6688 27.2997 61.1608 27.1231 61.6234C26.8452 62.2755 26.6839 62.6129 27.4111 62.6646C28.1383 62.7163 28.3385 62.7072 28.9865 62.8622C29.6345 63.0172 30.4884 62.8972 30.4394 62.6266C30.3905 62.356 29.5898 62.4746 29.0657 61.8666C28.5415 61.2586 28.4897 60.7068 28.5862 60.3968L27.4111 60.1703Z" fill="#FFB473"/>
<path d="M34.0149 35.455C34.0149 35.4641 34.0149 35.5052 34.0034 35.5736C33.9947 35.6678 33.9818 35.8137 33.9645 35.9961C33.953 36.1223 33.94 36.2667 33.9242 36.4263C33.8133 37.5815 33.629 39.4526 33.5138 40.243C33.3698 41.2538 33.0976 42.634 32.7549 44.2056C32.7549 44.2208 32.7477 44.236 32.7448 44.2528C31.2962 50.8693 28.5861 60.8208 28.5861 60.8208L27.3347 60.6186C27.4542 58.9132 27.7394 55.0828 27.9654 53.4746C28.0768 52.7374 28.2282 52.0076 28.419 51.2888C28.756 49.9923 29.0195 49.5682 29.1232 48.9617C29.2355 48.3036 29.1448 46.9295 29.1232 46.25C29.0944 45.0645 29.1318 41.5198 29.1318 41.5198C29.1491 38.8644 30.4034 36.0341 30.687 35.4292C30.723 35.3517 30.7432 35.3106 30.7432 35.3106C30.7432 35.3106 32.7434 35.4003 33.171 35.3942L34.0149 35.455Z" fill="#FF7F61"/>
<path opacity="0.2" d="M35.6523 35.504C35.4435 35.8384 34.5276 35.9326 33.9646 35.9964C33.0017 36.1156 32.0258 36.0119 31.1048 35.6924C31.0486 35.6727 30.991 35.6499 30.9334 35.6271C30.9017 35.6149 30.8715 35.5967 30.8398 35.5845C30.8065 35.5722 30.7763 35.5522 30.7514 35.5259C30.7264 35.4996 30.7074 35.4677 30.6958 35.4325C30.7318 35.355 30.752 35.314 30.752 35.314C30.752 35.314 32.7521 35.4036 33.1798 35.3976L33.9171 35.358L35.0921 35.2957L35.6364 35.2668L35.6523 35.504Z" fill="black"/>
<path d="M30.8296 28.6305C30.8628 27.5118 29.6978 27.0467 28.7647 29.2522C28.4714 29.9772 28.2307 30.7247 28.0447 31.4881C28.0447 31.4881 27.2008 29.731 26.8581 28.0393C26.8581 28.0393 27.7221 27.1865 27.7869 26.7807C27.8258 26.5557 27.6904 26.0344 27.4989 25.9189C27.2512 25.7669 26.5615 25.9037 26.3613 26.1225C26.0474 26.4645 26.1136 28.0089 26.1136 28.0089C26.0577 29.4267 26.2396 30.8439 26.6507 32.1949C27.4111 34.7273 29.0311 33.4854 29.6488 32.2785C30.1471 31.3118 30.798 29.7447 30.8296 28.6305Z" fill="#FFB473"/>
<path d="M30.7592 23.4726C30.7146 23.8192 30.4554 24.2812 30.1184 24.4089C30.0673 24.4312 30.0112 24.4374 29.9568 24.4269C29.9024 24.4164 29.8521 24.3896 29.8117 24.3496C29.7877 24.3355 29.7667 24.3163 29.7498 24.2933C29.733 24.2703 29.7208 24.244 29.7138 24.2159C29.6198 24.2133 29.5262 24.2011 29.4344 24.1794C29.2904 24.1444 29.1925 23.921 29.3192 23.8207C29.8952 23.3768 30.0896 22.7172 29.9615 22.4284C29.3149 20.9676 30.7391 19.3884 31.8709 20.4904C33.1381 21.7276 31.3856 22.1624 30.7434 22.132C30.7103 22.1304 30.8816 22.9132 30.7592 23.4726Z" fill="#263238"/>
<path d="M31.2223 22.3904C31.2223 22.3904 30.8508 21.7824 31.277 21.3112C31.7033 20.84 32.262 21.2352 32.262 21.2352L31.2223 22.3904Z" fill="#FF7F61"/>
<path d="M31.3619 27.5844H30.9846C31.2006 27.9888 32.1481 29.3552 33.2541 29.2656C34.2923 29.1804 34.2433 28.0192 33.9179 27.6118C33.7997 27.6086 33.682 27.5933 33.5665 27.5662C33.0827 27.4324 32.9545 26.8442 33.0265 26.3624L31.5981 25.2558C31.7524 25.9211 31.7852 26.6113 31.6945 27.2896C31.6812 27.3724 31.6405 27.4475 31.5795 27.5015C31.5186 27.5555 31.4415 27.5849 31.3619 27.5844Z" fill="#FFB473"/>
<path d="M31.2385 23.3926C31.2169 24.6435 31.1809 25.1725 31.7281 25.8611C32.5518 26.8962 34.0105 26.6515 34.3863 25.4339C34.7233 24.3365 34.7031 22.4775 33.5871 21.8847C33.3417 21.7524 33.0683 21.6886 32.7929 21.6994C32.5175 21.7101 32.2493 21.7951 32.0139 21.9463C31.7784 22.0975 31.5836 22.3097 31.4478 22.5629C31.3121 22.8161 31.24 23.1017 31.2385 23.3926Z" fill="#FFB473"/>
<path d="M33.8113 24.2825C33.893 24.5162 34.0045 24.7371 34.1425 24.9391C34.0929 24.9753 34.0363 24.9995 33.9768 25.01C33.9174 25.0206 33.8564 25.0171 33.7983 24.9999L33.8113 24.2825Z" fill="#EC883E"/>
<path d="M32.9138 23.6369C32.9063 23.6338 32.8995 23.6292 32.8937 23.6232C32.8892 23.6187 32.8857 23.6133 32.8833 23.6073C32.8809 23.6013 32.8796 23.5948 32.8796 23.5883C32.8796 23.5817 32.8809 23.5753 32.8833 23.5693C32.8857 23.5633 32.8892 23.5578 32.8937 23.5533C32.9548 23.4865 33.0303 23.4362 33.1138 23.4068C33.1973 23.3774 33.2863 23.3698 33.3732 23.3846C33.3852 23.3878 33.3956 23.3958 33.4022 23.4068C33.4089 23.4178 33.4114 23.431 33.4092 23.4439C33.4064 23.4564 33.3992 23.4673 33.389 23.4744C33.3788 23.4815 33.3665 23.4842 33.3545 23.4819C33.2822 23.4706 33.2085 23.4777 33.1394 23.5026C33.0703 23.5274 33.0078 23.5693 32.957 23.6248C32.9514 23.6305 32.9445 23.6346 32.9369 23.6367C32.9294 23.6389 32.9214 23.6389 32.9138 23.6369Z" fill="#2E353A"/>
<path d="M34.5329 23.6912C34.5249 23.689 34.5175 23.6848 34.5113 23.6791C34.4609 23.6243 34.3987 23.5831 34.3301 23.559C34.2614 23.5349 34.1882 23.5287 34.1168 23.5407C34.1045 23.544 34.0916 23.5419 34.0808 23.5351C34.07 23.5282 34.0622 23.5172 34.0592 23.5043C34.0565 23.4912 34.0588 23.4775 34.0655 23.4662C34.0723 23.4549 34.0829 23.4467 34.0952 23.4435C34.1821 23.4282 34.2713 23.4352 34.3552 23.4638C34.4391 23.4923 34.5154 23.5416 34.5776 23.6076C34.582 23.6122 34.5855 23.6176 34.5879 23.6236C34.5904 23.6296 34.5916 23.6361 34.5916 23.6426C34.5916 23.6491 34.5904 23.6556 34.5879 23.6616C34.5855 23.6676 34.582 23.673 34.5776 23.6775C34.5715 23.6845 34.5636 23.6894 34.555 23.6918C34.5463 23.6943 34.5372 23.694 34.5286 23.6912H34.5329Z" fill="#2E353A"/>
<path d="M33.0051 24.1037C33.0051 24.2055 33.0454 24.2907 33.1088 24.2952C33.1722 24.2998 33.2269 24.2207 33.2312 24.1174C33.2355 24.014 33.1909 23.9319 33.129 23.9274C33.067 23.9228 33.0109 24.0019 33.0051 24.1037Z" fill="#2E353A"/>
<path d="M34.0911 24.1782C34.0911 24.2785 34.1314 24.3637 34.1947 24.3682C34.2581 24.3728 34.3128 24.2937 34.3186 24.1919C34.3243 24.0901 34.2783 24.0049 34.2163 24.0004C34.1544 23.9958 34.0968 24.0749 34.0911 24.1782Z" fill="#2E353A"/>
<path d="M34.1868 24.0063L34.4215 23.9515C34.4215 23.9515 34.2919 24.1324 34.1868 24.0063Z" fill="#2E353A"/>
<path d="M33.1016 23.9396L33.3363 23.8834C33.3363 23.8834 33.2067 24.0658 33.1016 23.9396Z" fill="#2E353A"/>
<path d="M33.8688 25.3755C33.8688 25.3755 33.6038 25.2432 32.8132 25.1049C32.8406 25.4211 32.9572 25.6932 33.3662 25.7631C33.4742 25.782 33.585 25.7569 33.6762 25.6928C33.7673 25.6287 33.8321 25.5305 33.8572 25.418C33.8616 25.4028 33.8659 25.3861 33.8688 25.3755Z" fill="#2E353A"/>
<path d="M33.2309 25.4931C33.3897 25.5095 33.5366 25.5895 33.6413 25.7165C33.5582 25.7641 33.462 25.7797 33.3692 25.7606C33.2108 25.7451 33.0643 25.6656 32.9602 25.5387C33.0421 25.489 33.1384 25.4728 33.2309 25.4931Z" fill="#882B29"/>
<path d="M33.839 25.3636C33.8255 25.397 33.8041 25.4261 33.7769 25.4482C33.7496 25.4703 33.7175 25.4846 33.6835 25.4898C33.4499 25.4462 33.2209 25.379 32.9995 25.2892C32.9623 25.2759 32.9292 25.2522 32.9039 25.2206C32.8785 25.189 32.8618 25.1507 32.8555 25.1098C33.1902 25.1614 33.5195 25.2464 33.839 25.3636Z" fill="white"/>
<path d="M31.4297 24.1356C31.5887 24.046 31.7253 23.9179 31.8282 23.7617C31.9311 23.6055 31.9973 23.4258 32.0215 23.2372C32.0906 22.6034 32.6983 22.7159 32.6983 22.7159C32.6983 22.7159 34.4494 23.3239 34.9591 22.6323C35.4689 21.9407 34.4076 21.9848 34.4076 21.9848C34.4076 21.9848 34.8396 20.8068 33.7754 21.4497C33.7754 21.4497 32.4593 20.6669 31.5478 21.4421C30.0746 22.6961 30.8436 24.0368 30.8436 24.0368C30.8436 24.0368 30.2676 24.8424 30.9732 24.8469C30.9732 24.8469 30.5412 25.119 30.9732 25.3972C31.6529 25.8304 31.4297 24.1356 31.4297 24.1356Z" fill="#263238"/>
<path d="M34.4952 22.915C32.8507 22.2279 31.4495 22.842 30.6964 23.6491C30.6964 23.6734 30.6964 23.6917 30.6892 23.7069C30.6771 23.7719 30.6855 23.8393 30.7131 23.8989C30.7406 23.9584 30.7858 24.0068 30.8419 24.0367C30.9153 23.9622 32.4662 22.3252 34.5067 23.2874C34.5067 23.2874 34.6089 23.2129 34.6003 23.146C34.5916 23.0791 34.5715 22.953 34.4952 22.915Z" fill="#FF7F61"/>
<path d="M30.2637 26.3783L29.9267 25.6958C29.8919 25.6187 29.8373 25.5534 29.7691 25.5075C29.7008 25.4615 29.6217 25.4367 29.5408 25.4359H28.1959C28.1152 25.4379 28.0366 25.4632 27.9685 25.509C27.9005 25.5549 27.8457 25.6195 27.8099 25.6958L27.473 26.3753C27.4339 26.4554 27.4136 26.5443 27.4136 26.6344C27.4136 26.7246 27.4339 26.8134 27.473 26.8936L27.8099 27.573C27.8457 27.6494 27.9005 27.714 27.9685 27.7598C28.0366 27.8056 28.1152 27.8309 28.1959 27.833H29.5408C29.6217 27.8321 29.7008 27.8073 29.7691 27.7614C29.8373 27.7154 29.8919 27.6502 29.9267 27.573L30.2637 26.8936C30.3022 26.8138 30.3224 26.7255 30.3224 26.636C30.3224 26.5464 30.3022 26.4581 30.2637 26.3783Z" fill="#FF7F61"/>
<path opacity="0.2" d="M30.2637 26.3783L29.9267 25.6958C29.8919 25.6187 29.8373 25.5534 29.7691 25.5075C29.7008 25.4615 29.6217 25.4367 29.5408 25.4359H28.1959C28.1152 25.4379 28.0366 25.4632 27.9685 25.509C27.9005 25.5549 27.8457 25.6195 27.8099 25.6958L27.473 26.3753C27.4339 26.4554 27.4136 26.5443 27.4136 26.6344C27.4136 26.7246 27.4339 26.8134 27.473 26.8936L27.8099 27.573C27.8457 27.6494 27.9005 27.714 27.9685 27.7598C28.0366 27.8056 28.1152 27.8309 28.1959 27.833H29.5408C29.6217 27.8321 29.7008 27.8073 29.7691 27.7614C29.8373 27.7154 29.8919 27.6502 29.9267 27.573L30.2637 26.8936C30.3022 26.8138 30.3224 26.7255 30.3224 26.636C30.3224 26.5464 30.3022 26.4581 30.2637 26.3783Z" fill="black"/>
<path d="M29.5193 25.4359H28.8972C28.8119 25.4361 28.7282 25.461 28.6553 25.5079C28.5825 25.5548 28.5232 25.6219 28.4839 25.7019L28.134 26.4057C28.0995 26.4762 28.0815 26.5543 28.0815 26.6337C28.0815 26.713 28.0995 26.7912 28.134 26.8617L28.4839 27.567C28.5235 27.6466 28.5829 27.7133 28.6557 27.7599C28.7285 27.8065 28.812 27.8312 28.8972 27.8314H29.5193C29.6047 27.8315 29.6885 27.8069 29.7616 27.7603C29.8347 27.7136 29.8943 27.6468 29.934 27.567L30.2825 26.8617C30.3177 26.7914 30.3361 26.7131 30.3361 26.6337C30.3361 26.5542 30.3177 26.4759 30.2825 26.4057L29.934 25.7019C29.8946 25.6217 29.8351 25.5544 29.762 25.5075C29.6888 25.4606 29.6049 25.4358 29.5193 25.4359Z" fill="#FF7F61"/>
<path d="M41.6839 33.7138C41.4895 33.9631 40.7954 33.7031 40.1344 33.1301C39.4735 32.5571 39.0962 31.8898 39.2906 31.639C39.485 31.3882 40.1791 31.6496 40.84 32.2227C41.501 32.7957 41.8783 33.463 41.6839 33.7138Z" fill="#FF7F61"/>
<path opacity="0.2" d="M41.6839 33.7138C41.4895 33.9631 40.7954 33.7031 40.1344 33.1301C39.4735 32.5571 39.0962 31.8898 39.2906 31.639C39.485 31.3882 40.1791 31.6496 40.84 32.2227C41.501 32.7957 41.8783 33.463 41.6839 33.7138Z" fill="black"/>
<path d="M43.0656 34.5931L43.1996 33.8331C43.2158 33.7465 43.2097 33.6569 43.1818 33.5737C43.154 33.4906 43.1054 33.4168 43.0412 33.3603L41.9468 32.4119C41.8819 32.3564 41.804 32.3206 41.7214 32.308C41.6387 32.2954 41.5544 32.3066 41.4773 32.3404L40.7948 32.6277C40.7151 32.6618 40.6448 32.7164 40.5902 32.7864C40.5357 32.8565 40.4986 32.9399 40.4823 33.029L40.3484 33.789C40.3322 33.8755 40.3384 33.9651 40.3663 34.0482C40.3942 34.1314 40.4427 34.2051 40.5068 34.2617L41.6012 35.2102C41.6661 35.2656 41.744 35.3015 41.8266 35.3141C41.9092 35.3266 41.9935 35.3154 42.0706 35.2816L42.7532 34.9943C42.8328 34.9602 42.9031 34.9057 42.9577 34.8356C43.0123 34.7655 43.0494 34.6821 43.0656 34.5931Z" fill="#FF7F61"/>
<path opacity="0.2" d="M43.0656 34.5931L43.1996 33.8331C43.2158 33.7465 43.2097 33.6569 43.1818 33.5737C43.154 33.4906 43.1054 33.4168 43.0412 33.3603L41.9468 32.4119C41.8819 32.3564 41.804 32.3206 41.7214 32.308C41.6387 32.2954 41.5544 32.3066 41.4773 32.3404L40.7948 32.6277C40.7151 32.6618 40.6448 32.7164 40.5902 32.7864C40.5357 32.8565 40.4986 32.9399 40.4823 33.029L40.3484 33.789C40.3322 33.8755 40.3384 33.9651 40.3663 34.0482C40.3942 34.1314 40.4427 34.2051 40.5068 34.2617L41.6012 35.2102C41.6661 35.2656 41.744 35.3015 41.8266 35.3141C41.9092 35.3266 41.9935 35.3154 42.0706 35.2816L42.7532 34.9943C42.8328 34.9602 42.9031 34.9057 42.9577 34.8356C43.0123 34.7655 43.0494 34.6821 43.0656 34.5931Z" fill="black"/>
<path d="M43.0339 33.351L42.5054 32.895C42.4388 32.8375 42.3588 32.7998 42.2737 32.7859C42.1886 32.772 42.1015 32.7824 42.0216 32.816L41.3275 33.1063C41.2533 33.1389 41.188 33.1906 41.1377 33.2567C41.0874 33.3229 41.0536 33.4013 41.0395 33.4848L40.9027 34.26C40.8869 34.3492 40.8941 34.4412 40.9235 34.5265C40.9529 34.6118 41.0034 34.6872 41.0697 34.7449L41.5982 35.2009C41.6646 35.2583 41.7444 35.2959 41.8292 35.3098C41.914 35.3237 42.0008 35.3134 42.0806 35.2799L42.7675 34.9881C42.8415 34.9556 42.9066 34.9042 42.957 34.8383C43.0073 34.7725 43.0411 34.6943 43.0555 34.6111L43.1923 33.8344C43.2086 33.7462 43.2026 33.6551 43.1747 33.5702C43.1469 33.4853 43.0983 33.4097 43.0339 33.351Z" fill="#FF7F61"/>
</g>
<defs>
<clipPath id="clip0_1_3733">
<rect width="72" height="76" fill="white"/>
</clipPath>
</defs>
</svg>
