<svg width="16" height="15" viewBox="0 0 16 15" fill="none" xmlns="http://www.w3.org/2000/svg">
<path d="M14.4568 6.7943C14.4592 7.74339 14.2374 8.67962 13.8095 9.52677C13.302 10.542 12.5218 11.3959 11.5564 11.9929C10.5911 12.5898 9.47855 12.9062 8.34352 12.9066C7.39443 12.909 6.4582 12.6872 5.61106 12.2592L1.51184 13.626L2.87859 9.52677C2.45102 8.67954 2.22957 7.74331 2.23226 6.7943C2.23257 5.65938 2.54881 4.54695 3.14556 3.58157C3.7423 2.6162 4.596 1.836 5.61106 1.32834C6.4582 0.900417 7.39443 0.678612 8.34352 0.680988H8.70271C10.2016 0.763817 11.6173 1.39654 12.6788 2.45803C13.7403 3.51952 14.373 4.9352 14.4558 6.43409L14.4568 6.7943Z" stroke="#FCFCFB" stroke-width="1.23501" stroke-linecap="round" stroke-linejoin="round"/>
</svg>
