<svg width="15" height="14" viewBox="0 0 15 14" fill="none" xmlns="http://www.w3.org/2000/svg">
<path d="M12.8904 2.25059C12.5759 1.93598 12.2026 1.68641 11.7917 1.51613C11.3807 1.34586 10.9403 1.25822 10.4955 1.25822C10.0507 1.25822 9.61023 1.34586 9.19931 1.51613C8.78838 1.68641 8.41504 1.93598 8.10059 2.25059L7.44809 2.9072L6.7956 2.2547C6.48209 1.93569 6.10851 1.68192 5.69641 1.50806C5.28431 1.3342 4.84185 1.24368 4.39458 1.24173C3.94731 1.23978 3.50409 1.32644 3.09049 1.4967C2.67689 1.66697 2.30111 1.91746 1.98483 2.23374C1.66856 2.55001 1.41807 2.92579 1.2478 3.33939C1.07754 3.75299 0.990881 4.19622 0.99283 4.64349C0.99478 5.09076 1.0853 5.53321 1.25916 5.94531C1.43302 6.35741 1.68679 6.731 2.0058 7.0445L2.6583 7.697L7.44809 12.4786L12.2379 7.69288L12.8904 7.04038C13.205 6.72594 13.4546 6.35259 13.6248 5.94166C13.7951 5.53074 13.8828 5.09029 13.8828 4.64548C13.8828 4.20068 13.7951 3.76023 13.6248 3.3493C13.4546 2.93838 13.205 2.56503 12.8904 2.25059Z" stroke="#FCFCFB" stroke-width="1.23501" stroke-linecap="round" stroke-linejoin="round"/>
</svg>
