<svg width="17" height="18" viewBox="0 0 17 18" fill="none" xmlns="http://www.w3.org/2000/svg">
<path d="M13.9284 4.9886C13.9284 5.3528 13.8204 5.70882 13.618 6.01162C13.4156 6.31443 13.128 6.55042 12.7915 6.68974C12.455 6.82907 12.0848 6.86547 11.7276 6.79434C11.3704 6.72322 11.0423 6.54776 10.7849 6.29016C10.5274 6.03256 10.3522 5.70439 10.2812 5.34717C10.2103 4.98994 10.2469 4.61971 10.3864 4.28329C10.5259 3.94687 10.7621 3.65939 11.065 3.4572C11.3679 3.25501 11.724 3.1472 12.0882 3.1474C12.5763 3.14767 13.0444 3.34178 13.3895 3.68704C13.7345 4.0323 13.9284 4.50046 13.9284 4.9886V4.9886Z" stroke="#FCFCFB" stroke-width="1.23501" stroke-linecap="round" stroke-linejoin="round"/>
<path d="M6.56484 9.21083C6.56484 9.57503 6.45683 9.93104 6.25448 10.2338C6.05212 10.5367 5.7645 10.7726 5.428 10.912C5.09151 11.0513 4.72125 11.0877 4.36407 11.0166C4.00688 10.9454 3.67881 10.77 3.42136 10.5124C3.1639 10.2548 2.98863 9.92662 2.9177 9.5694C2.84677 9.21217 2.88338 8.84194 3.0229 8.50552C3.16241 8.1691 3.39856 7.88162 3.70148 7.67943C4.0044 7.47724 4.36048 7.36943 4.72468 7.36963C5.21281 7.3699 5.68087 7.56401 6.02593 7.90927C6.371 8.25453 6.56485 8.72269 6.56484 9.21083V9.21083Z" stroke="#FCFCFB" stroke-width="1.23501" stroke-linecap="round" stroke-linejoin="round"/>
<path d="M13.9284 13.4341C13.9284 13.7983 13.8204 14.1543 13.618 14.4571C13.4156 14.7599 13.128 14.9959 12.7915 15.1352C12.455 15.2746 12.0848 15.311 11.7276 15.2398C11.3704 15.1687 11.0423 14.9933 10.7849 14.7357C10.5274 14.4781 10.3522 14.1499 10.2812 13.7927C10.2103 13.4354 10.2469 13.0652 10.3864 12.7288C10.5259 12.3924 10.7621 12.1049 11.065 11.9027C11.3679 11.7005 11.724 11.5927 12.0882 11.5929C12.5763 11.5932 13.0444 11.7873 13.3895 12.1325C13.7345 12.4778 13.9284 12.946 13.9284 13.4341V13.4341Z" stroke="#FCFCFB" stroke-width="1.23501" stroke-linecap="round" stroke-linejoin="round"/>
<path d="M6.31372 10.1054L10.5045 12.5476" stroke="#FCFCFB" stroke-width="1.23501" stroke-linecap="round" stroke-linejoin="round"/>
<path d="M10.4984 5.87408L6.31372 8.31632" stroke="#FCFCFB" stroke-width="1.23501" stroke-linecap="round" stroke-linejoin="round"/>
</svg>
