<svg width="367" height="367" viewBox="0 0 367 367" fill="none" xmlns="http://www.w3.org/2000/svg">
<path d="M116.897 47.365H94.73V77.0993H116.897V47.365Z" fill="#EBEBEB"/>
<path d="M115.744 48.532H95.8823V75.9249H115.744V48.532Z" fill="#455A64"/>
<path d="M109.902 58.008H102.32V66.6692H109.902V58.008Z" fill="#E0E0E0"/>
<path d="M318.101 84.432H279.793V135.812H318.101V84.432Z" fill="#EBEBEB"/>
<path d="M316.112 86.4505H281.79V133.794H316.112V86.4505Z" fill="#FAFAFA"/>
<path d="M306.012 102.826H292.91V117.8H306.012V102.826Z" fill="#EBEBEB"/>
<path d="M76.6369 66.4637H39.313V116.53H76.6369V66.4637Z" fill="#E0E0E0"/>
<path d="M74.6991 68.4308H41.2581V114.563H74.6991V68.4308Z" fill="#455A64"/>
<path d="M68.8417 99.457C68.9812 99.9194 68.7757 100.477 68.1518 101.042C67.2713 101.755 66.2131 102.215 65.091 102.371C63.4284 102.656 61.7219 102.537 60.1145 102.026C58.0596 101.387 56.2178 100.2 54.7874 98.5925C53.357 96.9849 52.392 95.0176 51.9964 92.9024C51.6623 91.2463 51.7328 89.5341 52.202 87.9112C52.4874 86.8154 53.0659 85.8182 53.8755 85.0265C54.0755 84.7936 54.338 84.6229 54.6319 84.5344C54.9259 84.446 55.239 84.4435 55.5343 84.5274C56.4518 84.9385 56.6794 86.4505 57.2299 88.1974C57.7687 90.2607 58.7505 92.1819 60.1071 93.8272C61.5849 95.3679 63.3809 96.5677 65.3699 97.3431C67.0655 98.0917 68.5408 98.4954 68.8417 99.457Z" fill="#EBEBEB"/>
<path d="M68.0638 99.09C67.7811 99.1641 67.4899 99.2011 67.1976 99.2C66.4041 99.2351 65.6091 99.1835 64.8268 99.0459C62.199 98.6208 59.7828 97.3464 57.9482 95.4176C56.1135 93.4888 54.9614 91.012 54.6683 88.3662C54.5819 87.5758 54.5819 86.7784 54.6683 85.9881C54.6842 85.6966 54.736 85.4081 54.8224 85.1293C54.7934 86.2006 54.8425 87.2726 54.9692 88.3368C55.3258 90.8983 56.4763 93.2836 58.259 95.1572C60.0418 97.0307 62.3669 98.2983 64.9076 98.7817C65.9511 98.9582 67.0058 99.0612 68.0638 99.09Z" fill="#E0E0E0"/>
<path d="M54.3967 84.8871C54.7828 84.0054 55.0827 83.0886 55.2922 82.1492L57.0978 82.597C56.2964 83.4137 55.828 84.4997 55.784 85.6431" fill="#EBEBEB"/>
<path d="M345.09 342.404C345.09 342.521 274.883 342.609 188.3 342.609C101.718 342.609 31.5032 342.521 31.5032 342.404C31.5032 342.286 101.688 342.205 188.3 342.205C274.912 342.205 345.09 342.294 345.09 342.404Z" fill="#263238"/>
<path d="M336.803 190.84L308.867 190.708L300.58 276.909L267.675 276.769V281.981H272.167L274.795 342.484L276.593 342.33L275.859 319.004L298.907 301.674L323.4 321.786L323.261 342.602L325.059 342.543L326.241 282.355H328.443L328.553 276.982H328.45L336.803 190.84ZM320.222 282.348L298.775 299.171L277.679 282.047L320.222 282.348ZM275.815 317.176L274.736 282.025H274.964L297.27 300.345L275.815 317.176ZM300.441 300.522L323.694 283.023L323.452 319.18L300.441 300.522Z" fill="#455A64"/>
<path d="M299.142 246H147.761V253.318H299.142V246Z" fill="#263238"/>
<path d="M165.59 253.318H162.052V342.609H165.59V253.318Z" fill="#263238"/>
<path d="M282.649 253.318H279.111V342.609H282.649V253.318Z" fill="#263238"/>
<path d="M274.861 231.548C274.707 231.548 274.67 230.814 274.7 229.661C274.754 228.202 274.687 226.742 274.502 225.294C274.452 224.535 274.273 223.791 273.973 223.092C273.741 222.58 273.335 222.167 272.828 221.925C271.918 221.492 271.279 221.873 271.184 221.741C271.088 221.609 271.228 221.492 271.551 221.301C272.026 221.052 272.579 220.999 273.092 221.154C273.473 221.261 273.829 221.443 274.139 221.689C274.449 221.934 274.707 222.239 274.898 222.585C275.321 223.38 275.571 224.256 275.632 225.154C275.731 225.992 275.77 226.836 275.749 227.679C275.719 228.37 275.636 229.057 275.5 229.735C275.25 230.894 275.015 231.57 274.861 231.548Z" fill="#263238"/>
<path d="M264.394 219.341L263.763 218.24L264.754 217.763L265.664 218.181L265.238 219.415L264.394 219.341Z" fill="#263238"/>
<path d="M255.902 246.294L259.498 233.368L256.518 224.443L252.834 221.484L271.881 220.919L270.773 232.957L275.177 246.294H255.902Z" fill="#5531AA"/>
<path d="M256.907 221.044L264.644 219.282L271.881 220.919L256.907 221.044Z" fill="#5531AA"/>
<path d="M259.498 233.368L270.773 232.957L270.898 231.548H259.065L259.498 233.368Z" fill="#263238"/>
<path d="M271.984 220.934C269.525 221.123 267.058 221.187 264.592 221.125C262.127 221.187 259.66 221.123 257.201 220.934C259.66 220.741 262.127 220.677 264.592 220.743C267.058 220.677 269.525 220.741 271.984 220.934Z" fill="#263238"/>
<path d="M261.121 246.184C261.225 243.971 261.453 241.765 261.803 239.578C262.035 237.379 262.39 235.196 262.868 233.038C262.772 235.251 262.544 237.457 262.185 239.644C261.954 241.842 261.599 244.025 261.121 246.184Z" fill="#263238"/>
<path d="M269.415 246.484C269.135 245.875 268.921 245.238 268.776 244.583C268.446 243.394 268.042 241.736 267.675 239.886C267.308 238.036 267.066 236.341 266.941 235.115C266.827 234.456 266.786 233.786 266.816 233.118C267.001 233.76 267.134 234.415 267.213 235.078C267.411 236.289 267.705 237.97 268.064 239.812C268.424 241.655 268.798 243.314 269.055 244.517C269.229 245.162 269.35 245.82 269.415 246.484Z" fill="#263238"/>
<path d="M254.75 198.107C254.75 198.107 254.838 198.107 254.97 198.239C255.153 198.403 255.29 198.614 255.366 198.848C255.49 199.216 255.528 199.608 255.476 199.993C255.395 200.497 255.254 200.99 255.058 201.461C254.822 201.992 254.702 202.568 254.706 203.149C254.751 203.81 254.963 204.449 255.322 205.006C255.723 205.645 256.157 206.262 256.621 206.856C257.15 207.516 257.565 208.26 257.847 209.058C257.988 209.467 258.046 209.901 258.019 210.333C257.991 210.765 257.878 211.187 257.686 211.575C257.322 212.267 256.857 212.901 256.306 213.455C255.293 214.489 254.405 215.48 254.221 216.537C254.151 216.942 254.187 217.357 254.326 217.743C254.465 218.129 254.702 218.473 255.014 218.739C255.27 218.912 255.56 219.027 255.865 219.077C255.865 219.077 255.784 219.077 255.616 219.077C255.371 219.054 255.137 218.971 254.933 218.835C254.563 218.567 254.275 218.201 254.101 217.778C253.927 217.355 253.875 216.893 253.949 216.442C254.126 215.275 255.058 214.196 256.041 213.161C256.56 212.639 256.998 212.043 257.341 211.392C257.512 211.046 257.613 210.669 257.638 210.284C257.663 209.898 257.612 209.512 257.487 209.146C257.213 208.397 256.819 207.698 256.32 207.076C255.858 206.437 255.388 205.828 255.014 205.182C254.645 204.621 254.431 203.972 254.395 203.302C254.359 202.631 254.502 201.963 254.808 201.366C255.007 200.923 255.16 200.46 255.263 199.986C255.34 199.632 255.34 199.267 255.263 198.914C255.163 198.606 254.986 198.328 254.75 198.107Z" fill="#E0E0E0"/>
<path d="M258.229 201.982C258.265 201.982 258.119 202.217 258.067 202.665C258.012 203.295 258.142 203.928 258.442 204.485C258.933 205.305 259.496 206.082 260.122 206.804C260.886 207.778 261.265 208.998 261.187 210.232C261.14 210.87 260.97 211.493 260.688 212.067C260.419 212.585 260.08 213.064 259.682 213.491C259.001 214.159 258.393 214.897 257.869 215.693C257.534 216.231 257.352 216.85 257.341 217.484C257.341 217.932 257.458 218.174 257.421 218.181C257.277 217.98 257.198 217.739 257.194 217.492C257.144 216.819 257.295 216.148 257.627 215.561C258.136 214.728 258.736 213.955 259.418 213.256C260.215 212.426 260.704 211.349 260.805 210.203C260.88 209.049 260.536 207.908 259.836 206.988C259.211 206.243 258.662 205.436 258.199 204.58C257.904 203.972 257.806 203.287 257.92 202.621C257.96 202.441 258.024 202.268 258.111 202.107C258.177 202.026 258.221 201.975 258.229 201.982Z" fill="#E0E0E0"/>
<path d="M243.394 35.7825H135.438V229.727H243.394V35.7825Z" fill="#455A64"/>
<path d="M237.963 41.4049H139.746V223.943H237.963V41.4049Z" fill="#FAFAFA"/>
<path d="M247.96 231.467L243.395 229.72V32.4942H247.96V231.467Z" fill="#263238"/>
<path d="M163.829 159.315L189.372 135.606C192.602 132.604 196.83 129.367 200.984 130.843C202.988 131.577 204.492 133.265 206.452 134.08C210.364 135.709 214.842 133.346 217.851 130.366C220.861 127.386 223.239 123.642 226.887 121.477C230.535 119.312 236.201 119.583 238.007 123.422V149.23L200.896 165.099L163.829 159.315Z" fill="#F5F5F5"/>
<path d="M139.746 144.481C149.149 140.656 158.529 143.908 165.253 151.505C166.669 153.105 167.961 154.955 169.906 155.836C172.541 157.032 175.588 156.136 178.458 155.836C182.407 155.446 186.387 156.156 189.958 157.886C193.529 159.617 196.552 162.301 198.694 165.642L167.308 181.056L139.746 180.858V144.481Z" fill="#E0E0E0"/>
<path d="M237.97 144.598C231.775 141.611 226.329 145.222 220.618 149.053C214.908 152.885 209.608 157.788 202.9 159.329C198.422 160.357 193.622 159.784 189.299 161.326C180.491 164.467 175.353 175.661 166.038 176.197C160.966 176.49 156.415 173.415 151.887 171.103C147.358 168.791 143.813 166.603 139.746 169.693V223.943H237.97V144.598Z" fill="#EBEBEB"/>
<path d="M229.44 97.6158C231.478 88.9002 226.064 80.1828 217.348 78.1449C208.633 76.1071 199.915 81.5206 197.878 90.2362C195.84 98.9519 201.253 107.669 209.969 109.707C218.684 111.745 227.402 106.331 229.44 97.6158Z" fill="#E0E0E0"/>
<path d="M240.099 93.9153H139.746V95.8604H240.099V93.9153Z" fill="#455A64"/>
<path d="M240.099 137.383H139.746V139.328H240.099V137.383Z" fill="#455A64"/>
<path d="M240.099 180.858H139.746V182.803H240.099V180.858Z" fill="#455A64"/>
<path d="M186.377 94.8842V229.118H191.339V94.8842H186.377Z" fill="#455A64"/>
<path d="M160.907 41.4049H158.661V94.8915H160.907V41.4049Z" fill="#455A64"/>
<path d="M180.3 41.4049H178.054V94.8915H180.3V41.4049Z" fill="#455A64"/>
<path d="M199.685 41.4049H197.439V94.8915H199.685V41.4049Z" fill="#455A64"/>
<path d="M219.077 41.4049H216.831V94.8915H219.077V41.4049Z" fill="#455A64"/>
<path d="M135.43 32.4942H130.865V230.924H135.43V32.4942Z" fill="#263238"/>
<path d="M247.96 30.4904H130.865V35.7825H247.96V30.4904Z" fill="#263238"/>
<path d="M251.05 232.12H127.628V237.053H251.05V232.12Z" fill="#455A64"/>
<path d="M243.394 229.72L251.05 232.12H127.628L135.43 229.72H243.394Z" fill="#263238"/>
<path d="M119.326 163.388C119.326 163.388 127.863 164.497 128.377 178.479C128.89 192.462 129.72 204.169 129.72 204.169L117.77 202.701L116.64 187.089L119.326 163.41" fill="#FFBE9D"/>
<path d="M69.3704 226.417L72.967 343.094H83.9036L88.3076 230.425L69.3704 226.417Z" fill="#FFBE9D"/>
<path d="M87.5 229.573L92.0581 284.462L58.6758 321.69L63.4027 334.168L101.292 297.549C105.333 293.643 107.75 288.356 108.059 282.744L110.834 233.412L87.5 229.573Z" fill="#FFBE9D"/>
<path d="M86.1788 291.295C86.0388 291.534 85.8658 291.751 85.665 291.941C85.3127 292.345 84.7915 292.91 84.1383 293.607L79.0003 298.973C76.9965 301.065 75.2422 303.017 73.9871 304.449L72.5191 306.144C72.1667 306.54 71.9612 306.761 71.9392 306.739C72.0671 306.492 72.2222 306.261 72.4016 306.049C72.7172 305.623 73.187 305.014 73.7889 304.272C74.9926 302.804 76.7249 300.808 78.7287 298.709C80.7325 296.609 82.6042 294.752 83.9548 293.416L85.5622 291.838C85.7494 291.637 85.9559 291.456 86.1788 291.295Z" fill="#EB996E"/>
<path d="M86.9716 311.275C86.8237 311.498 86.6486 311.703 86.4505 311.884L84.9825 313.477C83.698 314.805 81.9437 316.67 79.8445 318.541C77.7453 320.413 75.7855 322.057 74.5083 323.393C73.2312 324.729 72.5045 325.595 72.4531 325.595C72.577 325.354 72.7272 325.128 72.9009 324.92C73.2165 324.509 73.6862 323.922 74.3101 323.232C75.9598 321.469 77.7227 319.817 79.5876 318.284C81.7015 316.427 83.4851 314.614 84.821 313.315C85.4816 312.669 86.0321 312.156 86.4138 311.811C86.5785 311.611 86.7657 311.431 86.9716 311.275Z" fill="#EB996E"/>
<path d="M62.7716 334.799L71.5796 326.124L65.414 313.756L55.5637 324.707L55.9601 325.617C56.995 329.148 60.8852 341.545 62.4046 343.615C64.1075 345.92 62.7716 334.799 62.7716 334.799Z" fill="#5531AA"/>
<path d="M63.403 339.93C63.3442 340.025 62.7644 339.717 61.9937 339.688C61.223 339.658 60.6138 339.893 60.5624 339.798C60.511 339.702 61.1129 339.262 62.0304 339.306C62.9479 339.35 63.4764 339.842 63.403 339.93Z" fill="#263238"/>
<path d="M57.5456 322.182C57.5456 322.182 57.9934 322.351 58.4558 322.916C59.0636 323.687 59.3476 324.664 59.2476 325.641C59.1476 326.618 58.6715 327.518 57.92 328.149C57.6387 328.438 57.2742 328.63 56.8777 328.7C56.8777 328.641 57.252 328.45 57.7365 327.966C58.3757 327.34 58.7756 326.509 58.8668 325.619C58.958 324.729 58.7346 323.835 58.2356 323.092C57.8612 322.505 57.5016 322.226 57.5456 322.182Z" fill="#263238"/>
<path d="M70.6546 327.584C70.2143 327.062 69.8281 326.496 69.5023 325.896C68.8417 324.81 67.9755 323.29 67.0727 321.573C66.1699 319.855 65.4139 318.277 64.8707 317.117C64.5605 316.506 64.3145 315.864 64.1367 315.202C64.5128 315.775 64.8441 316.376 65.1276 317L67.3957 321.404C68.2765 323.048 69.0692 324.538 69.7225 325.771C70.0838 326.348 70.3957 326.955 70.6546 327.584Z" fill="#263238"/>
<path d="M72.9668 343.094C72.9668 343.094 85.8632 352.636 88.3074 352.004C91.1406 351.27 83.9034 343.094 83.9034 343.094H72.9668Z" fill="#5531AA"/>
<path d="M72.4897 332.553H84.5053L83.9034 343.094H72.9668L72.4897 332.553Z" fill="#5531AA"/>
<path d="M84.021 334.183C82.0967 334.372 80.1623 334.436 78.2297 334.374C76.2972 334.436 74.3627 334.372 72.4385 334.183C74.3627 333.994 76.2972 333.93 78.2297 333.992C80.1623 333.93 82.0967 333.994 84.021 334.183Z" fill="#263238"/>
<path d="M75.6019 345.068C75.4765 344.248 75.1869 343.462 74.7504 342.756C74.226 342.113 73.58 341.579 72.8494 341.185C72.8494 341.141 73.165 341.149 73.5834 341.339C74.1618 341.599 74.661 342.008 75.0298 342.524C75.3986 343.039 75.6239 343.644 75.6826 344.275C75.734 344.782 75.6386 345.075 75.6019 345.068Z" fill="#263238"/>
<path d="M88.3075 349.09C87.5678 349.086 86.8298 349.16 86.1055 349.311C85.426 349.57 84.7744 349.897 84.1604 350.287C84.5982 349.637 85.2501 349.161 86.0025 348.943C86.755 348.724 87.5603 348.776 88.2781 349.09H88.3075Z" fill="#263238"/>
<path d="M83.9036 163.388C83.9036 163.388 79.661 163.726 76.1452 174.846C72.6293 185.966 67.6675 199.802 67.6675 199.802L83.9036 197.446V163.388Z" fill="#FFBE9D"/>
<path d="M116.104 191.633L116.64 195.369L131.276 194.591L128.465 174.773C128.465 174.773 127.613 166.016 119.326 162.764C118.989 162.632 118.644 162.515 118.284 162.405C107.105 158.529 96.6457 158.551 84.9971 162.53C84.9971 162.53 79.8591 163.917 77.3121 170.67C74.7651 177.422 70.7061 189.159 70.7061 189.159L83.9181 191.442L83.9915 189.482V197.446L80.6885 203.369C76.3652 207.935 67.9683 218.152 67.7187 228.795C67.6086 233.603 67.4324 242.315 68.049 247.468C68.049 247.468 80.7545 259.175 112.177 258.852L114.027 211.392L114.482 206.173L116.104 191.633Z" fill="#5531AA"/>
<path d="M113.997 130.469C115.766 132.436 115.92 135.607 115.693 138.271C115.465 140.935 114.878 143.578 115.421 146.169C115.656 147.262 116.082 148.312 116.273 149.413C116.404 149.958 116.423 150.524 116.33 151.076C116.236 151.629 116.032 152.156 115.73 152.628C115.404 153.078 114.921 153.388 114.377 153.497C113.832 153.606 113.267 153.505 112.794 153.215C112.57 153.994 112.209 154.727 111.729 155.38C111.487 155.705 111.163 155.96 110.791 156.12C110.418 156.28 110.01 156.339 109.608 156.291C108.47 156.078 107.553 154.735 106.452 155.102C105.777 155.329 105.476 156.1 105.035 156.658C104.717 157.07 104.295 157.391 103.813 157.587C103.33 157.782 102.804 157.846 102.288 157.771C101.773 157.697 101.286 157.486 100.879 157.161C100.472 156.837 100.158 156.41 99.9706 155.924C99.8459 155.623 99.7431 155.256 99.4422 155.116C98.9063 154.867 98.4366 155.513 97.9742 155.85C97.6915 156.082 97.3445 156.221 96.9801 156.249C96.6158 156.277 96.2516 156.192 95.9369 156.007C95.6222 155.821 95.3722 155.543 95.2206 155.21C95.069 154.878 95.0233 154.507 95.0895 154.147C94.1625 154.915 92.9978 155.338 91.7939 155.344C91.1947 155.33 90.6173 155.116 90.1543 154.735C89.6912 154.355 89.3691 153.83 89.2396 153.245C89.0634 151.953 90.091 150.83 91.0379 149.927C90.2214 149.924 89.4358 149.615 88.8359 149.061C88.5426 148.782 88.3552 148.41 88.3056 148.008C88.2561 147.607 88.3475 147.2 88.5643 146.859C89.1221 146.125 90.2818 146.125 90.9645 145.457C91.6471 144.789 91.6471 143.541 91.5957 142.521C91.4269 139.35 92.4838 136.304 93.7977 133.405C95.0308 130.637 97.9521 127.437 102.268 127.422" fill="#263238"/>
<path d="M96.6457 159.792L95.5227 135.57L105.197 128.23L114.005 132.516C114.005 132.516 114.328 143.585 114.049 148.393C113.77 153.2 108.911 153.722 108.911 153.722C108.911 153.722 109.065 156.371 109.219 159.153C109.314 160.813 108.751 162.444 107.652 163.691C106.552 164.939 105.006 165.703 103.347 165.818C102.51 165.869 101.671 165.754 100.879 165.478C100.086 165.201 99.3573 164.77 98.7335 164.209C98.1097 163.648 97.6039 162.969 97.2454 162.21C96.887 161.452 96.6831 160.63 96.6457 159.792Z" fill="#FFBE9D"/>
<path d="M113.095 140.576C113.095 140.698 113.059 140.817 112.991 140.918C112.923 141.02 112.827 141.099 112.714 141.145C112.601 141.192 112.477 141.204 112.358 141.18C112.238 141.157 112.128 141.098 112.042 141.012C111.956 140.925 111.897 140.816 111.873 140.696C111.85 140.576 111.862 140.452 111.909 140.34C111.955 140.227 112.034 140.131 112.136 140.063C112.237 139.995 112.356 139.959 112.478 139.959C112.641 139.961 112.797 140.027 112.912 140.142C113.027 140.257 113.093 140.413 113.095 140.576Z" fill="#263238"/>
<path d="M113.689 139.9C113.609 139.981 113.153 139.599 112.493 139.563C111.832 139.526 111.333 139.849 111.267 139.761C111.201 139.673 111.311 139.577 111.531 139.431C111.821 139.237 112.167 139.144 112.515 139.166C112.863 139.182 113.197 139.314 113.462 139.541C113.66 139.71 113.726 139.871 113.689 139.9Z" fill="#263238"/>
<path d="M105.975 140.598C105.975 140.761 105.91 140.918 105.794 141.034C105.679 141.149 105.522 141.214 105.358 141.214C105.195 141.214 105.038 141.149 104.922 141.034C104.807 140.918 104.742 140.761 104.742 140.598C104.742 140.434 104.807 140.277 104.922 140.162C105.038 140.046 105.195 139.981 105.358 139.981C105.522 139.981 105.679 140.046 105.794 140.162C105.91 140.277 105.975 140.434 105.975 140.598Z" fill="#263238"/>
<path d="M106.357 139.922C106.276 140.003 105.821 139.621 105.16 139.585C104.5 139.548 104 139.871 103.934 139.783C103.868 139.695 103.978 139.599 104.199 139.453C104.488 139.259 104.834 139.166 105.182 139.188C105.531 139.204 105.864 139.336 106.129 139.563C106.327 139.739 106.43 139.893 106.357 139.922Z" fill="#263238"/>
<path d="M106.577 146.139C107.587 146.651 108.664 147.02 109.777 147.233C109.532 147.567 109.182 147.811 108.784 147.925C108.385 148.039 107.96 148.018 107.575 147.864C107.394 147.821 107.223 147.741 107.073 147.63C106.924 147.519 106.798 147.378 106.705 147.217C106.611 147.055 106.552 146.876 106.53 146.691C106.508 146.506 106.524 146.318 106.577 146.139Z" fill="white"/>
<path d="M108.962 153.707C106.682 153.617 104.474 152.879 102.598 151.578C102.598 151.578 104.213 155.109 109.028 154.896L108.962 153.707Z" fill="#EB996E"/>
<path d="M108.757 145.508C109.112 145.417 109.476 145.37 109.843 145.369C110.012 145.369 110.173 145.332 110.21 145.207C110.229 145.026 110.196 144.842 110.115 144.679C109.968 144.246 109.814 143.783 109.659 143.306C109.336 142.33 109.065 141.442 108.881 140.796C108.757 140.455 108.673 140.1 108.632 139.739C108.819 140.051 108.962 140.387 109.058 140.737C109.292 141.368 109.593 142.249 109.909 143.225L110.349 144.598C110.449 144.814 110.473 145.057 110.415 145.288C110.391 145.347 110.353 145.4 110.305 145.442C110.256 145.484 110.199 145.514 110.137 145.53C110.042 145.543 109.945 145.543 109.85 145.53C109.486 145.566 109.119 145.559 108.757 145.508Z" fill="#263238"/>
<path d="M114.379 132.186C112.559 135.254 110.445 135.981 107.773 137.28L109.087 135.078C107.6 136.698 105.662 137.836 103.523 138.344L104.536 136.473C102.532 139.247 98.6643 142.418 95.2732 142.682C94.9943 140.693 95.2732 137.339 95.4714 135.342C95.5746 133.32 96.3495 131.391 97.6734 129.859C99.7946 127.584 103.215 127.041 106.327 127.232C109.322 127.408 112.559 128.325 114.232 130.813" fill="#263238"/>
<path d="M96.2567 144.194C96.3246 143.394 96.2348 142.589 95.9925 141.824C95.8595 141.447 95.6291 141.113 95.3248 140.855C95.0204 140.597 94.6531 140.425 94.2602 140.356C93.7991 140.335 93.3464 140.484 92.988 140.775C92.6295 141.066 92.3901 141.478 92.3151 141.934C92.2627 142.393 92.3476 142.858 92.5593 143.27C92.7709 143.681 93.0997 144.021 93.5042 144.246C93.9159 144.457 94.3699 144.573 94.8325 144.584C95.2951 144.596 95.7544 144.502 96.176 144.312" fill="#FFBE9D"/>
<path d="M94.8548 143.504C94.8548 143.446 94.5906 143.57 94.253 143.504C94.0394 143.432 93.8537 143.295 93.7221 143.112C93.5904 142.929 93.5194 142.709 93.519 142.484C93.4995 142.372 93.5046 142.257 93.5337 142.146C93.5628 142.036 93.6154 141.934 93.6878 141.845C93.8343 141.727 94.0209 141.669 94.2089 141.684C94.5686 141.684 94.8182 141.809 94.8402 141.75C94.8622 141.691 94.6787 141.523 94.2456 141.405C94.1088 141.368 93.9655 141.364 93.8267 141.392C93.6879 141.42 93.5574 141.48 93.4456 141.567C93.3185 141.686 93.2221 141.835 93.1646 142C93.1071 142.164 93.0902 142.341 93.1153 142.513C93.1352 142.843 93.2614 143.157 93.4749 143.409C93.5672 143.515 93.6795 143.602 93.8054 143.665C93.9313 143.728 94.0685 143.766 94.2089 143.776C94.686 143.791 94.8915 143.534 94.8548 143.504Z" fill="#EB996E"/>
<path d="M89.548 143.57C89.4838 143.545 89.4175 143.525 89.3498 143.512C89.2542 143.5 89.1571 143.508 89.0648 143.536C88.9725 143.563 88.887 143.61 88.814 143.673C88.7002 143.773 88.6201 143.906 88.5846 144.053C88.5491 144.2 88.56 144.354 88.6158 144.495C88.6892 144.683 88.813 144.847 88.9737 144.968C89.1343 145.09 89.3254 145.165 89.526 145.185C90.0555 145.237 90.5858 145.095 91.019 144.786C91.4521 144.477 91.7587 144.022 91.8821 143.504C91.9704 142.888 91.9253 142.26 91.75 141.662C91.6766 141.339 91.5812 141.016 91.5224 140.664C91.4783 140.311 91.4636 139.955 91.4784 139.599C91.5206 138.259 91.6852 136.925 91.9702 135.614C92.1263 135.044 92.3742 134.504 92.7042 134.014C92.9742 133.579 93.2786 133.167 93.6143 132.781C94.1042 132.227 94.6586 131.734 95.2658 131.313C95.487 131.157 95.7201 131.02 95.9631 130.902L95.787 131.019C95.6769 131.092 95.508 131.21 95.3025 131.364C94.711 131.789 94.1715 132.281 93.6951 132.832C93.3669 133.215 93.0723 133.625 92.8143 134.058C92.4893 134.537 92.2416 135.065 92.0803 135.621C91.8096 136.926 91.6524 138.252 91.6105 139.585C91.5968 139.93 91.6091 140.276 91.6472 140.62C91.7059 140.95 91.8014 141.28 91.8674 141.611C92.0538 142.242 92.0964 142.906 91.9922 143.556C91.8712 144.099 91.5561 144.579 91.106 144.906C90.6559 145.233 90.1019 145.385 89.548 145.332C89.3343 145.309 89.1309 145.228 88.9591 145.099C88.7874 144.97 88.6535 144.797 88.5717 144.598C88.5112 144.441 88.5021 144.269 88.5456 144.107C88.5892 143.945 88.6831 143.801 88.814 143.695C88.8955 143.633 88.9892 143.588 89.0891 143.564C89.189 143.54 89.2928 143.537 89.3938 143.556C89.4457 143.551 89.4979 143.556 89.548 143.57Z" fill="#263238"/>
<path d="M103.545 137.368C104.124 137.175 104.685 136.929 105.219 136.634C106.474 135.88 107.565 134.882 108.427 133.698C109.469 132.326 110.269 130.982 110.922 130.065C111.245 129.602 111.524 129.235 111.722 128.986C111.818 128.861 111.898 128.773 111.957 128.707C112.016 128.641 112.038 128.611 112.045 128.619C111.96 128.759 111.867 128.894 111.766 129.023C111.583 129.279 111.326 129.654 111.032 130.124C110.401 131.056 109.623 132.406 108.573 133.794C107.699 134.992 106.58 135.993 105.292 136.73C104.753 137.045 104.161 137.261 103.545 137.368Z" fill="#455A64"/>
<path d="M116.229 153.105C116.445 152.93 116.639 152.731 116.809 152.511C117.266 151.901 117.469 151.138 117.374 150.382C117.287 149.869 117.075 149.385 116.757 148.973C116.377 148.502 116.022 148.012 115.693 147.505C115.367 146.898 115.239 146.206 115.326 145.523C115.426 144.804 115.603 144.097 115.855 143.416C116.319 142.115 116.622 140.762 116.757 139.387C116.829 138.261 116.672 137.132 116.295 136.069C116.035 135.354 115.716 134.661 115.341 133.999C115.231 133.794 115.128 133.617 115.032 133.456C114.992 133.394 114.96 133.328 114.937 133.258C114.984 133.315 115.025 133.377 115.062 133.441C115.135 133.559 115.26 133.735 115.392 133.97C115.789 134.625 116.126 135.316 116.398 136.032C116.792 137.107 116.962 138.251 116.897 139.394C116.771 140.785 116.468 142.154 115.994 143.468C115.75 144.138 115.575 144.832 115.473 145.538C115.389 146.192 115.51 146.856 115.818 147.439C116.141 147.945 116.488 148.435 116.86 148.907C117.187 149.335 117.4 149.841 117.477 150.375C117.526 150.764 117.497 151.16 117.392 151.538C117.286 151.916 117.105 152.269 116.86 152.577C116.688 152.794 116.473 152.974 116.229 153.105Z" fill="#263238"/>
<path d="M93.9519 140.055C94.13 140.09 94.3045 140.141 94.473 140.209C94.9413 140.39 95.3812 140.637 95.7796 140.943C96.0435 141.151 96.2891 141.382 96.5136 141.633C96.7778 141.897 96.9907 142.235 97.2843 142.499C97.4353 142.64 97.6192 142.74 97.8193 142.792C98.0194 142.843 98.2291 142.843 98.4293 142.792C98.869 142.682 99.2812 142.482 99.6404 142.205C100.973 141.278 102.108 140.095 102.98 138.726C103.247 138.313 103.491 137.887 103.714 137.449C103.779 137.28 103.86 137.118 103.956 136.964C103.956 136.964 103.956 137.008 103.912 137.097C103.87 137.224 103.821 137.349 103.765 137.471C103.567 137.924 103.339 138.362 103.083 138.785C102.23 140.187 101.092 141.395 99.7432 142.33C99.3681 142.621 98.9352 142.829 98.4733 142.939C98.252 142.993 98.0209 142.99 97.8006 142.933C97.5803 142.875 97.3777 142.764 97.2109 142.609C96.8879 142.315 96.6824 141.978 96.4328 141.713C96.2069 141.467 95.9614 141.238 95.6988 141.031C95.3096 140.735 94.8856 140.489 94.4363 140.297C94.1134 140.121 93.9519 140.062 93.9519 140.055Z" fill="#263238"/>
<path d="M94.4509 140.333C94.4958 140.113 94.5673 139.898 94.6638 139.695C94.9121 139.136 95.2548 138.625 95.6767 138.183C96.7117 137.016 98.6127 135.981 100.257 134.315C101.695 132.929 102.946 131.363 103.978 129.654C104.382 129.001 104.661 128.45 104.866 128.076L105.087 127.635C105.112 127.582 105.142 127.53 105.175 127.481C105.163 127.538 105.144 127.592 105.116 127.643C105.057 127.789 104.991 127.936 104.918 128.098C104.734 128.487 104.463 129.052 104.074 129.713C103.058 131.447 101.808 133.032 100.36 134.425C98.6788 136.076 96.7924 137.126 95.7575 138.256C95.3342 138.687 94.9824 139.183 94.7152 139.724C94.5317 140.106 94.4729 140.341 94.4509 140.333Z" fill="#455A64"/>
<path d="M92.2343 155.439C92.3666 155.375 92.4941 155.301 92.616 155.219C92.9287 154.963 93.1459 154.608 93.2325 154.213C93.358 153.628 93.3017 153.019 93.071 152.466C92.8508 151.828 92.4765 151.153 92.2783 150.375C91.8008 148.643 91.9866 146.795 92.7995 145.193C92.8629 145.057 92.9417 144.929 93.0343 144.811C92.9879 144.953 92.9289 145.09 92.8582 145.222C92.6912 145.592 92.5537 145.975 92.4471 146.367C92.0937 147.667 92.0937 149.038 92.4471 150.338C92.6453 151.072 93.005 151.762 93.2252 152.422C93.4576 153.001 93.5037 153.637 93.3573 154.243C93.2559 154.652 93.0144 155.013 92.6747 155.263C92.5436 155.355 92.3928 155.416 92.2343 155.439Z" fill="#455A64"/>
<g opacity="0.1">
<path d="M72.7319 212.75C75.4037 212.97 77.9727 211.612 80.0719 209.924C82.1711 208.236 83.9548 206.195 86.1421 204.647C88.3294 203.098 91.1186 202.063 93.7023 202.79C95.9483 203.421 97.6145 205.234 99.3908 206.738C103.46 210.29 108.592 212.391 113.983 212.713C113.946 211.979 114.13 209.726 114.13 209.726C113.542 208.852 112.272 208.177 111.472 207.524L104.008 201.087C102.129 199.464 100.206 197.82 97.9154 196.866C95.94 196.135 93.8722 195.683 91.7719 195.523C89.9809 195.317 88.1019 195.134 86.443 195.824C84.6594 196.558 83.419 198.173 82.2666 199.721L72.4016 212.86" fill="black"/>
</g>
<path d="M88.7772 180.292L87.9478 197.769H102.349L104.11 180.784L88.7772 180.292Z" fill="#455A64"/>
<path d="M68.438 197.637L66.6397 201.6C64.9956 207.252 68.0417 212.486 73.1503 212.904L85.988 197.894L83.852 189.034L68.438 197.637Z" fill="#FFBE9D"/>
<path d="M85.988 197.894C88.9554 197.757 91.9117 197.439 94.84 196.94C98.3045 196.389 98.2678 196.073 98.143 195.677C97.8127 194.613 92.0141 196.411 93.0564 195.303C94.0987 194.194 100.396 193.923 99.9927 192.829C99.4789 191.398 93.4381 193.402 92.917 193.563C92.3958 193.725 92.183 192.939 92.6821 192.829C93.372 192.697 100.551 191.104 100.066 189.695C99.7945 188.917 98.4366 189.57 98.4366 189.57C98.4366 189.57 91.8306 191.552 91.6104 190.884C91.3902 190.216 95.2804 188.902 96.5796 188.557C97.8788 188.212 98.2752 187.449 97.6586 186.987C97.2329 186.671 93.1445 187.632 91.8453 188.007C90.5461 188.381 86.9716 189.475 88.3295 187.493L88.3882 187.398C89.7828 185.497 90.2232 183.566 89.9736 182.92C89.9071 182.782 89.8029 182.665 89.673 182.584C89.5432 182.502 89.393 182.459 89.2396 182.459C89.0863 182.459 88.936 182.502 88.8062 182.584C88.6764 182.665 88.5722 182.782 88.5056 182.92C88.4425 183.016 88.3977 183.123 88.3735 183.236C88.3735 183.287 88.3368 183.353 88.3221 183.412C87.9922 184.15 87.5889 184.854 87.1184 185.511C86.7173 186.104 86.2214 186.628 85.6504 187.06C84.9677 187.552 83.2649 189.357 82.7144 189.68" fill="#FFBE9D"/>
<path d="M103.641 193.776C103.677 193.504 104.624 193.497 105.608 192.69C106.17 192.229 106.598 191.625 106.848 190.943C107.171 190.092 107.292 189.177 107.201 188.271C107.119 187.375 106.808 186.516 106.298 185.775C105.869 185.179 105.303 184.695 104.646 184.366C103.487 183.772 102.554 183.852 102.488 183.573C102.488 183.456 102.657 183.258 103.105 183.104C103.756 182.926 104.443 182.926 105.094 183.104C106.095 183.356 106.994 183.91 107.67 184.689C108.488 185.649 108.988 186.839 109.102 188.095C109.229 189.331 109.003 190.579 108.448 191.691C107.993 192.628 107.242 193.388 106.312 193.857C105.697 194.172 105 194.29 104.316 194.194C103.839 194.07 103.626 193.886 103.641 193.776Z" fill="#455A64"/>
<path d="M102.246 194.811L97.6219 197.182C97.4284 197.279 97.2601 197.42 97.13 197.594C96.9999 197.767 96.9116 197.968 96.8718 198.181C96.8321 198.394 96.842 198.614 96.9008 198.822C96.9596 199.031 97.0657 199.223 97.2108 199.384C100.925 203.494 112.911 215.018 126.373 209.117C127.623 208.594 128.629 207.615 129.186 206.38C129.743 205.144 129.811 203.743 129.375 202.459C128.641 200.404 126.439 198.415 121.081 197.901H120.978L103.142 194.701C102.839 194.636 102.524 194.675 102.246 194.811Z" fill="#FFBE9D"/>
<path d="M97.9302 184.234C97.9302 184.234 103.281 184.293 103.611 185.482C104.177 187.442 103.171 198.209 103.171 198.209L98.2532 199.846C98.2532 199.846 95.875 199.296 96.976 194.708C97.6908 191.836 98.7842 189.071 100.228 186.487C100.228 186.487 93.6877 186.671 93.8712 185.21C94.0547 183.75 97.9302 184.234 97.9302 184.234Z" fill="#FFBE9D"/>
<path d="M100.059 187.383C99.7652 187.331 93.2252 186.788 93.6363 187.831C94.0473 188.873 100.059 189.137 100.059 189.137V187.383Z" fill="#FFBE9D"/>
<path d="M89.5479 180.931L103.362 181.349C103.362 181.349 96.5355 186.59 89.5479 180.931Z" fill="#263238"/>
<path d="M89.6213 180.792C89.5084 180.684 89.4229 180.55 89.3718 180.403C89.2127 179.974 89.2127 179.503 89.3718 179.074C89.6336 178.398 90.1426 177.847 90.7957 177.533C91.6401 177.143 92.5169 176.829 93.4161 176.593C93.9129 176.451 94.3718 176.201 94.7593 175.859C94.9388 175.669 95.0441 175.421 95.0562 175.159C95.0684 174.898 94.9865 174.641 94.8254 174.435C94.4707 173.956 93.9716 173.603 93.4014 173.43C92.7428 173.222 92.1334 172.882 91.6105 172.431C91.3322 172.165 91.1492 171.814 91.0893 171.433C91.0414 171.043 91.1158 170.648 91.3022 170.303C91.6995 169.649 92.2681 169.116 92.9464 168.761C94.2364 167.96 95.3786 166.942 96.3228 165.752L96.4989 165.532L96.6384 165.781C96.7931 166.057 96.8975 166.357 96.9467 166.669C97.0152 167.098 96.9846 167.536 96.8574 167.951C96.7302 168.366 96.5096 168.746 96.2127 169.062C95.9264 169.363 95.6181 169.613 95.3612 169.884C95.1002 170.11 94.9306 170.423 94.8841 170.765C94.8829 170.928 94.9209 171.09 94.995 171.235C95.0691 171.381 95.1771 171.507 95.3098 171.602C95.5858 171.808 95.9087 171.941 96.2494 171.991C96.9604 172.084 97.6758 172.14 98.3926 172.16C99.096 172.182 99.7928 172.303 100.463 172.519C101.117 172.731 101.693 173.135 102.114 173.679C102.305 173.942 102.44 174.241 102.512 174.557C102.584 174.874 102.591 175.202 102.532 175.521C102.472 175.828 102.333 176.114 102.129 176.351C101.93 176.563 101.697 176.739 101.439 176.872C100.976 177.122 100.543 177.408 100.463 177.834C100.382 178.259 100.727 178.568 101.079 178.773C101.432 178.933 101.805 179.044 102.187 179.103C102.525 179.169 102.843 179.31 103.12 179.514C103.302 179.672 103.437 179.876 103.511 180.105C103.585 180.334 103.594 180.579 103.538 180.814C103.509 180.974 103.447 181.127 103.354 181.261C103.354 181.261 103.421 181.107 103.465 180.806C103.501 180.589 103.481 180.365 103.405 180.158C103.329 179.951 103.2 179.767 103.032 179.624C102.763 179.448 102.46 179.331 102.143 179.279C101.744 179.229 101.354 179.123 100.984 178.964C100.767 178.867 100.576 178.721 100.426 178.538C100.343 178.437 100.282 178.319 100.247 178.193C100.211 178.066 100.202 177.934 100.22 177.804C100.33 177.239 100.859 176.909 101.299 176.652C101.537 176.546 101.746 176.384 101.91 176.181C102.073 175.979 102.186 175.74 102.239 175.485C102.289 175.205 102.28 174.918 102.215 174.641C102.149 174.365 102.027 174.105 101.857 173.877C101.469 173.395 100.945 173.039 100.352 172.857C99.7086 172.637 99.0359 172.513 98.3559 172.49C97.6196 172.475 96.8846 172.421 96.1539 172.329C95.7518 172.269 95.3708 172.11 95.0456 171.866C94.8689 171.734 94.7257 171.562 94.6275 171.365C94.5294 171.167 94.479 170.949 94.4804 170.728C94.5304 170.295 94.7334 169.894 95.0529 169.598C95.3392 169.304 95.6401 169.055 95.9044 168.776C96.1592 168.501 96.3479 168.172 96.456 167.813C96.5641 167.455 96.5889 167.076 96.5283 166.706C96.4806 166.449 96.3913 166.201 96.264 165.972H96.5797C95.6066 167.193 94.4295 168.236 93.1005 169.055C92.4759 169.375 91.9487 169.856 91.5738 170.449C91.4234 170.73 91.3596 171.05 91.3903 171.367C91.4443 171.672 91.5933 171.952 91.816 172.167C92.3037 172.586 92.8702 172.903 93.4822 173.099C94.1121 173.304 94.66 173.706 95.0456 174.244C95.2224 174.523 95.3166 174.846 95.3172 175.176C95.2962 175.5 95.1579 175.806 94.9282 176.035C94.5029 176.402 94.0015 176.67 93.4602 176.821C92.5692 177.037 91.6977 177.327 90.8545 177.687C90.2354 177.969 89.7435 178.471 89.4745 179.096C89.3097 179.495 89.2864 179.938 89.4085 180.351C89.5479 180.659 89.636 180.784 89.6213 180.792Z" fill="white"/>
<path d="M213.513 140.194C209.645 140.811 207.913 145.574 208.251 149.486C208.588 153.399 210.196 157.215 209.763 161.12C209.219 166.075 205.476 170.259 205.036 175.228C204.522 181.1 208.662 186.275 209.902 192.022C210.504 194.818 210.416 197.769 211.458 200.433C212.342 202.703 213.987 204.596 216.112 205.788C218.236 206.98 220.709 207.398 223.107 206.97C225.505 206.542 227.68 205.294 229.261 203.441C230.842 201.588 231.731 199.243 231.775 196.807C231.863 192.308 229.089 188.073 229.426 183.595C229.676 180.278 231.628 177.136 231.203 173.841C230.711 169.914 227.07 167.132 225.786 163.388C224.501 159.645 225.742 155.527 225.294 151.593C224.501 144.539 220.589 139.621 213.513 140.194Z" fill="#5531AA"/>
<path d="M193.732 174.303C193.071 180.843 195.934 188.528 199.318 194.172C202.724 199.848 207.847 204.292 213.946 206.863C214.629 207.149 215.48 207.392 216.06 206.929C216.264 206.704 216.417 206.437 216.509 206.147C216.6 205.857 216.627 205.55 216.589 205.248C216.635 198.313 214.432 191.55 210.312 185.971C206.191 180.392 200.374 176.298 193.732 174.303Z" fill="#5531AA"/>
<g opacity="0.1">
<path d="M193.732 174.303C193.071 180.843 195.934 188.528 199.318 194.172C202.724 199.848 207.847 204.292 213.946 206.863C214.629 207.149 215.48 207.392 216.06 206.929C216.264 206.704 216.417 206.437 216.509 206.147C216.6 205.857 216.627 205.55 216.589 205.248C216.635 198.313 214.432 191.55 210.312 185.971C206.191 180.392 200.374 176.298 193.732 174.303Z" fill="black"/>
</g>
<path d="M222.196 220.53C222.118 220.416 222.054 220.293 222.006 220.163L221.543 219.092C221.147 218.159 220.56 216.816 219.818 215.172C215.927 206.571 211.15 198.399 205.564 190.789C204.5 189.321 203.619 188.161 202.995 187.361L202.261 186.429C202.175 186.323 202.099 186.21 202.033 186.091C202.033 186.091 202.144 186.179 202.32 186.385L203.054 187.273C203.714 188.043 204.624 189.188 205.725 190.634C211.458 198.177 216.268 206.377 220.053 215.062C220.787 216.728 221.323 218.086 221.675 219.04L222.079 220.141C222.131 220.267 222.171 220.397 222.196 220.53Z" fill="#263238"/>
<path d="M217.998 158.236C218.034 158.444 218.056 158.655 218.064 158.867C218.101 159.307 218.145 159.909 218.196 160.665C218.299 162.265 218.446 164.519 218.622 167.271C218.974 172.864 219.473 180.586 220.09 189.108C220.707 197.63 221.286 205.359 221.72 210.944C221.932 213.711 222.101 215.957 222.226 217.55C222.277 218.284 222.314 218.908 222.343 219.349C222.363 219.559 222.363 219.77 222.343 219.98C222.295 219.775 222.263 219.566 222.248 219.356C222.204 218.916 222.138 218.314 222.057 217.565C221.91 215.965 221.697 213.719 221.433 210.959C220.934 205.373 220.303 197.659 219.701 189.13C219.099 180.601 218.644 172.872 218.358 167.279C218.233 164.504 218.13 162.251 218.05 160.673C218.05 159.939 218.005 159.315 217.991 158.867C217.976 158.657 217.978 158.446 217.998 158.236Z" fill="#263238"/>
<path d="M211.979 211.208H228.34V223.224C228.34 225.307 227.513 227.305 226.04 228.778C224.567 230.25 222.569 231.078 220.486 231.078C218.476 231.077 216.542 230.306 215.082 228.923C213.623 227.54 212.749 225.65 212.64 223.642L211.979 211.208Z" fill="#263238"/>
<path d="M228.414 216.934C228.414 216.934 228.208 216.816 227.812 216.684C227.254 216.517 226.663 216.495 226.094 216.618C225.244 216.828 224.416 217.118 223.621 217.484C223.121 217.688 222.598 217.831 222.065 217.91C221.486 217.979 220.901 217.949 220.332 217.822C219.274 217.547 218.232 217.211 217.213 216.816C216.393 216.528 215.526 216.404 214.658 216.449C214.079 216.48 213.518 216.659 213.029 216.97C212.684 217.205 212.537 217.389 212.508 217.367C212.603 217.162 212.75 216.985 212.934 216.853C213.428 216.475 214.017 216.241 214.636 216.178C215.543 216.092 216.458 216.194 217.323 216.479C218.292 216.772 219.305 217.213 220.406 217.447C220.935 217.566 221.481 217.598 222.02 217.543C222.522 217.467 223.015 217.336 223.488 217.154C224.307 216.792 225.164 216.523 226.043 216.354C226.656 216.248 227.286 216.314 227.863 216.545C228.274 216.728 228.428 216.919 228.414 216.934Z" fill="#455A64"/>
<path d="M228.413 218.336C228.413 218.336 228.208 218.218 227.812 218.086C227.249 217.909 226.65 217.878 226.072 217.998C225.221 218.204 224.392 218.494 223.598 218.864C223.098 219.065 222.575 219.207 222.042 219.29C221.464 219.356 220.879 219.326 220.31 219.202C219.253 218.921 218.211 218.583 217.191 218.189C216.371 217.901 215.503 217.776 214.636 217.822C214.057 217.854 213.495 218.036 213.007 218.35C212.662 218.578 212.515 218.761 212.486 218.739C212.581 218.534 212.728 218.357 212.911 218.226C213.405 217.847 213.995 217.615 214.614 217.558C215.521 217.464 216.437 217.567 217.301 217.859C218.27 218.145 219.282 218.593 220.383 218.827C220.913 218.944 221.459 218.973 221.998 218.916C222.501 218.847 222.994 218.719 223.466 218.534C224.286 218.173 225.142 217.902 226.021 217.726C226.633 217.621 227.263 217.687 227.841 217.917C228.069 217.996 228.269 218.142 228.413 218.336Z" fill="#455A64"/>
<path d="M214.9 219.136C214.9 219.187 214.776 219.253 214.732 219.444C214.688 219.635 214.768 219.862 215.04 219.818C215.312 219.774 215.326 219.539 215.216 219.363C215.106 219.187 214.959 219.18 214.952 219.128C214.945 219.077 215.157 218.967 215.414 219.18C215.487 219.246 215.543 219.328 215.577 219.42C215.612 219.512 215.624 219.611 215.612 219.708C215.59 219.834 215.528 219.95 215.436 220.038C215.344 220.127 215.225 220.183 215.099 220.2C214.972 220.223 214.842 220.206 214.726 220.151C214.61 220.095 214.514 220.005 214.453 219.892C214.411 219.802 214.393 219.703 214.399 219.604C214.406 219.506 214.437 219.41 214.489 219.327C214.666 219.048 214.915 219.084 214.9 219.136Z" fill="#455A64"/>
<path d="M220.824 216.016C220.773 216.016 220.897 215.767 221.228 215.818C221.327 215.839 221.418 215.891 221.486 215.966C221.555 216.041 221.598 216.135 221.609 216.236C221.625 216.361 221.598 216.488 221.532 216.596C221.466 216.703 221.366 216.785 221.248 216.829C221.13 216.872 221 216.874 220.881 216.835C220.761 216.795 220.658 216.716 220.589 216.611C220.535 216.528 220.507 216.431 220.507 216.332C220.507 216.233 220.535 216.136 220.589 216.053C220.765 215.781 220.993 215.818 220.993 215.869C220.993 215.921 220.875 215.994 220.831 216.163C220.822 216.204 220.822 216.247 220.832 216.288C220.842 216.328 220.862 216.366 220.89 216.398C220.921 216.431 220.961 216.456 221.005 216.468C221.049 216.481 221.095 216.482 221.14 216.471C221.18 216.454 221.215 216.426 221.24 216.389C221.265 216.353 221.278 216.31 221.279 216.266C221.282 216.227 221.273 216.188 221.253 216.154C221.233 216.12 221.204 216.092 221.169 216.075C220.993 215.994 220.861 216.053 220.824 216.016Z" fill="#455A64"/>
<path d="M226.556 219.04C226.556 218.996 226.777 218.901 227.034 219.143C227.11 219.218 227.164 219.313 227.188 219.416C227.213 219.52 227.208 219.629 227.173 219.73C227.137 219.864 227.057 219.983 226.945 220.065C226.833 220.147 226.697 220.189 226.558 220.183C226.419 220.177 226.286 220.124 226.182 220.032C226.078 219.94 226.008 219.816 225.984 219.679C225.96 219.571 225.971 219.459 226.014 219.357C226.058 219.256 226.132 219.171 226.226 219.114C226.542 218.93 226.755 219.114 226.711 219.15C226.667 219.187 226.527 219.15 226.388 219.326C226.353 219.36 226.33 219.403 226.319 219.45C226.309 219.497 226.312 219.546 226.329 219.591C226.347 219.643 226.38 219.689 226.422 219.724C226.465 219.759 226.516 219.781 226.571 219.789C226.629 219.787 226.685 219.769 226.733 219.736C226.781 219.704 226.819 219.658 226.843 219.605C226.866 219.56 226.878 219.51 226.878 219.459C226.878 219.408 226.866 219.357 226.843 219.312C226.718 219.136 226.549 219.099 226.556 219.04Z" fill="#455A64"/>
</svg>
