<svg width="40" height="40" viewBox="0 0 40 40" fill="none" xmlns="http://www.w3.org/2000/svg">
<rect width="40" height="40" rx="5" fill="#F4F8FC"/>
<path d="M20 29C24.9706 29 29 24.9706 29 20C29 15.0294 24.9706 11 20 11C15.0294 11 11 15.0294 11 20C11 24.9706 15.0294 29 20 29Z" stroke="#1C2D57" stroke-width="1.5" stroke-linecap="round" stroke-linejoin="round"/>
<path d="M20 25.4447C20.6171 25.4447 21.1173 24.9445 21.1173 24.3273C21.1173 23.7102 20.6171 23.21 20 23.21C19.3828 23.21 18.8826 23.7102 18.8826 24.3273C18.8826 24.9445 19.3828 25.4447 20 25.4447Z" fill="#1C2D57"/>
<path d="M17.7856 16.6175C17.9837 16.1193 18.3499 15.7061 18.8207 15.4496C19.2915 15.1931 19.8372 15.1095 20.3632 15.2132C20.8892 15.317 21.3623 15.6016 21.7005 16.0176C22.0386 16.4337 22.2205 16.955 22.2145 17.4911C22.2145 19.6446 19.9188 19.9087 19.9188 20.7213V21.3613" stroke="#1C2D57" stroke-width="1.5" stroke-linecap="round" stroke-linejoin="round"/>
<path d="M20 29C24.9706 29 29 24.9706 29 20C29 15.0294 24.9706 11 20 11C15.0294 11 11 15.0294 11 20C11 24.9706 15.0294 29 20 29Z" stroke="#1C2D57" stroke-width="1.5" stroke-linecap="round" stroke-linejoin="round"/>
<path d="M20.0002 25.4447C20.6173 25.4447 21.1176 24.9445 21.1176 24.3273C21.1176 23.7102 20.6173 23.21 20.0002 23.21C19.3831 23.21 18.8828 23.7102 18.8828 24.3273C18.8828 24.9445 19.3831 25.4447 20.0002 25.4447Z" fill="#F35BAC"/>
<path d="M17.7856 16.6175C17.9837 16.1193 18.3499 15.7061 18.8207 15.4496C19.2915 15.1931 19.8372 15.1095 20.3632 15.2133C20.8892 15.317 21.3623 15.6016 21.7005 16.0177C22.0386 16.4337 22.2205 16.955 22.2145 17.4911C22.2145 19.6446 19.9188 19.9087 19.9188 20.7213V21.3613" stroke="#F35BAC" stroke-width="1.5" stroke-linecap="round" stroke-linejoin="round"/>
</svg>
