<svg width="40" height="40" viewBox="0 0 40 40" fill="none" xmlns="http://www.w3.org/2000/svg">
<rect width="40" height="40" rx="5" fill="#F4F8FC"/>
<path d="M11 20.7422H13.9917L16.4648 15.5765C16.5496 15.3944 16.6874 15.2421 16.8602 15.1396C17.033 15.0371 17.2327 14.9891 17.4332 15.0021C17.6337 15.015 17.8256 15.0882 17.9837 15.2121C18.1419 15.3359 18.259 15.5047 18.3197 15.6962L21.3114 24.8607C21.3694 25.0454 21.48 25.2092 21.6296 25.3321C21.7792 25.455 21.9613 25.5317 22.1537 25.5529C22.3462 25.574 22.5406 25.5387 22.7133 25.4512C22.886 25.3637 23.0295 25.2278 23.1263 25.0602L26.0083 20.1438H29" stroke="#1C2D57" stroke-width="1.5" stroke-linecap="round" stroke-linejoin="round"/>
</svg>
