<svg width="40" height="40" viewBox="0 0 40 40" fill="none" xmlns="http://www.w3.org/2000/svg">
<rect width="40" height="40" rx="5" fill="#F4F8FC"/>
<g clip-path="url(#clip0_1_4770)">
<path d="M25.543 14.43C25.9258 14.3669 26.3187 14.4165 26.6738 14.5727C27.0289 14.729 27.3309 14.9851 27.543 15.31C27.623 15.43 27.693 15.51 27.783 15.66C27.873 15.81 27.953 15.96 28.033 16.12C28.1938 16.4597 28.2556 16.8377 28.2114 17.2109C28.1672 17.5841 28.0187 17.9373 27.783 18.23C27.4005 18.7179 27.1928 19.32 27.193 19.94C27.2009 20.5633 27.4115 21.167 27.793 21.66C28.03 21.9497 28.181 22.3001 28.2287 22.6713C28.2764 23.0426 28.219 23.4198 28.063 23.76C27.9221 24.0453 27.7652 24.3224 27.593 24.59C27.3849 24.9203 27.0846 25.1825 26.7292 25.3442C26.3738 25.506 25.9788 25.5601 25.593 25.5C24.9795 25.4219 24.3573 25.5485 23.823 25.86C23.2843 26.1707 22.8653 26.6531 22.633 27.23C22.4947 27.5954 22.2525 27.9122 21.9361 28.1415C21.6198 28.3707 21.2433 28.5023 20.853 28.52C20.5634 28.54 20.2727 28.54 19.983 28.52C19.5939 28.5031 19.2182 28.373 18.902 28.1456C18.5858 27.9182 18.3429 27.6035 18.203 27.24C17.9643 26.6625 17.5394 26.1815 16.9957 25.8734C16.4521 25.5653 15.821 25.448 15.203 25.54C14.8202 25.6031 14.4273 25.5535 14.0722 25.3973C13.7171 25.241 13.4151 24.9848 13.203 24.66C13.123 24.54 13.063 24.43 12.973 24.28C12.883 24.13 12.803 23.98 12.723 23.82C12.5622 23.4803 12.5004 23.1022 12.5446 22.729C12.5889 22.3559 12.7373 22.0027 12.973 21.71C13.3555 21.2221 13.5632 20.62 13.563 20C13.5515 19.3882 13.3448 18.796 12.973 18.31C12.736 18.0203 12.5851 17.6699 12.5373 17.2986C12.4896 16.9274 12.547 16.5502 12.703 16.21C12.8439 15.9247 13.0008 15.6476 13.173 15.38C13.3812 15.0496 13.6814 14.7874 14.0368 14.6257C14.3922 14.464 14.7872 14.4099 15.173 14.47C15.7865 14.548 16.4087 14.4215 16.943 14.11C17.4817 13.7993 17.9007 13.3169 18.133 12.74C18.2699 12.3776 18.5091 12.0628 18.8216 11.8338C19.134 11.6048 19.5062 11.4715 19.893 11.45C20.1827 11.43 20.4734 11.43 20.763 11.45C21.1521 11.4669 21.5278 11.597 21.844 11.8243C22.1602 12.0517 22.4032 12.3665 22.543 12.73C22.6058 12.882 22.6816 13.0273 22.769 13.1646" stroke="#15224F" stroke-width="1.5" stroke-linecap="round" stroke-linejoin="round"/>
<path d="M20.373 22.31C21.6488 22.31 22.683 21.2758 22.683 20C22.683 18.7242 21.6488 17.69 20.373 17.69C19.0972 17.69 18.063 18.7242 18.063 20C18.063 21.2758 19.0972 22.31 20.373 22.31Z" stroke="#F35BAC" stroke-width="1.5" stroke-linecap="round" stroke-linejoin="round"/>
</g>
<defs>
<clipPath id="clip0_1_4770">
<rect width="24" height="24" fill="white" transform="translate(8.37305 8)"/>
</clipPath>
</defs>
</svg>
