<svg width="100" height="100" viewBox="0 0 100 100" fill="none" xmlns="http://www.w3.org/2000/svg">
<g clip-path="url(#clip0_1_4851)">
<path d="M50 100C77.6142 100 100 77.6142 100 50C100 22.3858 77.6142 0 50 0C22.3858 0 0 22.3858 0 50C0 77.6142 22.3858 100 50 100Z" fill="#FFC200"/>
<path fill-rule="evenodd" clip-rule="evenodd" d="M85.0924 85.6125C75.6565 94.9132 62.9144 100.088 49.6655 99.9996C36.4167 99.9113 23.7447 94.5673 14.4336 85.1417C15.6244 81.8486 17.9372 79.0803 20.966 77.3229C23.0073 75.8136 25.2208 74.5523 27.5598 73.5656C24.0032 61.3439 33.6715 55.3357 37.3706 53.606C37.3706 59.2484 42.6537 55.504 49.2104 55.5752C54.6085 55.6351 65.2833 61.0688 65.2833 53.9005C71.2218 55.6577 77.6943 66.9749 73.2396 73.928C75.0661 74.8211 76.7916 75.9071 78.3869 77.1675C81.5055 79.152 83.867 82.1267 85.0924 85.6142V85.6125Z" fill="#677079"/>
<path fill-rule="evenodd" clip-rule="evenodd" d="M38.8871 62.5903L63.0296 62.736V68.2975L63.0182 68.3832C63.0015 68.6352 62.9636 68.8852 62.905 69.1308L62.8241 69.6826L62.7755 69.7975C61.2124 78.0079 54.3726 81.181 50.1493 83.3914C45.6994 80.9674 39.4081 76.6001 38.9081 68.8735L38.8871 68.7781V68.4544C38.8836 68.3428 38.8815 68.2311 38.8806 68.1195C38.8806 68.1777 38.8855 68.2327 38.8871 68.291V62.5903Z" fill="#F9DCA4"/>
<path opacity="0.11" fill-rule="evenodd" clip-rule="evenodd" d="M63.0311 62.4878V68.9684C63.0263 69.5691 62.9749 70.1685 62.8773 70.7613C62.7548 71.495 62.5485 72.2122 62.2625 72.8988C53.8741 79.2338 40.5083 74.038 38.374 63.2176L63.0311 62.4878Z" fill="black"/>
<path fill-rule="evenodd" clip-rule="evenodd" d="M29.2947 40.8325C21.3011 42.8875 28.0972 52.6287 33.1248 52.5866C31.0973 48.9543 29.7964 44.962 29.2947 40.8325Z" fill="#F9DCA4"/>
<path fill-rule="evenodd" clip-rule="evenodd" d="M70.9338 40.8325C78.9273 42.8875 72.1312 52.6287 67.1021 52.585C69.1301 48.9534 70.4315 44.9616 70.9338 40.8325Z" fill="#F9DCA4"/>
<path fill-rule="evenodd" clip-rule="evenodd" d="M49.7301 18.3838C82.9389 18.3838 69.9971 70.8856 49.7301 70.8856C30.5876 70.8856 16.5212 18.3838 49.7301 18.3838Z" fill="#FFE8BE"/>
<path fill-rule="evenodd" clip-rule="evenodd" d="M34.0569 35.768C34.3402 36.0785 34.5503 36.4486 34.6717 36.8511C34.7931 37.2535 34.8228 37.678 34.7585 38.0934C34.6943 38.5088 34.5377 38.9046 34.3003 39.2515C34.063 39.5984 33.7509 39.8877 33.387 40.0981C31.0407 42.0285 30.9549 48.76 30.9549 48.76C30.0488 47.8603 30.0698 43.0415 28.1054 40.2567C26.141 37.4719 24.8173 17.9864 35.8028 10.9006C35.1278 11.6946 34.6412 12.6312 34.3798 13.6401C34.1183 14.6489 34.0887 15.7039 34.2931 16.7259C34.2931 16.7259 41.9242 5.78247 54.5844 6.098C53.5808 6.64528 52.7036 7.39788 52.0103 8.30678C51.3169 9.21569 50.8228 10.2605 50.5601 11.3731C50.5601 11.3731 61.6281 6.80674 70.8515 12.2388C68.4535 12.9016 66.1855 13.9669 64.1443 15.3893C68.6233 15.5123 72.9518 16.344 76.2156 19.2469C75.5132 19.4724 74.8631 19.8364 74.3037 20.3174C73.7443 20.7984 73.287 21.3866 72.9588 22.0473C72.6305 22.7079 72.438 23.4277 72.3927 24.164C72.3473 24.9004 72.4499 25.6383 72.6945 26.3343C74.0796 32.0026 74.2091 37.2761 72.8677 40.1111C71.5262 42.946 70.8935 41.1159 70.0537 47.0609C70.0126 47.4625 69.8786 47.8491 69.6623 48.19C69.4461 48.5309 69.1535 48.8169 68.8078 49.0253C68.7754 49.4557 69.4259 42.9476 67.7479 41.2146C66.0715 39.4832 67.1249 37.3554 67.7948 36.0965C72.4712 27.3149 58.4663 23.3359 50.811 23.3456C44.1718 23.3537 28.1572 26.3715 34.0569 35.768Z" fill="#8A5C42"/>
<path fill-rule="evenodd" clip-rule="evenodd" d="M32.0227 79.5497C32.0712 79.6112 48.8804 101.367 68.6409 79.2261C66.2542 85.7827 55.9597 90.9899 50.0713 90.9737C38.8253 90.9413 32.602 81.9122 32.0227 79.5497Z" fill="#434955"/>
<path fill-rule="evenodd" clip-rule="evenodd" d="M58.7962 99.2293C58.1328 99.3458 57.4661 99.4478 56.7946 99.54V85.0788C56.8192 84.8366 56.9376 84.6136 57.1245 84.4576C57.3113 84.3015 57.5519 84.2248 57.7946 84.2438C58.0375 84.2244 58.2785 84.3009 58.4657 84.457C58.6529 84.6131 58.7716 84.8363 58.7962 85.0788V99.2293ZM42.9062 99.4979C42.2352 99.4019 41.568 99.294 40.9045 99.1743V85.0788C40.9292 84.8366 41.0476 84.6136 41.2344 84.4576C41.4213 84.3015 41.6618 84.2248 41.9045 84.2438C42.1478 84.2239 42.3891 84.3003 42.5767 84.4564C42.7643 84.6125 42.8832 84.836 42.9078 85.0788L42.9062 99.4979Z" fill="#E6E6E6"/>
</g>
<defs>
<clipPath id="clip0_1_4851">
<rect width="100" height="100" fill="white"/>
</clipPath>
</defs>
</svg>
