<svg width="17" height="17" viewBox="0 0 17 17" fill="none" xmlns="http://www.w3.org/2000/svg">
<path d="M1.07721 8.41165C1.07721 6.96101 1.50737 5.54295 2.31331 4.33679C3.11924 3.13063 4.26474 2.19054 5.60495 1.6354C6.94517 1.08027 8.41991 0.935017 9.84267 1.21802C11.2654 1.50103 12.5723 2.19958 13.5981 3.22533C14.6238 4.25109 15.3224 5.55798 15.6054 6.98075C15.8884 8.40351 15.7432 9.87825 15.188 11.2185C14.6329 12.5587 13.6928 13.7042 12.4866 14.5101C11.2805 15.316 9.86241 15.7462 8.41177 15.7462C6.46652 15.7462 4.60095 14.9735 3.22545 13.598C1.84996 12.2225 1.07721 10.3569 1.07721 8.41165ZM14.7684 8.41165C14.7684 7.15443 14.3956 5.92544 13.6971 4.8801C12.9986 3.83476 12.0059 3.02002 10.8443 2.5389C9.68282 2.05778 8.40472 1.9319 7.17165 2.17717C5.93859 2.42244 4.80595 3.02785 3.91696 3.91684C3.02797 4.80583 2.42256 5.93847 2.17729 7.17154C1.93202 8.4046 2.0579 9.6827 2.53902 10.8442C3.02014 12.0057 3.83488 12.9985 4.88022 13.697C5.92556 14.3955 7.15455 14.7683 8.41177 14.7683C10.0976 14.7683 11.7145 14.0986 12.9066 12.9065C14.0987 11.7144 14.7684 10.0975 14.7684 8.41165Z" fill="white"/>
<path d="M6.51945 11.1448L9.2479 8.41148L6.51945 5.67813C6.42838 5.58652 6.37726 5.46259 6.37726 5.33341C6.37726 5.20423 6.42838 5.0803 6.51945 4.98869C6.61106 4.89761 6.73499 4.8465 6.86417 4.8465C6.99335 4.8465 7.11728 4.89761 7.2089 4.98869L10.3187 8.09854C10.4012 8.18184 10.4474 8.2943 10.4474 8.41148C10.4474 8.52866 10.4012 8.64112 10.3187 8.72442L7.2089 11.8343C7.11728 11.9253 6.99335 11.9765 6.86417 11.9765C6.73499 11.9765 6.61106 11.9253 6.51945 11.8343C6.42838 11.7427 6.37726 11.6187 6.37726 11.4895C6.37726 11.3604 6.42838 11.2364 6.51945 11.1448Z" fill="white"/>
</svg>
